<svg width="704" height="185" viewBox="0 0 704 185" fill="none" xmlns="http://www.w3.org/2000/svg">
<path d="M13.2102 132.966L13.021 62.28H0L0.180221 46.718C9.10717 46.718 13.5707 43.2368 13.5707 36.2744C26.2883 36.2744 32.6471 41.5876 32.6471 52.2142V148.725C19.6832 148.725 13.2012 143.475 13.2012 132.974L13.2102 132.966Z" fill="#4A9CD6"/>
<path d="M116.205 133.062V98.8292C116.205 82.9783 113.378 73.5143 95.0205 73.5143C79.9552 73.5143 72.4225 81.9526 72.4225 98.8292V148.725C60.4154 148.725 54.4118 143.504 54.4118 133.062V59.3093C63.592 59.3093 68.1822 63.4987 68.1822 71.8773C71.1825 65.6873 80.3656 58.0391 99.9632 58.0391C128.388 58.0391 134.216 75.1602 134.216 100.466V148.725C122.209 148.725 116.205 143.504 116.205 133.062Z" fill="black"/>
<path d="M216.962 133.062V98.8292C216.962 82.9783 214.006 73.5143 194.812 73.5143C179.06 73.5143 171.184 81.9526 171.184 98.8292V148.725C158.63 148.725 152.353 143.504 152.353 133.062V59.3093C161.951 59.3093 166.751 63.4987 166.751 71.8773C169.888 65.6873 179.489 58.0391 199.971 58.0391C229.691 58.0391 235.784 75.1602 235.784 100.466V148.725C223.23 148.725 216.953 143.504 216.953 133.062H216.962Z" fill="black"/>
<path d="M295.55 148.716C258.81 148.716 250.294 124.535 250.294 90.7724C250.294 57.0102 258.993 32.6471 295.55 32.6471C332.107 32.6471 340.98 56.8199 340.98 90.9627C340.98 125.106 332.281 148.726 295.55 148.726V148.716ZM295.55 48.8801C277.92 48.8801 269.104 62.8442 269.104 90.7724C269.104 116.232 273.192 132.665 295.55 132.665C313.413 132.665 322.345 118.764 322.345 90.9627C322.345 65.3126 318.265 48.8892 295.55 48.8892V48.8801Z" fill="#4A9CD6"/>
<path d="M404.659 148.726C368.443 148.726 359.118 126.271 359.118 101.956V21.7647C377.41 21.7647 377.589 21.7647 377.589 37.7283V67.4217C381.426 61.2952 390.392 54.9864 408.127 54.9864C437.767 54.9864 446.176 76.885 446.176 101.947C446.176 127.009 435.566 148.716 404.659 148.716V148.726ZM402.279 70.9591C377.589 70.9591 377.41 70.9591 377.41 101.956C377.41 120.883 381.794 133.318 402.647 133.318C418.987 133.318 427.156 122.864 427.156 101.956C427.156 83.5767 422.763 70.9591 402.279 70.9591Z" fill="black"/>
<path d="M526.53 134.256C522.352 141.221 510.378 148.725 491.884 148.725C473.389 148.725 457.059 140.303 457.059 121.433C457.059 104.759 467.758 91.5673 494.057 91.5673H522.174C522.174 78.1956 514.744 73.2465 497.683 73.2465H479.545C470.351 73.2465 465.754 68.1774 465.754 58.0391H497.14C532.33 58.0391 540.49 72.6976 540.49 96.5075V147.808C531.183 147.808 526.53 143.29 526.53 134.256ZM522.174 106.226H496.962C476.462 106.226 476.293 106.226 476.293 121.244C476.293 129.496 483.18 134.256 496.24 134.256C513.529 134.256 522.174 125.89 522.174 109.159V106.226Z" fill="black"/>
<path d="M596.061 181.372H555C555 167.256 555 166.361 569.611 166.361H596.252C619.568 166.361 619.568 167.256 619.568 148.127V136.504C615.679 142.763 607.356 147.592 590.71 147.592C560.924 147.592 555.009 131.86 555.009 106.656V58.0391C572.764 58.0391 573.691 58.0391 573.691 73.4108V108.263C573.691 123.81 576.835 132.211 596.071 132.211C611.736 132.211 619.568 123.93 619.568 107.367V58.0391C632.144 58.0391 638.431 63.163 638.431 73.4108V146.863C638.431 163.666 631.962 181.355 596.071 181.355L596.061 181.372Z" fill="black"/>
<path d="M688.707 73.933H680.035V122.073C680.035 127.861 681.659 132.75 688.707 132.75C698.104 132.75 702.802 137.998 702.802 148.495C673.528 150.13 661.243 143.249 661.243 122.073V74.1108H649.314L649.5 63.0693C662.69 63.0693 661.252 62.7048 661.252 52.2055V36.2744H679.68V58.7131H703.725C703.725 68.8479 698.725 73.9152 688.725 73.9152L688.707 73.933Z" fill="black"/>
<path d="M279.323 159.617C290.831 163.129 302.014 166.096 313.261 168.33C318.875 169.438 324.48 170.367 330.085 171.046C335.69 171.734 341.287 172.217 346.883 172.324C358.066 172.646 369.213 171.833 380.278 169.652C380.965 169.518 381.671 169.411 382.358 169.25L384.419 168.776C385.793 168.446 387.194 168.169 388.568 167.811C391.299 167.034 394.11 166.39 396.832 165.452C402.41 163.853 407.798 161.645 413.529 159.617C409.362 163.924 404.697 167.856 399.517 171.064C396.976 172.771 394.255 174.156 391.534 175.586C390.169 176.31 388.74 176.855 387.33 177.489L385.205 178.41C384.5 178.722 383.759 178.937 383.036 179.205C371.428 183.476 358.879 185.335 346.503 184.951C344.957 184.87 343.411 184.844 341.865 184.71C340.328 184.576 338.782 184.459 337.245 184.298C334.19 183.87 331.125 183.485 328.124 182.842C322.094 181.636 316.181 179.973 310.467 177.838C304.754 175.702 299.23 173.155 293.977 170.153C291.356 168.642 288.788 167.052 286.338 165.291C283.879 163.558 281.492 161.69 279.314 159.608L279.323 159.617Z" fill="#4A9CD6"/>
<path d="M21.7647 18.1373C27.7749 18.1373 32.6471 14.0771 32.6471 9.06863C32.6471 4.06016 27.7749 0 21.7647 0C15.7546 0 10.8824 4.06016 10.8824 9.06863C10.8824 14.0771 15.7546 18.1373 21.7647 18.1373Z" fill="#4A9CD6"/>
</svg>
