<svg width="126" height="49" viewBox="0 0 126 49" fill="none" xmlns="http://www.w3.org/2000/svg">
<g clip-path="url(#clip0_533_2967)">
<path d="M2.23923 31.318L2.20715 19.3363H0L0.0305488 16.6985C1.54373 16.6985 2.30033 16.1084 2.30033 14.9282C4.45606 14.9282 5.53392 15.8289 5.53392 17.6301V33.9894C3.33644 33.9894 2.2377 33.0994 2.2377 31.3195L2.23923 31.318Z" fill="white"/>
<path d="M19.9024 31.318V25.4827C19.9024 22.7808 19.4044 21.1676 16.1708 21.1676C13.5172 21.1676 12.1903 22.606 12.1903 25.4827V33.9879C10.0753 33.9879 9.01782 33.098 9.01782 31.318V18.7463C10.6349 18.7463 11.4434 19.4604 11.4434 20.8886C11.9719 19.8335 13.5895 18.5298 17.0415 18.5298C22.0484 18.5298 23.0749 21.4482 23.0749 25.7618V33.9879C20.9599 33.9879 19.9024 33.098 19.9024 31.318Z" fill="white"/>
<path d="M36.8206 31.318V25.4827C36.8206 22.7808 36.3226 21.1676 33.089 21.1676C30.4354 21.1676 29.1085 22.606 29.1085 25.4827V33.9879C26.9935 33.9879 25.936 33.098 25.936 31.318V18.7463C27.5531 18.7463 28.3616 19.4604 28.3616 20.8886C28.8901 19.8335 30.5077 18.5298 33.9582 18.5298C38.9651 18.5298 39.9915 21.4482 39.9915 25.7618V33.9879C37.8766 33.9879 36.8191 33.098 36.8191 31.318H36.8206Z" fill="white"/>
<path d="M50.3794 34.2059C43.9413 34.2059 42.449 30.1378 42.449 24.458C42.449 18.7783 43.9734 14.6797 50.3794 14.6797C56.7855 14.6797 58.3405 18.7463 58.3405 24.4901C58.3405 30.2339 56.8161 34.2074 50.3794 34.2074V34.2059ZM50.3794 17.4106C47.2899 17.4106 45.7452 19.7597 45.7452 24.458C45.7452 28.7411 46.4616 31.5055 50.3794 31.5055C53.5097 31.5055 55.0748 29.167 55.0748 24.4901C55.0748 20.175 54.36 17.4121 50.3794 17.4121V17.4106Z" fill="#4A9CD6"/>
<path d="M68.8205 34.1434C62.6634 34.1434 61.0779 30.3879 61.0779 26.3213V12.9094C64.1878 12.9094 64.2183 12.9094 64.2183 15.5793V20.5455C64.8705 19.5208 66.3949 18.4657 69.4101 18.4657C74.4491 18.4657 75.8788 22.1282 75.8788 26.3198C75.8788 30.5114 74.0749 34.1419 68.8205 34.1419V34.1434ZM68.4157 21.1371C64.2183 21.1371 64.1878 21.1371 64.1878 26.3213C64.1878 29.4867 64.9331 31.5665 68.4783 31.5665C71.2562 31.5665 72.6452 29.8181 72.6452 26.3213C72.6452 23.2474 71.8983 21.1371 68.4157 21.1371Z" fill="white"/>
<path d="M89.7189 31.6917C89.0025 32.8718 86.9496 34.1435 83.7786 34.1435C80.6077 34.1435 77.8079 32.7163 77.8079 29.5189C77.8079 26.6935 79.6423 24.4582 84.1513 24.4582H88.9719C88.9719 22.1923 87.698 21.3537 84.773 21.3537H81.6631C80.0868 21.3537 79.2986 20.4948 79.2986 18.7769H84.6798C90.7132 18.7769 92.1123 21.2607 92.1123 25.2953V33.988C90.5167 33.988 89.7189 33.2225 89.7189 31.6917ZM88.9719 26.942H84.6493C81.1346 26.942 81.1056 26.942 81.1056 29.4868C81.1056 30.8851 82.2863 31.6917 84.5256 31.6917C87.4898 31.6917 88.9719 30.2741 88.9719 27.4391V26.942Z" fill="white"/>
<path d="M101.66 40.1039H94.7578C94.7578 37.6521 94.7578 37.4965 97.2139 37.4965H101.692C105.612 37.4965 105.612 37.6521 105.612 34.3296V32.3108C104.958 33.3979 103.559 34.2366 100.761 34.2366C95.7537 34.2366 94.7593 31.5042 94.7593 27.1266V18.6824C97.744 18.6824 97.8998 18.6824 97.8998 21.3522V27.4056C97.8998 30.106 98.4283 31.5652 101.662 31.5652C104.295 31.5652 105.612 30.1268 105.612 27.2501V18.6824C107.726 18.6824 108.783 19.5723 108.783 21.3522V34.11C108.783 37.0284 107.695 40.1008 101.662 40.1008L101.66 40.1039Z" fill="white"/>
<path d="M117.489 21.3232H115.997V29.5798C115.997 30.5724 116.276 31.4111 117.489 31.4111C119.106 31.4111 119.915 32.3112 119.915 34.1114C114.877 34.392 112.763 33.2118 112.763 29.5798V21.3537H110.71L110.743 19.4599C113.012 19.4599 112.765 19.3974 112.765 17.5966V14.8643H115.936V18.7128H120.074C120.074 20.451 119.213 21.3201 117.492 21.3201L117.489 21.3232Z" fill="white"/>
<path d="M47.876 35.929C49.8205 36.5282 51.7099 37.0345 53.6101 37.4157C54.5586 37.6047 55.5056 37.7633 56.4526 37.8792C57.3996 37.9966 58.3451 38.0789 59.2906 38.0972C61.1801 38.1521 63.0634 38.0134 64.933 37.6413C65.0491 37.6185 65.1682 37.6002 65.2843 37.5727L65.6325 37.4919C65.8647 37.4355 66.1015 37.3882 66.3336 37.3272C66.7949 37.1946 67.27 37.0848 67.7297 36.9247C68.6722 36.6518 69.5825 36.2751 70.5509 35.929C69.8468 36.664 69.0586 37.3349 68.1834 37.8822C67.7542 38.1735 67.2944 38.4098 66.8346 38.6538C66.604 38.7773 66.3627 38.8703 66.1244 38.9786L65.7654 39.1356C65.6463 39.189 65.521 39.2256 65.3988 39.2713C63.4376 40.0002 61.3175 40.3173 59.2265 40.2517C58.9653 40.238 58.7041 40.2334 58.4429 40.2106C58.1832 40.1877 57.922 40.1679 57.6624 40.1404C57.1461 40.0672 56.6283 40.0017 56.1212 39.8919C55.1024 39.6861 54.1034 39.4024 53.1381 39.038C52.1727 38.6736 51.2395 38.239 50.352 37.7267C49.9091 37.469 49.4753 37.1976 49.0613 36.8972C48.6459 36.6014 48.2426 36.2828 47.8745 35.9275L47.876 35.929Z" fill="#4A9CD6"/>
<path d="M3.74829 12.1898C4.70238 12.1898 5.47582 11.4177 5.47582 10.4652C5.47582 9.51281 4.70238 8.74072 3.74829 8.74072C2.7942 8.74072 2.02075 9.51281 2.02075 10.4652C2.02075 11.4177 2.7942 12.1898 3.74829 12.1898Z" fill="white"/>
</g>
<defs>
<clipPath id="clip0_533_2967">
<rect width="120.071" height="31.5185" fill="white" transform="translate(0 8.74072)"/>
</clipPath>
</defs>
</svg>
