<svg width="50" height="50" viewBox="0 0 50 50" fill="none" xmlns="http://www.w3.org/2000/svg">
<rect width="50" height="50" rx="12" fill="#7C5CFC"/>
<path d="M28.22 19.55H18.78C18.5 19.55 18.24 19.56 18 19.57C15.63 19.71 15 20.58 15 23.28V23.86C15 24.41 15.45 24.86 16 24.86H31C31.55 24.86 32 24.41 32 23.86V23.28C32 20.3 31.24 19.55 28.22 19.55Z" fill="white"/>
<path d="M16 26.3601C15.45 26.3601 15 26.8101 15 27.3601V30.2701C15 33.2501 15.76 34.0001 18.78 34.0001H28.22C31.19 34.0001 31.97 33.2801 32 30.4301V27.3601C32 26.8101 31.55 26.3601 31 26.3601H16ZM19.96 31.5601H18.25C17.84 31.5601 17.5 31.2201 17.5 30.8101C17.5 30.4001 17.84 30.0601 18.25 30.0601H19.97C20.38 30.0601 20.72 30.4001 20.72 30.8101C20.72 31.2201 20.38 31.5601 19.96 31.5601ZM25.55 31.5601H22.11C21.7 31.5601 21.36 31.2201 21.36 30.8101C21.36 30.4001 21.7 30.0601 22.11 30.0601H25.55C25.96 30.0601 26.3 30.4001 26.3 30.8101C26.3 31.2201 25.97 31.5601 25.55 31.5601Z" fill="white"/>
<path d="M35.0016 26.3301V21.0901C35.0016 17.9601 33.2116 16.6001 30.5116 16.6001H21.5816C20.8216 16.6001 20.1416 16.7101 19.5416 16.9401C19.0716 17.1101 18.6516 17.3601 18.3116 17.6901C18.1316 17.8601 18.2716 18.1401 18.5316 18.1401H29.4016C31.6516 18.1401 33.4716 19.9601 33.4716 22.2101V29.3801C33.4716 29.6301 33.7416 29.7701 33.9216 29.5901C34.6116 28.8601 35.0016 27.7901 35.0016 26.3301Z" fill="white"/>
</svg>
