<svg width="96" height="84" viewBox="0 0 96 84" fill="none" xmlns="http://www.w3.org/2000/svg">
<g clip-path="url(#clip0_42_1051)">
<path d="M7.66501 71.8105C5.20352 71.8105 3.54726 73.7428 3.54726 76.2274C3.54726 78.712 5.20352 80.6443 7.66501 80.6443C10.1265 80.6443 11.7828 78.712 11.7828 76.2274C11.7828 73.7428 10.1265 71.8105 7.66501 71.8105ZM7.1128 69.0732C9.0913 69.0732 10.7476 70.0854 11.5297 71.1894V69.3493H14.5661V83.1285H12.2427C12.0599 83.1279 11.8848 83.055 11.7555 82.9258C11.6263 82.7965 11.5534 82.6214 11.5528 82.4386V81.2884C10.7706 82.3925 9.13744 83.4046 7.13587 83.4046C3.36344 83.4046 0.487793 80.184 0.487793 76.2505C0.487793 72.3165 3.34037 69.0732 7.1128 69.0732ZM18.0167 69.3493H21.0531V71.2125C21.8814 69.832 23.4457 69.0729 25.24 69.0729C28.4376 69.0729 30.508 71.3278 30.508 74.8242V83.1285H28.1845C28.0017 83.1279 27.8266 83.055 27.6974 82.9258C27.5681 82.7965 27.4952 82.6214 27.4946 82.4386V75.3302C27.4946 73.1448 26.3902 71.8335 24.619 71.8335C22.6178 71.8335 21.0535 73.3979 21.0535 76.3424V83.1285H18.73C18.5472 83.128 18.3719 83.0552 18.2426 82.9259C18.1133 82.7967 18.0403 82.6215 18.0398 82.4386V69.3493H18.0167ZM40.0778 71.8105C37.6164 71.8105 35.9601 73.7428 35.9601 76.2274C35.9601 78.712 37.616 80.6443 40.0778 80.6443C42.539 80.6443 44.1956 78.712 44.1956 76.2274C44.1956 73.7428 42.539 71.8105 40.0778 71.8105ZM39.5256 69.0732C41.5041 69.0732 43.1604 70.0854 43.9426 71.1894V62.4479H46.979V83.1285H44.6555C44.4727 83.128 44.2974 83.0552 44.1681 82.9259C44.0388 82.7967 43.9658 82.6215 43.9653 82.4386V81.2884C43.1831 82.3925 41.5503 83.4046 39.5483 83.4046C35.7759 83.4046 32.9006 80.184 32.9006 76.2505C32.9006 72.3165 35.7528 69.0732 39.5256 69.0732ZM50.4295 69.3493H53.4659V71.8105C53.9951 70.2465 55.5363 69.2113 57.1007 69.2113C57.4918 69.2113 57.8828 69.234 58.2739 69.3263V72.4319C57.7448 72.2708 57.3076 72.1789 56.7557 72.1789C55.0303 72.1789 53.4432 73.6509 53.4432 76.3885V83.1054H51.1198C50.9369 83.1049 50.7617 83.0321 50.6324 82.9029C50.503 82.7736 50.4301 82.5984 50.4295 82.4155V69.3493ZM66.4402 80.5751C68.8556 80.5751 70.581 78.6658 70.581 76.2274C70.581 73.7659 68.8786 71.8797 66.4402 71.8797C63.9787 71.8797 62.2763 73.7886 62.2763 76.2274C62.2998 78.6889 64.0018 80.5751 66.4402 80.5751ZM66.4402 83.4046C62.3686 83.4046 59.2172 80.2302 59.2172 76.2505C59.2172 72.2477 62.3686 69.0732 66.4402 69.0732C70.5122 69.0732 73.6636 72.2473 73.6636 76.2505C73.6636 80.2302 70.5349 83.4046 66.4402 83.4046ZM76.1251 69.3493H79.1615V83.1285H76.838C76.6552 83.1279 76.4801 83.055 76.3508 82.9258C76.2216 82.7965 76.1487 82.6214 76.1481 82.4386V69.3493H76.1251ZM77.6433 66.3356C76.5392 66.3356 75.5959 65.4154 75.5959 64.2883C75.5959 63.1843 76.5392 62.2871 77.6433 62.2871C78.7707 62.2871 79.6445 63.207 79.6445 64.2883C79.6445 65.4158 78.7704 66.3356 77.6433 66.3356ZM88.8463 71.8105C86.3848 71.8105 84.7286 73.7428 84.7286 76.2274C84.7286 78.712 86.3844 80.6443 88.8463 80.6443C91.3078 80.6443 92.9641 78.712 92.9641 76.2274C92.941 73.7428 91.3078 71.8105 88.8463 71.8105ZM88.2941 69.0732C90.2726 69.0732 91.9289 70.0854 92.711 71.1894V62.4479H95.7474V83.1285H93.424C93.2411 83.128 93.0659 83.0552 92.9366 82.9259C92.8072 82.7967 92.7343 82.6215 92.7337 82.4386V81.2884C91.9519 82.3925 90.3187 83.4046 88.3168 83.4046C84.5444 83.4046 81.6691 80.184 81.6691 76.2505C81.6691 72.3165 84.5213 69.0732 88.2941 69.0732Z" fill="#1D1919"/>
<path d="M71.4551 16.2099L79.3914 2.47648C79.8517 1.69468 79.5756 0.682174 78.7935 0.222248C78.0113 -0.237677 76.9992 0.0380548 76.5392 0.820226L68.5106 14.7147C62.3686 11.9083 55.4675 10.344 48.1292 10.344C40.7677 10.344 33.8897 11.9083 27.7477 14.7147L19.7191 0.820226C19.2592 0.0380548 18.247 -0.237677 17.4648 0.222248C16.6827 0.682174 16.4066 1.69468 16.8665 2.47648L24.8032 16.2099C11.1386 23.6174 1.84487 37.3966 0.487793 53.6607H95.7244C94.3673 37.3966 85.0504 23.6174 71.4555 16.2099H71.4551ZM26.1833 40.088C23.9979 40.088 22.2267 38.3168 22.2267 36.1314C22.2267 33.946 23.9979 32.1748 26.1833 32.1748C28.3687 32.1748 30.14 33.946 30.14 36.1314C30.14 38.3168 28.3687 40.088 26.1833 40.088ZM70.0288 40.088C67.8434 40.088 66.0722 38.3168 66.0722 36.1314C66.0722 33.946 67.8434 32.1748 70.0288 32.1748C72.2142 32.1748 73.9858 33.946 73.9858 36.1314C73.9858 38.3168 72.2146 40.088 70.0288 40.088Z" fill="#3DDC84"/>
</g>
<defs>
<clipPath id="clip0_42_1051">
<rect width="95.2625" height="83.7243" fill="white" transform="translate(0.486328 -0.000976562)"/>
</clipPath>
</defs>
</svg>
