<svg width="105" height="104" viewBox="0 0 105 104" fill="none" xmlns="http://www.w3.org/2000/svg">
<path d="M76.2011 54.728C76.2398 51.4251 77.1161 48.1861 78.7479 45.3143C80.3797 42.4424 82.7136 40.0316 85.5312 38.3076C83.7404 35.7577 81.383 33.6575 78.644 32.172C75.9051 30.6864 72.859 29.8559 69.7451 29.7457C63.0216 29.0638 56.626 33.703 53.2211 33.703C49.8119 33.703 44.5513 29.8449 38.98 29.9485C35.3194 30.0496 31.7479 31.1004 28.6159 32.9978C25.4838 34.8952 22.8986 37.5741 21.1139 40.7717C13.51 53.9771 19.1762 73.5392 26.5859 84.2546C30.2109 89.4936 34.5394 95.3928 40.2142 95.1814C45.6863 94.9656 47.7491 91.6427 54.3561 91.6427C60.9631 91.6427 62.8231 95.1814 68.5972 95.0735C74.4835 94.9656 78.2164 89.7266 81.8112 84.4703C84.3876 80.6889 86.401 76.5532 87.7881 72.1928C84.3626 70.7308 81.44 68.298 79.3809 65.1945C77.3219 62.0909 76.2165 58.4525 76.2011 54.728ZM65.339 22.6553C68.5958 18.835 70.2092 13.8815 69.8271 8.87598C64.9109 9.35435 60.3638 11.695 57.118 15.4183C55.4982 17.222 54.258 19.3334 53.4714 21.6266C52.6848 23.9197 52.3677 26.3478 52.5393 28.7661C54.9988 28.7992 57.4329 28.2652 59.6527 27.2054C61.8725 26.1457 63.8183 24.5887 65.339 22.6553Z" fill="#303030"/>
</svg>
