<svg width="103" height="66" viewBox="0 0 103 66" fill="none" xmlns="http://www.w3.org/2000/svg">
<g clip-path="url(#clip0_42_1038)">
<path d="M62.0652 43.8906L82.9495 23.9184C78.6115 7.00286 61.3822 -3.19271 44.4667 1.14566C36.8495 3.09918 30.2336 7.82101 25.9102 14.3896C26.2331 14.3817 62.0652 43.8906 62.0652 43.8906Z" fill="#0364B8"/>
<path d="M39.5208 18.1497L39.52 18.1532C35.5294 15.6816 30.9271 14.3752 26.233 14.3816C26.1247 14.3816 26.018 14.3883 25.9097 14.3895C11.9477 14.5626 0.769204 26.0217 0.941916 39.9842C1.00464 45.0487 2.5871 49.9777 5.48421 54.1323L36.772 50.2137L60.7597 30.8715L39.5208 18.1497Z" fill="#0078D4"/>
<path d="M82.9496 23.9185C82.4879 23.8858 82.0253 23.8685 81.5624 23.8667C78.7608 23.864 75.9884 24.4362 73.4169 25.548L73.4161 25.546L60.7603 30.8716L74.7124 48.1061L99.6549 54.1692C105.038 44.1768 101.301 31.7127 91.3078 26.3297C88.7257 24.9389 85.8758 24.1165 82.9496 23.9185Z" fill="#1490DF"/>
<path d="M5.48438 54.1323C7.81188 57.4787 10.9147 60.2121 14.5279 62.099C18.1411 63.986 22.1573 64.9704 26.2336 64.9682H81.5624C85.2721 64.9692 88.9129 63.9659 92.0983 62.0646C95.2837 60.1633 97.895 57.4351 99.6549 54.1695L60.7599 30.8711L5.48438 54.1323Z" fill="#28A8EA"/>
</g>
<defs>
<clipPath id="clip0_42_1038">
<rect width="101.18" height="65.2118" fill="white" transform="translate(0.938477 0.146484)"/>
</clipPath>
</defs>
</svg>
