<svg width="90" height="90" viewBox="0 0 90 90" fill="none" xmlns="http://www.w3.org/2000/svg">
<g clip-path="url(#clip0_42_1058)">
<path d="M32.1525 90.2937C40.4143 90.2937 47.0794 83.6287 47.0794 75.3668V60.4399H32.1525C23.8906 60.4399 17.2256 67.105 17.2256 75.3668C17.2256 83.6287 23.8906 90.2937 32.1525 90.2937Z" fill="#0ACF83"/>
<path d="M17.2256 45.5133C17.2256 37.2515 23.8906 30.5864 32.1525 30.5864H47.0794V60.4402H32.1525C23.8906 60.4402 17.2256 53.7752 17.2256 45.5133Z" fill="#A259FF"/>
<path d="M17.2256 15.6593C17.2256 7.39745 23.8906 0.732422 32.1525 0.732422H47.0794V30.5862H32.1525C23.8906 30.5862 17.2256 23.9212 17.2256 15.6593Z" fill="#F24E1E"/>
<path d="M47.0791 0.732422H62.006C70.2678 0.732422 76.9329 7.39745 76.9329 15.6593C76.9329 23.9212 70.2678 30.5862 62.006 30.5862H47.0791V0.732422Z" fill="#FF7262"/>
<path d="M76.9329 45.5133C76.9329 53.7752 70.2678 60.4402 62.006 60.4402C53.7441 60.4402 47.0791 53.7752 47.0791 45.5133C47.0791 37.2515 53.7441 30.5864 62.006 30.5864C70.2678 30.5864 76.9329 37.2515 76.9329 45.5133Z" fill="#1ABCFE"/>
</g>
<defs>
<clipPath id="clip0_42_1058">
<rect width="88.867" height="88.867" fill="white" transform="translate(0.562988 0.732422)"/>
</clipPath>
</defs>
</svg>
