<svg width="97" height="97" viewBox="0 0 97 97" fill="none" xmlns="http://www.w3.org/2000/svg">
<path d="M39.8466 51.3926C39.8466 51.3926 37.3579 52.8408 41.6206 53.3303C46.7844 53.9199 49.4238 53.835 55.1135 52.7597C55.1135 52.7597 56.6132 53.6971 58.7017 54.5095C45.9432 59.9756 29.826 54.1927 39.8466 51.3926ZM38.2862 44.2578C38.2862 44.2578 35.4945 46.3259 39.7602 46.7669C45.2771 47.336 49.6322 47.383 57.174 45.9311C57.174 45.9311 58.2144 46.989 59.8536 47.5657C44.4306 52.0777 27.2517 47.9211 38.2862 44.2578Z" fill="#0074BD"/>
<path d="M51.4289 32.1546C54.5746 35.7755 50.6044 39.031 50.6044 39.031C50.6044 39.031 58.5865 34.9108 54.9209 29.7493C51.4964 24.938 48.8721 22.5486 63.0833 14.3066C63.0833 14.3066 40.7748 19.8766 51.4289 32.1546Z" fill="#EA2D2E"/>
<path d="M68.3033 56.67C68.3033 56.67 70.1463 58.1894 66.2739 59.3641C58.911 61.5943 35.6249 62.2672 29.157 59.4527C26.8335 58.441 31.1932 57.0376 32.5641 56.7428C33.9941 56.4328 34.811 56.4897 34.811 56.4897C32.2253 54.6686 18.0974 60.0658 27.6353 61.614C53.6464 65.8297 75.0493 59.7149 68.3033 56.67ZM41.0448 36.8654C41.0448 36.8654 29.2009 39.6791 36.851 40.7022C40.0823 41.1341 46.5192 41.0348 52.5196 40.5317C57.4219 40.1202 62.3416 39.2403 62.3416 39.2403C62.3416 39.2403 60.6145 39.9815 59.3634 40.8348C47.3339 43.9986 24.1001 42.5247 30.7893 39.2904C36.4448 36.5539 41.0448 36.8654 41.0448 36.8654ZM62.2923 48.7403C74.5196 42.3883 68.8656 36.2834 64.9196 37.1056C63.955 37.3072 63.5215 37.4815 63.5215 37.4815C63.5215 37.4815 63.8814 36.9176 64.5658 36.6759C72.3727 33.9326 78.3754 44.7701 62.0483 49.0623C62.0483 49.0623 62.2355 48.8926 62.2923 48.7403Z" fill="#0074BD"/>
<path d="M54.9219 0.995117C54.9219 0.995117 61.693 7.7692 48.4987 18.1838C37.9181 26.5402 46.0858 31.3038 48.4942 36.7487C42.318 31.1758 37.7878 26.2697 40.8266 21.7046C45.2894 15.004 57.6531 11.7538 54.9219 0.995117Z" fill="#EA2D2E"/>
<path d="M42.2472 65.9593C53.9811 66.7095 72.0057 65.5417 72.4324 59.9893C72.4324 59.9893 71.6124 62.0937 62.7331 63.7639C52.7164 65.6494 40.3602 65.4304 33.0337 64.2209C33.0337 64.2209 34.5342 65.4637 42.2472 65.9593Z" fill="#0074BD"/>
<path d="M71.8904 75.9185H71.5328V75.7184H72.4952V75.9185H72.139V76.9165H71.8897L71.8904 75.9185ZM73.8115 75.9685H73.807L73.4523 76.9165H73.2886L72.9362 75.9685H72.9324V76.9165H72.696V75.7184H73.0423L73.3689 76.5664L73.6963 75.7184H74.0404V76.9165H73.8115V75.9685ZM40.3238 87.1766C39.2174 88.136 38.0473 88.6755 36.9962 88.6755C35.5003 88.6755 34.6887 87.7767 34.6887 86.3377C34.6887 84.7804 35.5571 83.6398 39.037 83.6398H40.323L40.3238 87.1766ZM43.3785 90.6231V79.9554C43.3785 77.228 41.8227 75.429 38.0761 75.429C35.8891 75.429 33.9718 75.97 32.413 76.6581L32.8616 78.5473C34.0892 78.0965 35.6769 77.6781 37.2349 77.6781C39.3947 77.6781 40.323 78.5473 40.323 80.3464V81.6945H39.2439C33.9991 81.6945 31.6324 83.7293 31.6324 86.7893C31.6324 89.4257 33.192 90.9239 36.1285 90.9239C38.0155 90.9239 39.4258 90.1449 40.7421 89.0044L40.9816 90.6238L43.3785 90.6231ZM53.5726 90.6231H49.7631L45.1776 75.7025H48.5051L51.3515 84.8713L51.9842 87.6259C53.421 83.6414 54.4395 79.5962 54.9488 75.7033H58.1854C57.3192 80.6147 55.7581 86.008 53.5726 90.6231ZM68.1893 87.1766C67.0791 88.136 65.9083 88.6755 64.861 88.6755C63.3635 88.6755 62.5527 87.7767 62.5527 86.3377C62.5527 84.7804 63.4234 83.6398 66.8995 83.6398H68.1885L68.1893 87.1766ZM71.2456 90.6231V79.9554C71.2456 77.228 69.6852 75.429 65.9416 75.429C63.7523 75.429 61.8358 75.97 60.277 76.6581L60.7264 78.5473C61.954 78.0965 63.5439 77.6781 65.102 77.6781C67.2587 77.6781 68.1893 78.5473 68.1893 80.3464V81.6945H67.1102C61.8638 81.6945 59.4979 83.7293 59.4979 86.7893C59.4979 89.4257 61.056 90.9239 63.9918 90.9239C65.8795 90.9239 67.2875 90.1449 68.6076 89.0044L68.8486 90.6238L71.2456 90.6231ZM28.2829 93.1587C27.4137 94.4311 26.0057 95.4382 24.4658 96.0058L22.9585 94.2288C24.1308 93.6271 25.1349 92.6563 25.6025 91.7515C26.0057 90.9459 26.1731 89.91 26.1731 87.4312V70.394H29.4196V87.197C29.4196 90.5125 29.1559 91.853 28.2829 93.1587Z" fill="#EA2D2E"/>
</svg>
