<svg width="147" height="32" viewBox="0 0 147 32" fill="none" xmlns="http://www.w3.org/2000/svg">
<g clip-path="url(#clip0_276_1496)">
<path d="M30.0282 31.2402H0.00195312V1.22559H30.0282L15.0151 16.227L30.0282 31.2402Z" fill="url(#paint0_linear_276_1496)"/>
<path d="M76.9006 8.75314C78.9731 8.75314 80.9497 9.318 82.644 10.2611C84.3383 11.1983 85.6597 12.61 86.5908 14.3103C87.5343 16.1006 88.0988 18.0771 88.0988 20.24C88.0988 22.4029 87.6303 24.3791 86.6871 26.1694C85.744 27.8637 84.4283 29.2754 82.734 30.2186C81.0397 31.258 79.0634 31.7266 76.9006 31.7266C74.7377 31.7266 72.7614 31.1617 71.0671 30.2186C69.2768 29.2754 67.9614 27.8637 67.018 26.1694C66.0748 24.4751 65.6063 22.4026 65.6063 20.24C65.6063 18.0771 66.0748 16.1006 67.0177 14.3103C67.9611 12.616 69.3728 11.3006 71.0671 10.2611C72.7614 9.22171 74.7377 8.75314 76.9006 8.75314ZM66.3631 1.12943L52.7137 15.716L66.5494 31.24H60.4334L47.3488 16.7434V31.24H42.5488V1.22571H47.3488V15.0611L60.3374 1.12971L66.3631 1.12943ZM76.8165 13.0666C75.5008 13.0666 74.3714 13.3491 73.428 14.01C72.4851 14.5746 71.734 15.4217 71.1691 16.5511C70.6045 17.5906 70.3223 18.9063 70.3223 20.318C70.3223 21.7297 70.5083 22.9551 71.0731 24.0849C71.638 25.118 72.3888 25.9651 73.332 26.626C74.3654 27.2869 75.5005 27.5691 76.7205 27.5691C77.94 27.5691 79.0691 27.2869 80.0126 26.6263C80.9557 26.0614 81.7068 25.2143 82.2714 24.0849C82.8363 22.9554 83.1185 21.7297 83.1185 20.318C83.1185 18.9063 82.9323 17.6809 82.3677 16.5511C81.8028 15.5177 81.052 14.6709 80.1085 14.01C79.1714 13.3491 78.042 13.0666 76.8165 13.0666ZM97.8014 3.76657H93.1874V7.53371C93.1874 8.09829 93.0914 8.56686 92.7188 8.84943C92.4365 9.13171 91.968 9.318 91.4031 9.318H89.1443V13.2709H93.0974V25.13C93.0974 26.3557 93.3797 27.4851 93.8483 28.4223C94.3141 29.3598 95.0736 30.1193 96.0111 30.5851C96.954 31.1497 97.9874 31.336 99.3031 31.336H102.878V27.1971H100.241C99.5797 27.1971 99.0148 27.0109 98.5463 26.446C98.1192 25.9123 97.8862 25.2493 97.8854 24.5657V13.2714H102.968V9.31771H97.8851V3.76629H97.8011L97.8014 3.76657ZM106.555 0H111.259V31.24H106.555V0ZM116.623 0.096H121.423V4.99229H116.623V0.096H116.623ZM116.623 9.318H121.327V31.33H116.623V9.318H116.623ZM145.334 12.8923C144.673 11.5769 143.736 10.5374 142.511 9.88257C141.285 9.13171 139.873 8.75314 138.275 8.75314C136.581 8.75314 135.073 9.22171 133.757 9.97886C132.724 10.6397 131.877 11.5769 131.216 12.616V9.22771H126.698V31.24H131.402V18.9063C131.402 17.6806 131.589 16.6471 132.063 15.704C132.532 14.7609 133.193 14.106 133.943 13.5411C134.791 13.0726 135.734 12.7903 136.863 12.7903C137.897 12.7903 138.653 12.9766 139.405 13.4511C140.155 13.9257 140.63 14.4846 141.003 15.2414C141.381 15.9926 141.567 16.9357 141.567 17.9689V31.1437H146.271V17.4043C146.373 15.716 146.001 14.214 145.334 12.8923Z" fill="black"/>
</g>
<defs>
<linearGradient id="paint0_linear_276_1496" x1="3002.36" y1="2.09587" x2="1.47321" y2="3002.95" gradientUnits="userSpaceOnUse">
<stop offset="0.00344" stop-color="#E44857"/>
<stop offset="0.4689" stop-color="#C711E1"/>
<stop offset="1" stop-color="#7F52FF"/>
</linearGradient>
<clipPath id="clip0_276_1496">
<rect width="146.29" height="32" fill="white"/>
</clipPath>
</defs>
</svg>
