<svg width="147" height="33" viewBox="0 0 147 33" fill="none" xmlns="http://www.w3.org/2000/svg">
<g clip-path="url(#clip0_42_1071)">
<path d="M146.713 14.9404V12.3768H143.529V8.39162L143.422 8.42436L140.432 9.33936L140.373 9.3573V12.3768H135.654V10.6948C135.654 9.9116 135.829 9.31203 136.174 8.91261C136.517 8.51745 137.007 8.31675 137.633 8.31675C138.082 8.31675 138.548 8.42265 139.016 8.63133L139.134 8.68372V5.98425L139.078 5.96432C138.641 5.80689 138.047 5.72803 137.31 5.72803C136.382 5.72803 135.538 5.92987 134.802 6.33044C134.077 6.72043 133.479 7.31109 133.081 8.03177C132.677 8.75887 132.472 9.59844 132.472 10.5277V12.377H130.255V14.9407H132.472V25.74H135.654V14.9404H140.373V21.8032C140.373 24.6297 141.706 26.0623 144.336 26.0623C144.79 26.0596 145.243 26.0092 145.687 25.9119C146.159 25.8103 146.481 25.7087 146.671 25.6002L146.713 25.5754V22.9881L146.583 23.0738C146.411 23.1891 146.196 23.2831 145.943 23.3528C145.69 23.424 145.478 23.4599 145.315 23.4599C144.699 23.4599 144.243 23.2939 143.96 22.9662C143.674 22.636 143.529 22.0578 143.529 21.2492V14.9404H146.713ZM123.149 23.4602C121.994 23.4602 121.084 23.077 120.442 22.3228C119.796 21.5644 119.469 20.4837 119.469 19.11C119.469 17.6931 119.796 16.5842 120.442 15.8124C121.084 15.046 121.986 14.6569 123.123 14.6569C124.226 14.6569 125.105 15.0284 125.734 15.762C126.366 16.4991 126.687 17.5992 126.687 19.0326C126.687 20.4837 126.385 21.5986 125.79 22.3442C125.199 23.0844 124.311 23.4602 123.149 23.4602ZM123.291 12.0548C121.087 12.0548 119.337 12.7005 118.09 13.9739C116.842 15.2476 116.21 17.0099 116.21 19.2128C116.21 21.305 116.827 22.9879 118.045 24.214C119.262 25.4405 120.919 26.0617 122.968 26.0617C125.104 26.0617 126.82 25.4072 128.067 24.1161C129.314 22.8264 129.946 21.0807 129.946 18.929C129.946 16.8043 129.353 15.109 128.183 13.891C127.013 12.6726 125.366 12.0548 123.291 12.0548ZM111.079 12.0548C109.58 12.0548 108.34 12.4383 107.393 13.1941C106.441 13.9545 105.957 14.9521 105.957 16.1589C105.957 16.7861 106.062 17.3432 106.267 17.8158C106.473 18.2901 106.793 18.7075 107.218 19.0579C107.639 19.4056 108.29 19.7697 109.152 20.1398C109.877 20.4381 110.417 20.6907 110.761 20.8894C111.096 21.0844 111.335 21.2803 111.469 21.471C111.6 21.6575 111.666 21.9131 111.666 22.2283C111.666 23.1262 110.994 23.5629 109.611 23.5629C109.097 23.5629 108.512 23.4559 107.871 23.2446C107.234 23.0365 106.633 22.7319 106.089 22.3413L105.957 22.2468V25.3101L106.006 25.3329C106.456 25.5407 107.024 25.7158 107.693 25.8539C108.361 25.9917 108.967 26.062 109.494 26.062C111.121 26.062 112.431 25.6768 113.386 24.9164C114.348 24.1505 114.836 23.1299 114.836 21.881C114.836 20.9805 114.573 20.2078 114.056 19.5849C113.542 18.9671 112.651 18.3997 111.407 17.8984C110.416 17.5007 109.782 17.1707 109.52 16.9173C109.267 16.6725 109.139 16.3263 109.139 15.8882C109.139 15.4993 109.298 15.1881 109.622 14.9359C109.95 14.6825 110.405 14.5535 110.976 14.5535C111.507 14.5535 112.049 14.6372 112.589 14.8012C113.128 14.9655 113.601 15.1855 113.996 15.4543L114.126 15.5431V12.637L114.076 12.6156C113.712 12.459 113.231 12.3252 112.647 12.217C112.065 12.1094 111.538 12.0548 111.079 12.0548ZM97.6616 23.4602C96.5069 23.4602 95.5962 23.077 94.9545 22.3228C94.3088 21.5644 93.9823 20.4837 93.9823 19.11C93.9823 17.6931 94.3091 16.5842 94.9553 15.8124C95.5968 15.046 96.4984 14.6569 97.636 14.6569C98.7392 14.6569 99.6175 15.0284 100.247 15.762C100.879 16.4991 101.2 17.5992 101.2 19.0326C101.2 20.4837 100.898 21.5986 100.303 22.3442C99.712 23.0844 98.8238 23.4602 97.6616 23.4602ZM97.8037 12.0548C95.5996 12.0548 93.8493 12.7005 92.6023 13.9739C91.3554 15.2476 90.7225 17.0099 90.7225 19.2128C90.7225 21.3059 91.3403 22.9879 92.5574 24.214C93.7747 25.4405 95.4313 26.0617 97.4814 26.0617C99.6166 26.0617 101.333 25.4072 102.58 24.1161C103.827 22.8264 104.459 21.0807 104.459 18.929C104.459 16.8043 103.866 15.109 102.696 13.891C101.525 12.6726 99.8788 12.0548 97.8037 12.0548ZM85.8921 14.691V12.3768H82.7488V25.7394H85.8918V18.9036C85.8918 17.7412 86.1555 16.7864 86.6756 16.0652C87.1889 15.3527 87.8733 14.9914 88.7083 14.9914C88.9916 14.9914 89.3093 15.0381 89.6535 15.1306C89.9943 15.2223 90.2411 15.3219 90.3866 15.4267L90.5187 15.5226V12.354L90.4674 12.3321C90.1751 12.2077 89.7608 12.145 89.237 12.145C88.447 12.145 87.7401 12.3987 87.1348 12.8983C86.6033 13.3376 86.2189 13.94 85.9254 14.691H85.8921ZM77.1199 12.0548C75.6779 12.0548 74.3914 12.3642 73.2973 12.9738C72.2012 13.5844 71.3531 14.457 70.7763 15.5659C70.2021 16.6725 69.9106 17.965 69.9106 19.4064C69.9106 20.6687 70.1933 21.8274 70.7518 22.8484C71.311 23.8713 72.1024 24.6715 73.104 25.2267C74.1044 25.781 75.2605 26.062 76.5402 26.062C78.034 26.062 79.3094 25.7633 80.3323 25.1746L80.3733 25.1507V22.271L80.2415 22.3675C79.771 22.7085 79.2528 22.9782 78.7036 23.1681C78.1479 23.3619 77.6417 23.4599 77.1976 23.4599C75.964 23.4599 74.9741 23.0741 74.2553 22.3134C73.535 21.5513 73.1697 20.4817 73.1697 19.1354C73.1697 17.7808 73.5507 16.6836 74.3011 15.8736C75.0496 15.0665 76.0414 14.6572 77.2494 14.6572C78.2825 14.6572 79.2892 15.007 80.2415 15.698L80.3733 15.7936V12.7594L80.3309 12.7355C79.9722 12.5348 79.4837 12.3691 78.8767 12.2435C78.2726 12.1183 77.6816 12.0548 77.1199 12.0548ZM67.7458 12.3768H64.6022V25.7394H67.7458V12.3768ZM66.2061 6.68431C65.6888 6.68431 65.2376 6.86054 64.8669 7.20929C64.4946 7.55946 64.3055 8.00017 64.3055 8.52002C64.3055 9.03189 64.4923 9.46434 64.8607 9.80512C65.2271 10.1448 65.6797 10.317 66.2061 10.317C66.7323 10.317 67.1866 10.1448 67.5573 9.80569C67.9302 9.46434 68.1196 9.03189 68.1196 8.52002C68.1196 8.01839 67.9354 7.58195 67.5727 7.22352C67.2103 6.86566 66.7502 6.68431 66.2061 6.68431ZM58.3634 11.3911V25.7391H61.5713V7.09342H57.1315L51.4881 20.9429L46.0117 7.09342H41.3911V25.7394H44.4057V11.3897H44.5094L50.2923 25.7394H52.567L58.2598 11.3909L58.3634 11.3911Z" fill="#232323"/>
<path d="M15.7364 15.6495H0.949707V0.862793H15.7364V15.6495Z" fill="#F1511B"/>
<path d="M32.0626 15.6495H17.2759V0.862793H32.0626V15.6495Z" fill="#80CC28"/>
<path d="M15.7361 31.982H0.949707V17.1953H15.7361V31.982Z" fill="#00ADEF"/>
<path d="M32.0626 31.982H17.2759V17.1953H32.0626V31.982Z" fill="#FBBC09"/>
</g>
<defs>
<clipPath id="clip0_42_1071">
<rect width="145.768" height="31.3163" fill="white" transform="translate(0.947266 0.862793)"/>
</clipPath>
</defs>
</svg>
