<svg width="92" height="92" viewBox="0 0 92 92" fill="none" xmlns="http://www.w3.org/2000/svg">
<path fill-rule="evenodd" clip-rule="evenodd" d="M37.0107 17.0576C39.6746 17.0576 42.3386 17.0988 44.999 17.0293C45.7047 17.0108 46.9708 17.5945 46.914 16.1278C46.8708 14.9341 45.7636 15.3661 45.0927 15.3554C42.0875 15.3079 39.0725 15.1937 36.0794 15.3817C33.9495 15.5143 33.3218 14.7057 33.5892 12.7524C33.6814 12.0786 33.5927 11.3807 33.6069 10.6942C33.7006 6.12229 34.8056 4.56618 39.2399 3.43846C44.1252 2.19726 49.1248 2.2384 53.9967 3.30796C58.3763 4.26971 60.1956 7.67699 59.9743 10.8289C59.7048 14.6752 59.9133 18.5549 59.9098 22.4203C59.9034 27.2809 57.3919 29.8604 52.4916 29.9278C48.456 29.9832 44.4153 30.0271 40.3818 29.9151C35.5744 29.7803 32.048 33.7734 32.0239 38.2985C32.0239 38.6418 32.0827 38.9964 32.0146 39.3276C31.6685 40.9894 33.0516 43.6754 31.2898 44.169C28.6088 44.9223 25.4696 44.9223 23.1049 42.5299C22.3035 41.7214 21.6283 40.8157 21.2722 39.7688C19.3721 34.1905 19.0721 28.5412 20.8609 22.8757C21.9758 19.3393 25.0086 17.1399 28.7655 17.0768C31.5132 17.0307 34.2616 17.0676 37.0092 17.0676L37.0107 17.0576ZM41.906 9.17068C41.7911 7.82097 41.0655 6.83581 39.5682 6.79467C37.9306 6.75211 37.0844 7.74224 37.0823 9.35367C37.0809 10.8474 37.8944 11.8042 39.381 11.8474C41.0144 11.8949 41.8052 10.8828 41.906 9.17068Z" fill="#386F9F"/>
<path fill-rule="evenodd" clip-rule="evenodd" d="M57.572 44.4028C54.5648 44.4028 51.5561 44.3766 48.5488 44.4241C47.8715 44.4326 46.7353 44.0042 46.6998 45.1625C46.6601 46.476 47.8793 46.1341 48.6538 46.1419C51.6611 46.1795 54.6712 46.2115 57.6777 46.1278C59.2225 46.0852 59.853 46.381 59.9686 48.2023C60.4913 56.4475 56.9131 57.1603 50.3135 58.6604C46.5275 59.5207 42.4684 59.0646 38.7348 57.3922C35.6474 56.0113 33.753 54.0211 33.992 50.2947C34.2289 46.6164 34.2686 42.8907 33.9856 39.216C33.6452 34.781 36.4042 31.5192 41.7698 31.5178C45.3799 31.517 49.0141 31.2419 52.593 31.5709C57.7103 32.0405 61.7226 27.6048 61.8985 22.4471C61.9056 22.2761 61.8616 22.0924 61.9056 21.9335C62.3567 20.3484 60.7523 17.9922 62.8986 17.1914C66.142 15.9822 69.7996 17.2532 71.4565 19.7143C73.5452 22.813 73.8275 26.4593 74.1651 30.0198C74.5304 33.8576 73.4537 37.4706 71.8416 40.9324C70.7465 43.2801 68.9053 44.4149 66.3399 44.4184C63.4177 44.4206 60.4963 44.4184 57.5734 44.4184C57.572 44.4128 57.572 44.4078 57.572 44.4028ZM56.789 52.0628C56.4677 50.5975 55.8067 49.5975 54.1045 49.5556C52.3342 49.513 51.8774 50.8372 51.8866 52.0196C51.8965 53.2764 52.2469 54.8226 54.1633 54.6779C55.7563 54.5559 56.533 53.5693 56.789 52.0628Z" fill="#FFCF46"/>
<path fill-rule="evenodd" clip-rule="evenodd" d="M10.2681 82.19C10.2681 84.0213 10.3511 85.7363 10.2291 87.4364C10.1766 88.1697 10.9852 89.55 9.4468 89.5485C8.0907 89.5485 7.74245 88.4691 7.78571 87.1647C7.8687 84.6752 7.80983 82.1808 7.80983 79.6891V74.0165C7.80983 70.5979 8.7269 69.4404 11.9966 68.7325C15.0365 68.0715 17.4252 69.095 18.6537 71.7561C19.8821 74.4179 19.9772 77.1606 18.748 79.8686C17.5366 82.5368 15.3053 83.5326 12.447 82.7418C11.7959 82.5645 11.1384 82.4106 10.2681 82.19ZM10.2681 75.4889C10.2681 76.4322 10.3958 77.394 10.2419 78.3118C9.88583 80.4332 11.2405 80.9559 12.8378 81.3332C14.4173 81.7063 15.5003 81.0346 16.1337 79.643C17.1983 77.3096 17.377 74.9031 16.5685 72.4356C15.8507 70.2425 14.1932 69.9858 12.2583 70.2581C10.3476 70.5298 10.0887 71.8291 10.2554 73.4356C10.3263 74.113 10.2681 74.8045 10.2681 75.4889ZM30.8274 82.0765C29.5188 82.417 28.3826 82.7801 27.2194 82.9985C24.6731 83.4745 22.7879 82.0765 22.1248 79.5274C21.302 76.3727 21.9985 73.2299 22.0198 70.0822C22.029 68.6474 23.3568 69.207 24.2753 68.4382C24.2753 71.8072 24.288 74.7151 24.271 77.6209C24.2618 79.0806 24.6391 80.2807 26.0193 81.0502C27.5428 81.8999 28.7925 81.0906 30.1188 80.5452C31.0692 80.1544 30.9508 79.3565 30.9522 78.5976C30.9593 75.8513 30.9515 73.1079 30.9607 70.3617C30.9621 69.6844 30.8919 68.8566 31.892 68.89C32.7835 68.9191 33.1715 69.4489 33.1566 70.4206C33.092 74.9648 33.2204 79.5154 33.036 84.0532C32.8963 87.4846 30.4756 89.5805 26.9931 89.7344C26.4718 89.7564 25.9257 89.8046 25.7307 89.1577C25.4335 88.1619 26.2399 88.3499 26.7697 88.1804C30.6004 86.9619 31.1012 86.2342 30.8274 82.0765ZM47.0155 70.2851C48.029 69.8063 48.6113 69.368 49.2518 69.2496C52.8456 68.585 55.5996 68.8382 55.5925 73.6789C55.5876 76.1719 55.594 78.6657 55.5876 81.158C55.5862 81.8559 55.6308 82.5354 54.5904 82.5957C53.4931 82.6609 53.252 82.0332 53.257 81.1729C53.2697 78.7707 53.335 76.3684 53.3328 73.9669C53.3314 72.1015 52.9506 70.4504 50.5781 70.456C48.4971 70.4596 47.0233 72.0128 47.0126 74.1562C47.0007 76.4764 47.0014 78.7967 47.0148 81.1169C47.0169 81.941 47.0346 82.6638 45.8431 82.5957C44.77 82.5319 44.9019 81.8084 44.9019 81.1424C44.8948 75.0428 44.9246 68.9368 44.8728 62.8329C44.8636 61.7634 45.2856 61.0995 46.2346 61.0541C47.5737 60.9924 46.9602 62.1634 46.98 62.7506C47.0673 65.1416 47.0155 67.5381 47.0155 70.2851ZM58.3565 75.7542C58.2211 70.9915 60.48 68.4488 64.5696 68.5964C66.6222 68.6715 68.162 69.5822 69.1557 71.3554C70.9111 74.4917 70.6735 77.6295 68.7741 80.5665C67.4691 82.5836 65.4619 83.5347 63.0149 83.0156C60.602 82.5049 58.7126 80.3324 58.3707 77.8004C58.2799 77.1301 58.3565 76.4358 58.3565 75.7542ZM67.8038 75.8655C67.696 75.0343 67.7152 73.8754 67.3691 72.8413C66.896 71.4227 66.0335 70.2808 64.2739 70.2028C62.4986 70.1262 61.6127 71.1639 61.0205 72.6001C60.0907 74.8548 60.1509 77.1188 61.1581 79.3331C61.8049 80.7594 62.8036 81.8034 64.5342 81.5141C66.2385 81.2297 67.2442 80.1126 67.5925 78.455C67.7506 77.7039 67.7251 76.9167 67.8038 75.8655ZM72.7736 76.5003C72.7736 75.6407 72.7573 74.7825 72.7765 73.9271C72.8162 72.2781 72.2906 70.4511 74.5141 69.6085C77.0604 68.6467 79.5839 67.9261 82.1472 69.4148C83.1061 69.9723 83.4593 70.9851 83.4692 72.0604C83.4955 75.0612 83.4557 78.0635 83.4962 81.0644C83.5104 82.1113 83.2352 82.6347 82.0585 82.6063C80.7691 82.5758 81.0407 81.6964 81.0492 80.9942C81.0797 78.5969 81.2464 76.2017 81.201 73.808C81.1414 70.7936 79.4874 69.5645 76.6696 70.3042C75.5007 70.6121 74.7702 71.1795 74.8276 72.6264C74.9418 75.4506 74.8539 78.2848 74.8645 81.114C74.8673 81.934 74.8794 82.6602 73.6964 82.5914C72.6126 82.529 72.7899 81.7793 72.7814 81.1289C72.7616 79.5856 72.7757 78.0415 72.7736 76.5003ZM41.8727 69.8163C41.6953 70.0262 41.5464 70.3553 41.3904 70.3581C38.5789 70.3972 39.359 72.4959 39.2867 74.0527C39.2179 75.5031 39.2867 76.9606 39.2661 78.4153C39.2449 79.8608 39.3704 81.2041 41.1294 81.5878C41.6336 81.6971 41.8634 81.9879 41.7585 82.4914C41.6429 83.0475 41.1996 83.0255 40.7605 83.0198C38.7392 82.9844 37.2405 81.5552 37.1809 79.4629C37.1199 77.3252 37.2029 75.1825 37.1525 73.0469C37.1263 72.0327 37.6533 70.7383 36.0177 70.3362C35.8383 70.2929 35.7745 69.7844 35.6574 69.4943C37.8391 68.8098 36.9341 66.9282 37.2334 65.5004C37.3753 64.8245 38.0171 64.6394 38.6235 64.582C39.2371 64.5238 39.242 65.0203 39.2619 65.4352C39.3427 67.0807 38.4909 69.2829 41.5202 69.1631C41.6216 69.1595 41.74 69.5624 41.8727 69.8163Z" fill="#386F9F"/>
</svg>
