<svg width="94" height="94" viewBox="0 0 94 94" fill="none" xmlns="http://www.w3.org/2000/svg">
<path d="M47.0811 41.8033C50.8465 41.8033 53.899 38.7508 53.899 34.9854C53.899 31.22 50.8465 28.1675 47.0811 28.1675C43.3157 28.1675 40.2632 31.22 40.2632 34.9854C40.2632 38.7508 43.3157 41.8033 47.0811 41.8033Z" fill="#61DAFB"/>
<path d="M47.0812 60.0574C52.4329 65.2624 57.7113 68.3415 61.9633 68.3415C63.3562 68.3415 64.6758 68.0482 65.7754 67.3885C69.5876 65.1891 70.9805 59.6908 69.6609 51.8466C69.441 50.4537 69.1477 49.0608 68.7812 47.5946C70.2474 47.1547 71.567 46.7149 72.8865 46.275C80.2909 43.4159 84.3963 39.4571 84.3963 35.1318C84.3963 30.7332 80.2909 26.7744 72.8865 23.9886C71.567 23.4754 70.2474 23.0355 68.7812 22.669C69.1477 21.2028 69.441 19.8099 69.6609 18.417C70.9072 10.4261 69.5143 4.8545 65.7021 2.65519C64.6025 1.99539 63.2829 1.70215 61.89 1.70215C57.7113 1.70215 52.3596 4.78119 47.0079 9.98625C41.7295 4.78119 36.4512 1.70215 32.1992 1.70215C30.8063 1.70215 29.4867 1.99539 28.387 2.65519C24.5749 4.8545 23.182 10.3528 24.5015 18.197C24.7215 19.5899 25.0147 20.9828 25.3813 22.449C23.9151 22.8889 22.5955 23.3288 21.2759 23.7686C13.8715 26.6278 9.76611 30.5865 9.76611 34.9119C9.76611 39.3105 13.8715 43.2693 21.2759 46.0551C22.5955 46.5682 23.9151 47.0081 25.3813 47.3747C25.0147 48.8409 24.7215 50.2338 24.5015 51.6267C23.2553 59.4709 24.6482 65.0425 28.387 67.1685C29.4867 67.8283 30.8063 68.1216 32.1992 68.1216C36.4512 68.2682 41.7295 65.1891 47.0812 60.0574ZM42.9758 50.1605C44.2954 50.2338 45.6883 50.2338 47.0812 50.2338C48.4741 50.2338 49.867 50.2338 51.1866 50.1605C49.867 51.9199 48.4741 53.5327 47.0812 55.0723C45.6883 53.5327 44.2954 51.9199 42.9758 50.1605ZM33.8853 42.6095C34.6184 43.8558 35.2782 45.0287 36.0846 46.2017C33.812 45.9084 31.686 45.5419 29.6333 45.102C30.2931 43.1226 31.0262 41.0699 31.9059 39.0173C32.4924 40.1902 33.1522 41.4365 33.8853 42.6095ZM29.6333 24.9416C31.686 24.5017 33.812 24.1352 36.0846 23.842C35.3515 25.0149 34.6184 26.1879 33.8853 27.4342C33.1522 28.6805 32.4924 29.8534 31.9059 31.0997C30.9529 28.9737 30.2198 26.921 29.6333 24.9416ZM33.6654 34.9852C34.6184 33.0058 35.6448 31.0264 36.8177 29.047C37.9174 27.1409 39.1637 25.2349 40.41 23.3288C42.6093 23.1822 44.8086 23.1088 47.0812 23.1088C49.4272 23.1088 51.6265 23.1822 53.7525 23.3288C55.0721 25.2349 56.245 27.1409 57.3447 29.047C58.5177 31.0264 59.544 33.0058 60.4971 34.9852C59.544 36.9646 58.5177 38.9439 57.3447 40.9233C56.245 42.8294 54.9988 44.7355 53.7525 46.6416C51.5532 46.7882 49.3538 46.8615 47.0812 46.8615C44.7353 46.8615 42.536 46.7882 40.41 46.6416C39.0904 44.7355 37.9174 42.8294 36.8177 40.9233C35.6448 38.9439 34.6184 36.9646 33.6654 34.9852ZM62.3298 31.0264L60.3504 27.3609C59.6173 26.1146 58.9575 24.9416 58.1511 23.7686C60.4237 24.0619 62.5498 24.4284 64.6025 24.8683C63.9427 26.921 63.2095 28.9737 62.3298 31.0264ZM62.3298 38.9439C63.2095 40.9966 63.9427 43.0493 64.6025 45.0287C62.5498 45.4686 60.4237 45.8351 58.1511 46.1284C58.8842 44.9554 59.6173 43.7824 60.3504 42.5362C61.0102 41.4365 61.67 40.1902 62.3298 38.9439ZM64.016 64.3827C63.4295 64.7493 62.6964 64.8959 61.89 64.8959C58.2977 64.8959 53.8258 61.9635 49.4272 57.5648C51.5532 55.2922 53.6059 52.7263 55.6586 49.8672C59.1042 49.574 62.4031 49.0608 65.4822 48.3277C65.8487 49.6473 66.0687 50.9669 66.2886 52.2865C67.3149 58.5179 66.5085 62.9898 64.016 64.3827ZM67.8281 25.748C76.0389 28.094 80.9507 31.6862 80.9507 34.9852C80.9507 37.8443 77.5784 40.7034 71.6403 42.976C70.4673 43.4159 69.1477 43.8557 67.8281 44.2223C66.8751 41.2166 65.7021 38.1375 64.2359 34.9852C65.7021 31.8328 66.9484 28.7538 67.8281 25.748ZM61.9633 5.07444C62.7697 5.07444 63.4295 5.22106 64.0893 5.58761C66.5085 6.98051 67.3883 11.3791 66.3619 17.6839C66.142 18.9301 65.8487 20.2497 65.5555 21.6426C62.4764 20.9828 59.1775 20.4697 55.7319 20.1031C53.7525 17.244 51.6265 14.6781 49.5005 12.4055C53.8991 8.08017 58.371 5.07444 61.9633 5.07444ZM51.1866 19.8099C49.867 19.7366 48.4741 19.7366 47.0812 19.7366C45.6883 19.7366 44.2954 19.7366 42.9758 19.8099C44.2954 18.0504 45.6883 16.4376 47.0812 14.8981C48.4741 16.4376 49.867 18.1237 51.1866 19.8099ZM30.1465 5.58761C30.7329 5.22106 31.4661 5.07444 32.2725 5.07444C35.8647 5.07444 40.3366 8.00686 44.7353 12.4055C42.6093 14.6781 40.5566 17.244 38.5039 20.1031C35.0583 20.3964 31.7593 20.9095 28.6803 21.6426C28.3137 20.323 28.0938 19.0035 27.8738 17.6839C26.8475 11.4525 27.6539 7.05382 30.1465 5.58761ZM26.3343 44.2223C18.1235 41.8764 13.2117 38.2841 13.2117 34.9852C13.2117 32.1261 16.584 29.2669 22.5222 26.9943C23.6951 26.5544 25.0147 26.1146 26.3343 25.748C27.2873 28.7538 28.4603 31.8328 29.9265 34.9852C28.4603 38.1375 27.214 41.2899 26.3343 44.2223ZM27.8738 52.2865C28.0938 51.0402 28.387 49.7206 28.6803 48.3277C31.7593 48.9875 35.0583 49.5007 38.5039 49.8672C40.4833 52.7263 42.6093 55.2922 44.7353 57.5648C40.3366 61.8902 35.8647 64.8959 32.2725 64.8959C31.4661 64.8959 30.8063 64.7493 30.1465 64.3827C27.6539 62.9898 26.8475 58.5179 27.8738 52.2865ZM24.7948 82.4904C26.4076 80.5111 26.4809 78.3117 25.6012 76.1124C24.7215 73.9131 22.8887 72.8867 20.6161 72.8134C17.9036 72.7401 15.1178 72.8134 12.4053 72.8134H11.8921V91.8009H14.0914V84.6164H17.537C17.9769 84.6164 18.3435 84.7631 18.5634 85.1296L22.962 91.9475C23.0353 92.0941 23.2553 92.3141 23.4019 92.3141H26.261C24.5015 89.6016 22.8154 87.0357 21.0559 84.3965C22.5955 84.1766 23.9151 83.6634 24.7948 82.4904ZM14.0914 82.3438V75.0861H14.8979C16.584 75.0861 18.3435 75.0128 20.0296 75.1594C22.009 75.2327 23.4019 76.7722 23.4019 78.7516C23.4019 80.731 21.7891 82.2705 19.8097 82.3438C18.0502 82.4171 16.2908 82.3438 14.0914 82.3438ZM42.4626 83.2969C41.2897 78.1651 36.5978 76.8455 33.0056 78.4584C30.2198 79.7046 28.9735 82.1239 28.9002 85.1296C28.8269 87.4023 29.4867 89.4549 31.2461 90.9945C33.2255 92.7539 35.6448 92.9739 38.1373 92.534C39.5302 92.2408 40.7765 91.581 41.7295 90.5546C41.363 90.0414 40.9964 89.5283 40.6299 89.0884C38.5772 90.8478 36.3046 91.4343 33.812 90.2614C32.1992 89.4549 31.3927 87.4756 31.2461 86.0093H42.6093V85.0563C42.6826 84.3965 42.6093 83.81 42.4626 83.2969ZM31.3927 84.4698C31.1728 82.2705 33.3721 79.9246 35.7914 79.9246C38.5772 79.8513 40.3366 81.5374 40.41 84.4698H31.3927ZM53.8991 78.0918C52.7994 77.8719 51.6265 77.7986 50.5268 77.8719C48.7674 78.0185 47.2278 78.8249 45.9816 80.1445C46.3481 80.6577 46.6413 81.1709 47.0812 81.7573C47.2278 81.6107 47.3745 81.4641 47.5211 81.3908C48.694 80.2911 50.0869 79.7046 51.7731 79.8513C53.0927 79.9246 54.339 80.3644 54.7055 81.684C54.9988 82.7104 54.9254 83.81 54.9988 84.9097C54.7788 84.9097 54.7055 84.8364 54.6322 84.7631C52.8728 83.2969 50.8934 83.0036 48.7674 83.5168C46.788 84.03 45.5417 85.5695 45.3951 87.5489C45.2484 89.8215 46.2748 91.5076 48.2542 92.3141C49.5005 92.8272 50.8934 92.8272 52.213 92.534C53.2393 92.3141 53.6792 91.7276 55.1454 90.9212V91.8742H57.1981C57.1981 88.9418 57.2714 85.3495 57.1981 81.9773C57.1981 79.8513 55.9518 78.5317 53.8991 78.0918ZM54.9254 87.3289C54.8521 87.5489 54.9254 87.7688 54.9254 87.9887C54.9254 89.5283 54.5589 90.0414 53.0927 90.6279C52.0663 90.9945 50.9667 91.1411 49.867 90.7745C48.6207 90.408 47.741 89.3083 47.741 88.062C47.6677 86.8158 48.4741 85.5695 49.7204 85.2029C51.4065 84.6164 52.9461 84.983 54.339 86.0093C54.7788 86.3759 55.0721 86.7425 54.9254 87.3289ZM66.3619 80.0712C68.268 79.4847 70.0274 79.8513 71.347 81.4641L71.567 81.6107C72.0801 81.1708 72.52 80.731 73.1065 80.2178C72.8865 79.9979 72.8132 79.8513 72.6666 79.6313C70.5406 77.3587 66.3619 77.0655 63.796 78.8982C60.2038 81.5374 60.2771 86.6691 62.0366 89.3816C63.7227 91.9475 66.142 92.8272 69.0011 92.4607C70.6872 92.2408 72.0801 91.4343 73.1798 90.0414C72.6666 89.6016 72.1534 89.1617 71.6403 88.6485C71.4936 88.7952 71.4203 88.8685 71.347 89.0151C69.3676 91.2144 66.0687 90.9945 64.3092 88.6485C63.2829 87.2556 63.0629 85.6428 63.3562 84.03C63.5028 82.1972 64.4558 80.731 66.3619 80.0712ZM81.6105 90.0414C81.4639 90.1147 81.3906 90.1881 81.3906 90.1881C80.8041 90.6279 80.2176 90.7012 79.5578 90.4813C78.898 90.188 78.8247 89.6016 78.7514 89.0151V80.6577C78.7514 80.5111 78.7514 80.8043 78.8247 80.0712H81.6105V77.8719H78.6781V74.2063H76.4788V78.1651H74.5727C74.4261 78.1651 74.2061 78.3117 74.2061 78.4584C74.1328 78.9715 74.2061 79.3381 74.2061 80.0712H76.5521V89.4549C76.5521 90.6279 76.8453 91.6543 77.8717 92.2407C78.9713 92.9005 81.0973 92.7539 82.0504 91.9475C82.197 91.8742 82.2703 91.581 82.2703 91.5076C82.0504 91.0678 81.8304 90.5546 81.6105 90.0414Z" fill="#61DAFB"/>
</svg>
