<svg width="67" height="66" viewBox="0 0 67 66" fill="none" xmlns="http://www.w3.org/2000/svg">
<g clip-path="url(#clip0_42_1044)">
<path d="M10.2349 51.6971C9.8491 52.0268 9.37941 52.243 8.87807 52.3218C8.37673 52.4005 7.86338 52.3387 7.39507 52.1431L2.40814 50.0508C1.91074 49.8433 1.48546 49.4939 1.18537 49.0463C0.885283 48.5986 0.723671 48.0725 0.720703 47.5335L0.720703 18.271C0.72362 17.732 0.885209 17.2058 1.1853 16.7581C1.4854 16.3104 1.9107 15.961 2.40814 15.7534L7.39507 13.6956C7.86335 13.5 8.3767 13.4381 8.87804 13.5168C9.37938 13.5955 9.84907 13.8117 10.2349 14.1414L11.3528 15.0674C11.1261 14.9044 10.8587 14.8072 10.5803 14.7865C10.3018 14.7658 10.023 14.8224 9.77465 14.9502C9.52632 15.0779 9.31809 15.2717 9.17295 15.5103C9.0278 15.7488 8.95137 16.0229 8.95209 16.3021V49.5021C8.95137 49.7814 9.0278 50.0554 9.17295 50.294C9.31809 50.5325 9.52632 50.7264 9.77465 50.8541C10.023 50.9818 10.3018 51.0384 10.5803 51.0178C10.8587 50.9971 11.1261 50.8999 11.3528 50.7368L10.2349 51.6971Z" fill="#52218A"/>
<path d="M2.40814 50.0509C1.91074 49.8434 1.48546 49.494 1.18537 49.0463C0.885283 48.5987 0.723671 48.0726 0.720703 47.5336L0.720703 47.3073C0.724083 47.624 0.822303 47.9324 1.00269 48.1928C1.18307 48.4531 1.43734 48.6534 1.73268 48.7679C2.02802 48.8823 2.35088 48.9056 2.65959 48.8347C2.9683 48.7639 3.24869 48.6022 3.46459 48.3704L45.9933 1.34859C46.5956 0.7493 47.3686 0.351103 48.2063 0.208652C49.0439 0.0662005 49.9051 0.186477 50.6716 0.552973L64.2395 7.08304C64.9384 7.41906 65.5281 7.94569 65.9408 8.60227C66.3534 9.25884 66.5722 10.0186 66.5718 10.7941V10.9518C66.5714 10.4599 66.4313 9.97814 66.168 9.56261C65.9047 9.14708 65.5289 8.81479 65.0842 8.60433C64.6396 8.39387 64.1443 8.31389 63.6561 8.37367C63.1678 8.43345 62.7064 8.63054 62.3257 8.94204L11.3528 50.7369L10.2349 51.6972C9.8491 52.0269 9.37941 52.2431 8.87807 52.3218C8.37673 52.4006 7.86338 52.3387 7.39507 52.1432L2.40814 50.0509Z" fill="#6C33AF"/>
<path d="M2.40814 15.7534C1.9107 15.9609 1.4854 16.3103 1.1853 16.7581C0.885209 17.2058 0.72362 17.732 0.720703 18.2709L0.720703 18.4973C0.724033 18.1806 0.822216 17.8721 1.00258 17.6117C1.18295 17.3513 1.43721 17.1509 1.73256 17.0365C2.02792 16.922 2.3508 16.8987 2.65953 16.9695C2.96826 17.0404 3.24868 17.2021 3.46459 17.4339L45.9933 64.4557C46.5956 65.055 47.3686 65.4533 48.2062 65.5958C49.0438 65.7383 49.905 65.618 50.6716 65.2516L64.2395 58.7213C64.9384 58.3852 65.5281 57.8586 65.9408 57.202C66.3534 56.5455 66.5722 55.7857 66.5718 55.0102V54.8525C66.5714 55.3444 66.4313 55.8262 66.168 56.2417C65.9047 56.6572 65.5289 56.9895 65.0842 57.2C64.6396 57.4104 64.1443 57.4904 63.6561 57.4306C63.1678 57.3709 62.7064 57.1738 62.3257 56.8623L11.3528 15.0674L10.2349 14.1071C9.84564 13.7831 9.3743 13.5732 8.87308 13.5005C8.37185 13.4279 7.8603 13.4954 7.39507 13.6956L2.40814 15.7534Z" fill="#854CC7"/>
<path d="M50.6714 65.2517C49.9049 65.6182 49.0437 65.7384 48.206 65.5959C47.3684 65.4534 46.5954 65.0551 45.9932 64.4558C46.3312 64.7914 46.761 65.0195 47.2283 65.1114C47.6957 65.2033 48.1798 65.1549 48.6198 64.9723C49.0597 64.7897 49.4358 64.4811 49.7008 64.0853C49.9658 63.6895 50.1077 63.2241 50.1089 62.7478V3.07023C50.1104 2.59275 49.9704 2.12552 49.7065 1.72761C49.4425 1.32969 49.0666 1.01896 48.6261 0.834699C48.1856 0.650433 47.7003 0.600904 47.2317 0.692374C46.763 0.783843 46.332 1.0122 45.9932 1.34859C46.5955 0.7493 47.3685 0.351103 48.2061 0.208652C49.0437 0.0662005 49.9049 0.186477 50.6714 0.552973L64.2393 7.07635C64.9382 7.41235 65.5279 7.93895 65.9405 8.59547C66.3532 9.25199 66.5719 10.0117 66.5716 10.7872V55.0172C66.572 55.7927 66.3532 56.5525 65.9406 57.2091C65.528 57.8657 64.9382 58.3923 64.2393 58.7283L50.6714 65.2517Z" fill="#B179F1"/>
<path d="M47.9758 65.5534C48.8827 65.7603 49.8329 65.6539 50.6716 65.2516L64.2395 58.7282C64.9384 58.3922 65.5281 57.8656 65.9408 57.209C66.3534 56.5524 66.5722 55.7926 66.5718 55.0172V10.7871C66.5721 10.0117 66.3533 9.25193 65.9407 8.59541C65.5281 7.93889 64.9384 7.41229 64.2395 7.07629L50.6716 0.552912C49.7116 0.0913588 48.61 0.019992 47.5985 0.353815C46.9936 0.556503 46.4441 0.897035 45.9933 1.34853L24.1254 25.5352L11.3528 15.0674L10.2349 14.1072C9.89861 13.8197 9.49778 13.6177 9.06658 13.5186C8.63539 13.4195 8.18662 13.4261 7.75854 13.5379C7.63322 13.5656 7.51133 13.607 7.39507 13.6614L2.40814 15.7535C1.94138 15.9462 1.53686 16.264 1.23913 16.6719C0.941403 17.0798 0.762008 17.5619 0.720703 18.0652L0.720703 47.7393C0.761969 48.2426 0.941352 48.7247 1.23909 49.1326C1.53683 49.5404 1.94137 49.8582 2.40814 50.0508L7.39507 52.1087C7.51133 52.163 7.63322 52.2044 7.75854 52.2321C8.62747 52.459 9.55221 52.2465 10.2349 51.6629L11.3528 50.7369L24.1254 40.2694L45.9933 64.4557C46.5384 64.9999 47.2253 65.3802 47.9758 65.5534ZM50.109 18.9637L33.1043 32.9023L50.109 46.8406V18.9637ZM8.95209 23.484L17.4646 32.9023L8.95209 42.3203V23.484Z" fill="url(#paint0_linear_42_1044)" fill-opacity="0.25"/>
</g>
<defs>
<linearGradient id="paint0_linear_42_1044" x1="3293.28" y1="0.277504" x2="3293.28" y2="6551.15" gradientUnits="userSpaceOnUse">
<stop stop-color="white"/>
<stop offset="1" stop-color="white" stop-opacity="0"/>
</linearGradient>
<clipPath id="clip0_42_1044">
<rect width="65.8511" height="65.8511" fill="white" transform="translate(0.720703 0.146484)"/>
</clipPath>
</defs>
</svg>
