<svg width="80" height="80" viewBox="0 0 80 80" fill="none" xmlns="http://www.w3.org/2000/svg">
<rect width="80" height="80" rx="12" fill="url(#paint0_linear_30_3871)"/>
<g clip-path="url(#clip0_30_3871)">
<path d="M42 26.6667C42 27.2587 41.7427 27.7907 41.3333 28.1573V30.6667H48C49.0609 30.6667 50.0783 31.0881 50.8284 31.8382C51.5786 32.5884 52 33.6058 52 34.6667V48C52 49.0609 51.5786 50.0783 50.8284 50.8284C50.0783 51.5786 49.0609 52 48 52H32C30.9391 52 29.9217 51.5786 29.1716 50.8284C28.4214 50.0783 28 49.0609 28 48V34.6667C28 33.6058 28.4214 32.5884 29.1716 31.8382C29.9217 31.0881 30.9391 30.6667 32 30.6667H38.6667V28.1573C38.418 27.9349 38.2289 27.6538 38.1167 27.3397C38.0044 27.0255 37.9725 26.6883 38.0239 26.3587C38.0752 26.029 38.2082 25.7175 38.4108 25.4524C38.6133 25.1873 38.879 24.9771 39.1835 24.8409C39.4881 24.7047 39.8219 24.6468 40.1545 24.6726C40.4871 24.6984 40.808 24.8069 41.0879 24.9884C41.3679 25.1699 41.598 25.4185 41.7573 25.7116C41.9166 26.0047 42 26.3331 42 26.6667ZM24 37.3333H26.6667V45.3333H24V37.3333ZM56 37.3333H53.3333V45.3333H56V37.3333ZM36 43.3333C36.5304 43.3333 37.0391 43.1226 37.4142 42.7476C37.7893 42.3725 38 41.8638 38 41.3333C38 40.8029 37.7893 40.2942 37.4142 39.9191C37.0391 39.5441 36.5304 39.3333 36 39.3333C35.4696 39.3333 34.9609 39.5441 34.5858 39.9191C34.2107 40.2942 34 40.8029 34 41.3333C34 41.8638 34.2107 42.3725 34.5858 42.7476C34.9609 43.1226 35.4696 43.3333 36 43.3333ZM46 41.3333C46 40.8029 45.7893 40.2942 45.4142 39.9191C45.0391 39.5441 44.5304 39.3333 44 39.3333C43.4696 39.3333 42.9609 39.5441 42.5858 39.9191C42.2107 40.2942 42 40.8029 42 41.3333C42 41.8638 42.2107 42.3725 42.5858 42.7476C42.9609 43.1226 43.4696 43.3333 44 43.3333C44.5304 43.3333 45.0391 43.1226 45.4142 42.7476C45.7893 42.3725 46 41.8638 46 41.3333Z" fill="white"/>
</g>
<defs>
<linearGradient id="paint0_linear_30_3871" x1="22.5" y1="46.5" x2="80" y2="-5.5" gradientUnits="userSpaceOnUse">
<stop stop-color="#5566FE"/>
<stop offset="1" stop-color="white"/>
</linearGradient>
<clipPath id="clip0_30_3871">
<rect width="32" height="32" fill="white" transform="translate(24 24)"/>
</clipPath>
</defs>
</svg>
