<svg width="80" height="80" viewBox="0 0 80 80" fill="none" xmlns="http://www.w3.org/2000/svg">
<rect width="80" height="80" rx="12" fill="url(#paint0_linear_30_3831)"/>
<g clip-path="url(#clip0_30_3831)">
<path d="M40 49.3334C40 49.7867 40.04 50.2267 40.1067 50.6667H32.6667C30.6667 50.6667 28.92 50 27.48 48.5734C26.0533 47.1734 25.3333 45.4534 25.3333 43.44C25.3333 41.7067 25.8533 40.16 26.8933 38.8C27.9333 37.44 29.3333 36.5734 31 36.2C31.56 34.16 32.6667 32.5067 34.3333 31.24C36 29.9734 37.8933 29.3334 40 29.3334C42.6 29.3334 44.8 30.24 46.6133 32.0534C48.4267 33.8667 49.3333 36.0667 49.3333 38.6667C50.8667 38.84 52.1333 39.5067 53.1467 40.6667C53.2267 40.7334 53.28 40.84 53.3333 40.92C52.1333 40.3334 50.7733 40 49.3333 40C44.1733 40 40 44.1734 40 49.3334ZM55.7733 51.52L54.44 53.8267C54.3467 54 54.1733 54 54 54L52.36 53.3334C52 53.5734 51.64 53.7867 51.24 53.96L50.9867 55.72C50.96 55.88 50.8133 56 50.6667 56H48C47.8133 56 47.68 55.88 47.6533 55.72L47.4 53.96C46.9867 53.8 46.6133 53.5734 46.2667 53.3334L44.6133 54C44.4533 54 44.28 54 44.2 53.8267L42.8667 51.52C42.8294 51.4504 42.8171 51.3702 42.8316 51.2926C42.8462 51.2151 42.8867 51.1448 42.9467 51.0934L44.36 50C44.3068 49.5572 44.3068 49.1096 44.36 48.6667L42.9467 47.5734C42.8841 47.5239 42.8415 47.4534 42.8268 47.375C42.8121 47.2966 42.8263 47.2155 42.8667 47.1467L44.2 44.84C44.2933 44.6667 44.4667 44.6667 44.6133 44.6667L46.2667 45.3334C46.6133 45.0934 47 44.88 47.4 44.7067L47.6533 42.9467C47.669 42.8667 47.7123 42.7948 47.7757 42.7436C47.8391 42.6924 47.9185 42.6652 48 42.6667H50.6667C50.8133 42.6667 50.96 42.7867 50.9733 42.9467L51.2267 44.7067C51.64 44.8667 52 45.0934 52.36 45.3334L54 44.6667C54.1733 44.6667 54.3467 44.6667 54.4267 44.84L55.76 47.1467C55.84 47.2934 55.8 47.4667 55.68 47.5734L54.2667 48.6667C54.3067 48.8934 54.32 49.1067 54.32 49.3334C54.32 49.56 54.2933 49.7734 54.2667 50L55.6933 51.0934C55.8133 51.2 55.8533 51.3734 55.7733 51.52ZM51.3333 49.3334C51.3333 48.2267 50.4267 47.3334 49.3333 47.3334C48.24 47.3334 47.3333 48.2267 47.3333 49.3334C47.3333 50.44 48.2133 51.3334 49.3333 51.3334C50.4533 51.3334 51.3333 50.44 51.3333 49.3334Z" fill="white"/>
</g>
<defs>
<linearGradient id="paint0_linear_30_3831" x1="22.5" y1="46.5" x2="80" y2="-5.5" gradientUnits="userSpaceOnUse">
<stop stop-color="#5566FE"/>
<stop offset="1" stop-color="white"/>
</linearGradient>
<clipPath id="clip0_30_3831">
<rect width="32" height="32" fill="white" transform="translate(24 24)"/>
</clipPath>
</defs>
</svg>
