<svg width="80" height="80" viewBox="0 0 80 80" fill="none" xmlns="http://www.w3.org/2000/svg">
<rect width="80" height="80" rx="12" fill="url(#paint0_linear_30_3838)"/>
<path d="M30.6667 41.3333V53.3333H28V41.3333H30.6667ZM54.6667 41.3333V44H52V53.3333H49.3333V44H46.6667V41.3333H54.6667ZM40 38.6667C41.8682 38.6766 43.6966 39.2071 45.28 40.1987L47.2093 38.2653C45.0919 36.796 42.5773 36.0058 40 36C37.457 36.005 34.9761 36.7865 32.8893 38.24L34.8213 40.1773C36.3725 39.1999 38.1666 38.6766 40 38.6667Z" fill="white"/>
<path d="M40 33.3333C43.2831 33.3401 46.4773 34.4011 49.112 36.36L51.0147 34.4533C47.8652 32.0034 43.9901 30.6712 40 30.6666C36.0445 30.6716 32.2036 31.9957 29.0853 34.4293L30.9867 36.336C33.5906 34.3929 36.751 33.3401 40 33.3333Z" fill="white"/>
<path d="M40 28C44.6975 28.0007 49.254 29.6047 52.916 32.5467L54.8187 30.6414C50.6611 27.2138 45.4417 25.3375 40.0534 25.3334C34.6652 25.3292 29.4429 27.1976 25.28 30.6187L27.1827 32.524C30.8139 29.5978 35.3366 28.0015 40 28ZM40 41.3334C38.8133 41.3334 37.6533 41.6852 36.6666 42.3445C35.6799 43.0038 34.9109 43.9409 34.4568 45.0373C34.0026 46.1336 33.8838 47.34 34.1153 48.5039C34.3468 49.6678 34.9183 50.7369 35.7574 51.576C36.5965 52.4151 37.6656 52.9866 38.8295 53.2181C39.9934 53.4496 41.1998 53.3308 42.2961 52.8766C43.3925 52.4225 44.3296 51.6535 44.9888 50.6668C45.6481 49.6801 46 48.52 46 47.3334C46 45.7421 45.3679 44.2159 44.2427 43.0907C43.1175 41.9655 41.5913 41.3334 40 41.3334ZM40 50.6667C39.3408 50.6667 38.6963 50.4712 38.1481 50.1049C37.6 49.7386 37.1727 49.2181 36.9204 48.609C36.6681 47.9999 36.6021 47.3297 36.7307 46.6831C36.8594 46.0364 37.1768 45.4425 37.643 44.9763C38.1092 44.5102 38.7031 44.1927 39.3497 44.0641C39.9963 43.9354 40.6666 44.0015 41.2756 44.2538C41.8847 44.506 42.4053 44.9333 42.7716 45.4814C43.1379 46.0296 43.3334 46.6741 43.3334 47.3334C43.3334 48.2174 42.9822 49.0653 42.3571 49.6904C41.7319 50.3155 40.8841 50.6667 40 50.6667Z" fill="white"/>
<defs>
<linearGradient id="paint0_linear_30_3838" x1="22.5" y1="46.5" x2="80" y2="-5.5" gradientUnits="userSpaceOnUse">
<stop stop-color="#5566FE"/>
<stop offset="1" stop-color="white"/>
</linearGradient>
</defs>
</svg>
