<svg width="32" height="33" viewBox="0 0 32 33" fill="none" xmlns="http://www.w3.org/2000/svg">
<path d="M16.947 21.9396L16.747 21.7796C16.6727 21.7291 16.592 21.6887 16.507 21.6596L16.267 21.5529C16.0508 21.5077 15.8267 21.5169 15.6149 21.5798C15.4031 21.6426 15.2102 21.7571 15.0537 21.9129C14.9359 22.0425 14.8412 22.1913 14.7737 22.3529C14.6728 22.5958 14.646 22.8632 14.6967 23.1213C14.7474 23.3794 14.8733 23.6168 15.0586 23.8035C15.2439 23.9902 15.4803 24.118 15.738 24.1707C15.9957 24.2233 16.2633 24.1986 16.507 24.0996C16.6663 24.0223 16.8144 23.9236 16.947 23.8062C17.132 23.6187 17.2573 23.3806 17.3072 23.122C17.357 22.8633 17.3291 22.5957 17.227 22.3529C17.1605 22.1987 17.0655 22.0585 16.947 21.9396ZM21.3337 2.88623H10.667C9.60613 2.88623 8.58871 3.30766 7.83857 4.0578C7.08842 4.80795 6.66699 5.82536 6.66699 6.88623V25.5529C6.66699 26.6138 7.08842 27.6312 7.83857 28.3813C8.58871 29.1315 9.60613 29.5529 10.667 29.5529H21.3337C22.3945 29.5529 23.4119 29.1315 24.1621 28.3813C24.9122 27.6312 25.3337 26.6138 25.3337 25.5529V6.88623C25.3337 5.82536 24.9122 4.80795 24.1621 4.0578C23.4119 3.30766 22.3945 2.88623 21.3337 2.88623ZM22.667 25.5529C22.667 25.9065 22.5265 26.2457 22.2765 26.4957C22.0264 26.7458 21.6873 26.8862 21.3337 26.8862H10.667C10.3134 26.8862 9.97423 26.7458 9.72418 26.4957C9.47413 26.2457 9.33366 25.9065 9.33366 25.5529V6.88623C9.33366 6.53261 9.47413 6.19347 9.72418 5.94342C9.97423 5.69337 10.3134 5.5529 10.667 5.5529H21.3337C21.6873 5.5529 22.0264 5.69337 22.2765 5.94342C22.5265 6.19347 22.667 6.53261 22.667 6.88623V25.5529Z" fill="white"/>
</svg>
