<svg width="32" height="33" viewBox="0 0 32 33" fill="none" xmlns="http://www.w3.org/2000/svg">
<path fill-rule="evenodd" clip-rule="evenodd" d="M8.71962 6.88608C8.79962 8.07275 8.99962 9.23275 9.31962 10.3394L7.71962 11.9394C7.17295 10.3394 6.82628 8.64608 6.70628 6.88608H8.71962ZM21.8663 22.9121C22.9996 23.2321 24.1596 23.4321 25.333 23.5121V25.4987C23.573 25.3787 21.8796 25.0321 20.2663 24.4987L21.8663 22.9121ZM9.99902 4.21924H5.33236C4.59902 4.21924 3.99902 4.81924 3.99902 5.55257C3.99902 18.0726 14.1457 28.2192 26.6657 28.2192C27.399 28.2192 27.999 27.6192 27.999 26.8859V22.2326C27.999 21.4992 27.399 20.8992 26.6657 20.8992C25.0124 20.8992 23.399 20.6326 21.9057 20.1392C21.7724 20.0859 21.6257 20.0726 21.4924 20.0726C21.1457 20.0726 20.8124 20.2059 20.5457 20.4592L17.6124 23.3926C13.839 21.4592 10.7457 18.3792 8.82569 14.6059L11.759 11.6726C12.1324 11.2992 12.239 10.7792 12.0924 10.3126C11.599 8.81924 11.3324 7.21924 11.3324 5.55257C11.3324 4.81924 10.7324 4.21924 9.99902 4.21924Z" fill="white"/>
</svg>
