<svg width="80" height="80" viewBox="0 0 80 80" fill="none" xmlns="http://www.w3.org/2000/svg">
<rect width="80" height="80" rx="12" fill="url(#paint0_linear_30_3855)"/>
<mask id="mask0_30_3855" style="mask-type:luminance" maskUnits="userSpaceOnUse" x="25" y="28" width="30" height="25">
<path d="M40 50.6667H28.6667C28.1362 50.6667 27.6275 50.456 27.2525 50.0809C26.8774 49.7058 26.6667 49.1971 26.6667 48.6667V31.3334C26.6667 30.8029 26.8774 30.2942 27.2525 29.9192C27.6275 29.5441 28.1362 29.3334 28.6667 29.3334H51.3333C51.8638 29.3334 52.3725 29.5441 52.7476 29.9192C53.1226 30.2942 53.3333 30.8029 53.3333 31.3334V39.3727" stroke="white" stroke-width="2.66667" stroke-linecap="round" stroke-linejoin="round"/>
<path d="M26.6667 31.3334C26.6667 30.8029 26.8774 30.2942 27.2525 29.9192C27.6275 29.5441 28.1362 29.3334 28.6667 29.3334H51.3333C51.8638 29.3334 52.3725 29.5441 52.7476 29.9192C53.1226 30.2942 53.3333 30.8029 53.3333 31.3334V37.3334H26.6667V31.3334Z" fill="white" stroke="white" stroke-width="2.66667"/>
<path d="M29.3333 33.3334C29.3333 32.597 29.9303 32.0001 30.6667 32.0001C31.403 32.0001 32 32.597 32 33.3334C32 34.0698 31.403 34.6667 30.6667 34.6667C29.9303 34.6667 29.3333 34.0698 29.3333 33.3334Z" fill="black"/>
<path d="M33.3333 33.3334C33.3333 32.597 33.9303 32.0001 34.6667 32.0001C35.403 32.0001 36 32.597 36 33.3334C36 34.0698 35.403 34.6667 34.6667 34.6667C33.9303 34.6667 33.3333 34.0698 33.3333 33.3334Z" fill="black"/>
<path d="M48.6667 48.6667C49.7712 48.6667 50.6667 47.7713 50.6667 46.6667C50.6667 45.5622 49.7712 44.6667 48.6667 44.6667C47.5621 44.6667 46.6667 45.5622 46.6667 46.6667C46.6667 47.7713 47.5621 48.6667 48.6667 48.6667Z" stroke="white" stroke-width="2.66667"/>
<path d="M48.6667 51.3333V48.6667M48.6667 44.6667V42M44.6253 49L46.9347 47.6667M50.3987 45.6667L52.708 44.3333M44.6253 44.3333L46.9347 45.6667M50.3987 47.6667L52.708 49" stroke="white" stroke-width="2.66667" stroke-linecap="round" stroke-linejoin="round"/>
</mask>
<g mask="url(#mask0_30_3855)">
<path d="M24 24H56V56H24V24Z" fill="white"/>
</g>
<defs>
<linearGradient id="paint0_linear_30_3855" x1="22.5" y1="46.5" x2="80" y2="-5.5" gradientUnits="userSpaceOnUse">
<stop stop-color="#5566FE"/>
<stop offset="1" stop-color="white"/>
</linearGradient>
</defs>
</svg>
