<svg width="77" height="78" viewBox="0 0 77 78" fill="none" xmlns="http://www.w3.org/2000/svg">
<g filter="url(#filter0_d_30_10092)">
<rect x="6" y="4.5" width="65" height="65" rx="32.5" fill="#5A48AB" shape-rendering="crispEdges"/>
<g clip-path="url(#clip0_30_10092)">
<path d="M38.7578 68.8887C56.4309 68.8887 70.7578 54.5618 70.7578 36.8887C70.7578 19.2156 56.4309 4.88867 38.7578 4.88867C21.0847 4.88867 6.75781 19.2156 6.75781 36.8887C6.75781 54.5618 21.0847 68.8887 38.7578 68.8887Z" fill="url(#paint0_linear_30_10092)"/>
<path d="M38.7578 68.3887C56.1548 68.3887 70.2578 54.2856 70.2578 36.8887C70.2578 19.4917 56.1548 5.38867 38.7578 5.38867C21.3608 5.38867 7.25781 19.4917 7.25781 36.8887C7.25781 54.2856 21.3608 68.3887 38.7578 68.3887Z" stroke="url(#paint1_linear_30_10092)" stroke-opacity="0.3"/>
<path d="M50.4801 30.8484L50.4001 30.7684C50.2775 30.6454 50.131 30.5489 49.9696 30.4846C49.8083 30.4204 49.6355 30.3898 49.4619 30.3948C49.2883 30.3998 49.1176 30.4402 48.9602 30.5137C48.8028 30.5871 48.6621 30.6919 48.5468 30.8217L45.6401 34.0884C42.9068 31.0084 39.1068 29.1417 34.8134 29.1417C31.4801 29.1417 28.3734 30.3017 25.8134 32.2084C25.6663 32.3183 25.5444 32.4585 25.456 32.6195C25.3675 32.7805 25.3146 32.9586 25.3007 33.1417C25.2868 33.3249 25.3123 33.5089 25.3754 33.6814C25.4386 33.8539 25.5379 34.0108 25.6668 34.1417L25.7468 34.2217C26.1868 34.6617 26.8934 34.7417 27.3868 34.3684C29.5068 32.7684 32.0534 31.8084 34.8134 31.8084C38.4668 31.8084 41.6001 33.4884 43.8401 36.1284L40.0001 40.4484L35.6134 36.0617C35.4901 35.9381 35.3436 35.8401 35.1823 35.7731C35.021 35.7062 34.8481 35.6718 34.6734 35.6718C34.4988 35.6718 34.3259 35.7062 34.1646 35.7731C34.0033 35.8401 33.8568 35.9381 33.7334 36.0617L25.5734 44.2351C25.3365 44.4747 25.2036 44.7981 25.2036 45.1351C25.2036 45.472 25.3365 45.7954 25.5734 46.0351L25.7734 46.2351C26.2668 46.7284 27.0801 46.7284 27.5734 46.2351L34.6668 39.1284L39.0001 43.4617C39.5468 44.0084 40.4268 43.9817 40.9334 43.4084L45.4001 38.3951C46.2268 39.8884 46.8401 41.5817 47.1601 43.3684C47.2668 43.9951 47.7868 44.4617 48.4268 44.4617H48.5468C49.3468 44.4617 49.9468 43.7284 49.8001 42.9417C49.3983 40.5777 48.5426 38.3138 47.2801 36.2751L50.5334 32.6084C50.9868 32.1017 50.9601 31.3284 50.4801 30.8484Z" fill="white"/>
</g>
</g>
<defs>
<filter id="filter0_d_30_10092" x="0" y="0.5" width="77" height="77" filterUnits="userSpaceOnUse" color-interpolation-filters="sRGB">
<feFlood flood-opacity="0" result="BackgroundImageFix"/>
<feColorMatrix in="SourceAlpha" type="matrix" values="0 0 0 0 0 0 0 0 0 0 0 0 0 0 0 0 0 0 127 0" result="hardAlpha"/>
<feOffset dy="2"/>
<feGaussianBlur stdDeviation="3"/>
<feComposite in2="hardAlpha" operator="out"/>
<feColorMatrix type="matrix" values="0 0 0 0 0.152941 0 0 0 0 0.223529 0 0 0 0 0.576471 0 0 0 0.06 0"/>
<feBlend mode="normal" in2="BackgroundImageFix" result="effect1_dropShadow_30_10092"/>
<feBlend mode="normal" in="SourceGraphic" in2="effect1_dropShadow_30_10092" result="shape"/>
</filter>
<linearGradient id="paint0_linear_30_10092" x1="15" y1="68.4751" x2="63" y2="4.4751" gradientUnits="userSpaceOnUse">
<stop stop-color="#5A48AB"/>
<stop offset="1"/>
</linearGradient>
<linearGradient id="paint1_linear_30_10092" x1="38.7578" y1="4.88864" x2="38.7578" y2="68.8887" gradientUnits="userSpaceOnUse">
<stop stop-color="#52B6FF" stop-opacity="0"/>
<stop offset="1" stop-color="#A2D8FF"/>
</linearGradient>
<clipPath id="clip0_30_10092">
<rect width="65" height="65" fill="white" transform="translate(6 4.5)"/>
</clipPath>
</defs>
</svg>
