<svg width="65" height="66" viewBox="0 0 65 66" fill="none" xmlns="http://www.w3.org/2000/svg">
<g clip-path="url(#clip0_30_10093)">
<path d="M32.7578 64.8887C50.4309 64.8887 64.7578 50.5618 64.7578 32.8887C64.7578 15.2156 50.4309 0.888672 32.7578 0.888672C15.0847 0.888672 0.757812 15.2156 0.757812 32.8887C0.757812 50.5618 15.0847 64.8887 32.7578 64.8887Z" fill="url(#paint0_linear_30_10093)"/>
<path d="M32.7578 64.3887C50.1548 64.3887 64.2578 50.2856 64.2578 32.8887C64.2578 15.4917 50.1548 1.38867 32.7578 1.38867C15.3608 1.38867 1.25781 15.4917 1.25781 32.8887C1.25781 50.2856 15.3608 64.3887 32.7578 64.3887Z" stroke="url(#paint1_linear_30_10093)" stroke-opacity="0.3"/>
<path d="M44.4801 26.8484L44.4001 26.7684C44.2775 26.6454 44.131 26.5489 43.9696 26.4846C43.8083 26.4204 43.6355 26.3898 43.4619 26.3948C43.2883 26.3998 43.1176 26.4402 42.9602 26.5137C42.8028 26.5871 42.6621 26.6919 42.5468 26.8217L39.6401 30.0884C36.9068 27.0084 33.1068 25.1417 28.8134 25.1417C25.4801 25.1417 22.3734 26.3017 19.8134 28.2084C19.6663 28.3183 19.5444 28.4585 19.456 28.6195C19.3675 28.7805 19.3146 28.9586 19.3007 29.1417C19.2868 29.3249 19.3123 29.5089 19.3754 29.6814C19.4386 29.8539 19.5379 30.0108 19.6668 30.1417L19.7468 30.2217C20.1868 30.6617 20.8934 30.7417 21.3868 30.3684C23.5068 28.7684 26.0534 27.8084 28.8134 27.8084C32.4668 27.8084 35.6001 29.4884 37.8401 32.1284L34.0001 36.4484L29.6134 32.0617C29.4901 31.9381 29.3436 31.8401 29.1823 31.7731C29.021 31.7062 28.8481 31.6718 28.6734 31.6718C28.4988 31.6718 28.3259 31.7062 28.1646 31.7731C28.0033 31.8401 27.8568 31.9381 27.7334 32.0617L19.5734 40.2351C19.3365 40.4747 19.2036 40.7981 19.2036 41.1351C19.2036 41.472 19.3365 41.7954 19.5734 42.0351L19.7734 42.2351C20.2668 42.7284 21.0801 42.7284 21.5734 42.2351L28.6668 35.1284L33.0001 39.4617C33.5468 40.0084 34.4268 39.9817 34.9334 39.4084L39.4001 34.3951C40.2268 35.8884 40.8401 37.5817 41.1601 39.3684C41.2668 39.9951 41.7868 40.4617 42.4268 40.4617H42.5468C43.3468 40.4617 43.9468 39.7284 43.8001 38.9417C43.3983 36.5777 42.5426 34.3138 41.2801 32.2751L44.5334 28.6084C44.9868 28.1017 44.9601 27.3284 44.4801 26.8484Z" fill="white"/>
</g>
<defs>
<linearGradient id="paint0_linear_30_10093" x1="9" y1="64.4751" x2="57" y2="0.475098" gradientUnits="userSpaceOnUse">
<stop stop-color="#5A48AB"/>
<stop offset="1"/>
</linearGradient>
<linearGradient id="paint1_linear_30_10093" x1="32.7578" y1="0.888644" x2="32.7578" y2="64.8887" gradientUnits="userSpaceOnUse">
<stop stop-color="#52B6FF" stop-opacity="0"/>
<stop offset="1" stop-color="#A2D8FF"/>
</linearGradient>
<clipPath id="clip0_30_10093">
<rect width="65" height="65" fill="white" transform="translate(0 0.5)"/>
</clipPath>
</defs>
</svg>
