<svg width="24" height="25" viewBox="0 0 24 25" fill="none" xmlns="http://www.w3.org/2000/svg">
<path d="M17 18.0984H7V6.09839H17V7.09839H19V3.09839C19 1.99839 18.1 1.09839 17 1.09839L7 1.10839C5.9 1.10839 5 1.99839 5 3.09839V21.0984C5 22.1984 5.9 23.0984 7 23.0984H17C18.1 23.0984 19 22.1984 19 21.0984V17.0984H17V18.0984ZM21 12.0984C21 11.9684 20.98 11.8384 20.96 11.7084L21.6 11.2284C21.8 11.0784 21.86 10.7884 21.73 10.5684L21.16 9.60839C21.0984 9.50567 21.0016 9.4288 20.8875 9.39202C20.7735 9.35524 20.6501 9.36106 20.54 9.40839L19.82 9.70839C19.62 9.55839 19.4 9.41839 19.17 9.31839L19.07 8.54839C19.0545 8.42856 18.9965 8.31826 18.9066 8.23753C18.8167 8.1568 18.7008 8.11098 18.58 8.10839L17.46 8.08839C17.2 8.08839 16.99 8.26839 16.96 8.52839L16.86 9.31839C16.62 9.41839 16.41 9.54839 16.21 9.70839L15.49 9.40839C15.26 9.30839 14.99 9.39839 14.87 9.60839L14.3 10.5684C14.17 10.7884 14.22 11.0684 14.43 11.2284L15.07 11.7084C15.02 11.8384 15 11.9684 15 12.0984C15 12.2284 15.02 12.3484 15.04 12.4684L14.4 12.9584C14.2 13.1084 14.14 13.3884 14.27 13.6084L14.83 14.5784C14.96 14.7984 15.22 14.8884 15.46 14.7884L16.19 14.4784C16.39 14.6384 16.61 14.7784 16.86 14.8784L16.96 15.6484C16.99 15.8984 17.2 16.0884 17.46 16.0884H18.58C18.83 16.0884 19.04 15.8984 19.08 15.6484L19.18 14.8784C19.42 14.7784 19.64 14.6384 19.85 14.4784L20.58 14.7884C20.81 14.8884 21.08 14.7984 21.21 14.5784L21.77 13.6084C21.9 13.3884 21.84 13.1084 21.64 12.9584L21 12.4684C20.98 12.3484 21 12.2284 21 12.0984ZM18 13.5984C17.17 13.5984 16.5 12.9284 16.5 12.0984C16.5 11.2684 17.17 10.5984 18 10.5984C18.83 10.5984 19.5 11.2684 19.5 12.0984C19.5 12.9284 18.83 13.5984 18 13.5984Z" fill="#663AE7"/>
</svg>
