<svg width="25" height="26" viewBox="0 0 25 26" fill="none" xmlns="http://www.w3.org/2000/svg">
<path d="M22.7709 11.0359C22.0177 10.1489 20.9497 9.58879 19.7917 9.47343C19.7917 7.44218 19.0834 5.72343 17.6667 4.30676C16.2501 2.8901 14.5313 2.18176 12.5001 2.18176C10.8542 2.18176 9.37508 2.7026 8.073 3.67135C6.77092 4.6401 5.90633 5.9526 5.46883 7.54635C4.16675 7.83801 3.08342 8.5151 2.2605 9.5776C1.43758 10.6401 1.04175 11.8484 1.04175 13.2026C1.04175 14.7755 1.60425 16.1193 2.71883 17.213C3.71883 18.1818 4.89592 18.6922 6.25008 18.7963V23.0151H18.7501V18.8484H19.2709C20.573 18.8484 21.6772 18.3901 22.5938 17.4838C23.5001 16.5672 23.9584 15.463 23.9584 14.1609C23.9584 12.963 23.5626 11.9213 22.7709 11.0359ZM16.6667 20.9318H8.33342V13.6401H16.6667V20.9318ZM15.6251 15.7234H9.37508V14.6818H15.6251V15.7234ZM15.6251 17.8068H9.37508V16.7651H15.6251V17.8068ZM15.6251 19.8901H9.37508V18.8484H15.6251V19.8901Z" fill="#663AE7"/>
</svg>
