<svg width="24" height="25" viewBox="0 0 24 25" fill="none" xmlns="http://www.w3.org/2000/svg">
<g clip-path="url(#clip0_567_3038)">
<path fill-rule="evenodd" clip-rule="evenodd" d="M10.865 17.1954C8.57599 18.0004 5.69299 16.6604 5.10999 14.4394C2.23199 14.4344 0.0239918 13.0314 -8.17781e-06 10.5534C-0.0380082 6.5224 4.51599 1.1054 12 1.0984C19.485 1.0914 23.996 6.4104 24 11.4274C24.004 16.4444 19.818 18.3244 16.393 17.6904C16.029 19.1974 16.222 21.2684 16.625 22.4374L14.516 23.0984C13.703 20.3104 12.316 18.1314 10.865 17.1954ZM10.173 7.9194C9.48199 7.6054 8.99999 6.9074 8.99999 6.0984C8.99999 4.9944 9.89599 4.0984 11 4.0984C12.104 4.0984 13 4.9944 13 6.0984C13 6.3584 12.95 6.6074 12.86 6.8364C14.074 7.7474 15.265 8.69139 16.459 9.63039C16.884 9.29739 17.419 9.0984 18 9.0984C19.38 9.0984 20.5 10.2184 20.5 11.5984C20.5 12.9784 19.38 14.0984 18 14.0984C16.829 14.0984 15.845 13.2914 15.574 12.2034C14.373 12.3014 13.17 12.3764 11.968 12.4574C11.799 13.3904 10.981 14.0984 9.99999 14.0984C8.89599 14.0984 7.99999 13.2024 7.99999 12.0984C7.99999 11.0654 8.78499 10.2144 9.78999 10.1094C9.91099 9.3784 10.042 8.6494 10.173 7.9194ZM12.233 7.6734C11.936 7.9054 11.572 8.0564 11.175 8.0904L10.812 10.2704C11.316 10.4944 11.71 10.9214 11.892 11.4474L15.539 11.1584C15.586 10.8914 15.676 10.6394 15.801 10.4094L12.233 7.6734Z" fill="#663AE7"/>
</g>
<defs>
<clipPath id="clip0_567_3038">
<rect width="24" height="24" fill="white" transform="translate(0 0.0983887)"/>
</clipPath>
</defs>
</svg>
