<svg width="24" height="25" viewBox="0 0 24 25" fill="none" xmlns="http://www.w3.org/2000/svg">
<path d="M7.94959 5.25C7.71631 5.2524 7.61119 5.4912 7.53703 5.67408C5.91127 9.0408 4.27495 12.4032 2.65543 15.7728C2.57215 16.0058 2.77855 16.2557 3.01927 16.2485C9.01039 17.1473 15.001 18.0526 20.9926 18.9475C21.2566 18.9641 21.4489 18.6533 21.326 18.42C20.1836 14.9448 19.0493 11.467 17.9021 7.99368C17.7826 7.74912 17.4634 7.77408 17.2441 7.68936C14.1649 6.87816 11.0881 6.05592 8.00719 5.25168C7.98799 5.25024 7.96879 5.24904 7.94959 5.25ZM21.2408 18.8558C21.2081 18.8736 21.2415 18.8669 21.2408 18.8558V18.8558ZM7.88647 2.73096C7.18639 2.74008 6.53887 3.02976 6.04423 3.47496C5.79586 3.69699 5.58555 3.95821 5.42167 4.24824L6.46735 4.83648C6.56687 4.6609 6.69439 4.50274 6.84487 4.36824C6.84511 4.36793 6.84535 4.36761 6.84559 4.36728C7.14127 4.10112 7.53199 3.93576 7.90231 3.93096H7.94959L7.96327 2.73096H7.95607C7.95407 2.73095 7.95207 2.73095 7.95007 2.73096H7.89487L7.89439 3.33096L7.88647 2.73096ZM9.27943 2.98392L8.97847 4.14552C9.75199 4.34592 10.5255 4.54824 11.2983 4.75176L11.6041 3.59112C10.8296 3.38715 10.0547 3.18475 9.27943 2.98392ZM12.7647 3.89664L12.4585 5.05728L12.9065 5.17536L14.7778 5.67144L15.0853 4.51128L13.2137 4.0152C13.2136 4.0152 13.2134 4.0152 13.2133 4.0152L12.7647 3.89664ZM16.2452 4.81824L15.938 5.9784L16.4475 6.11352L16.3289 6.06792C17.0893 6.45528 17.7728 6.40128 18.1623 6.57456L18.6502 5.47824C17.8923 5.1408 17.2443 5.1876 16.8737 4.99872C16.8358 4.97934 16.7959 4.96405 16.7547 4.95312L16.2449 4.81824H16.2452ZM4.88719 5.36376C4.53943 6.08376 4.19071 6.80328 3.84199 7.52328L4.92199 8.04648C5.27047 7.32648 5.61943 6.60696 5.96767 5.886L4.88719 5.36376ZM19.8291 6.3516L18.8981 7.10856C18.9761 7.20456 19.0402 7.30944 19.0899 7.4184C19.2869 7.98384 19.4732 8.56104 19.6688 9.14304L20.8059 8.76096C20.6098 8.17704 20.419 7.58256 20.2107 6.98664C20.2053 6.97112 20.1992 6.95583 20.1925 6.9408C20.0974 6.7272 19.9741 6.52968 19.8291 6.3516ZM3.31879 8.60352L2.78119 9.71328C2.78119 9.71344 2.78119 9.7136 2.78119 9.71376L2.27287 10.7642L3.35335 11.2865L3.86095 10.2365L4.39855 9.12648L3.31855 8.60328L3.31879 8.60352ZM21.1839 9.90288L20.0444 10.2792C20.2951 11.0384 20.5447 11.7979 20.7932 12.5578L21.9339 12.1846C21.685 11.4236 21.435 10.6631 21.1839 9.90288ZM1.75111 11.8452C1.40311 12.5664 1.05655 13.2878 0.710708 14.01L1.79311 14.5284C2.13823 13.8074 2.48479 13.0867 2.83231 12.367L1.75111 11.8452ZM22.3071 13.3246L21.1671 13.6982C21.416 14.4581 21.6641 15.2189 21.9142 15.9797L23.0542 15.6053C22.8046 14.8459 22.5565 14.0854 22.3071 13.3246ZM0.188468 15.2263C0.00462773 15.9922 0.172148 16.7822 0.570788 17.4199C0.570788 17.4202 0.570788 17.4204 0.570788 17.4206C0.702242 17.6317 0.860255 17.8249 1.04095 17.9957L1.86367 17.1221C1.75788 17.0217 1.66537 16.9082 1.58839 16.7844V16.7839C1.34983 16.4023 1.25671 15.9187 1.35559 15.5066L0.188228 15.2263H0.188468ZM23.4224 16.7474L22.2819 17.1211C22.4278 17.5666 22.585 17.9443 22.6479 18.2851C22.6983 18.5614 22.6885 18.8419 22.6129 19.0824L23.7577 19.4424C23.9017 18.9838 23.9093 18.5105 23.8287 18.0694C23.8285 18.069 23.8284 18.0687 23.8282 18.0684C23.7334 17.5529 23.5462 17.1257 23.4224 16.7474ZM2.64247 17.5138L2.37055 18.6826C2.98663 18.8256 3.56239 18.8594 4.06735 18.9547C4.07468 18.9561 4.08204 18.9574 4.08943 18.9586L4.78783 19.0632L4.96591 17.8766L4.26751 17.7718C3.67231 17.6611 3.12103 17.6251 2.64247 17.5138ZM6.15295 18.0547L5.97487 19.2418C6.76567 19.3603 7.55647 19.4794 8.34751 19.5984L8.52607 18.4121C7.73527 18.293 6.94447 18.1735 6.15295 18.0547ZM9.71311 18.5899L9.53455 19.777L11.9077 20.1341L12.0862 18.9473L9.71311 18.5902V18.5899ZM13.2728 19.1258L13.0947 20.3124L14.5088 20.5246C14.5089 20.5246 14.5091 20.5246 14.5093 20.5246L15.4683 20.6681L15.6454 19.4813L14.6869 19.3382L13.2728 19.1258ZM16.832 19.6589L16.6556 20.8457L18.6783 21.1466C18.6785 21.1466 18.6786 21.1466 18.6788 21.1466L19.0299 21.1987L19.2056 20.0119L18.8547 19.9598L16.832 19.6589ZM22.1341 19.8182C22.0981 19.8516 22.0585 19.8847 22.0153 19.9181C22.015 19.9182 22.0148 19.9184 22.0145 19.9186C21.6951 20.1658 21.283 20.2992 20.9115 20.2642L20.3926 20.1874L20.2167 21.3744L20.7634 21.455C20.7734 21.4566 20.7834 21.4579 20.7934 21.4589C21.5139 21.5285 22.2077 21.2873 22.7489 20.8682L22.7494 20.8678C22.8164 20.8162 22.8831 20.76 22.9491 20.699L22.1341 19.8182Z" fill="#663AE7"/>
</svg>
