<svg width="25" height="26" viewBox="0 0 25 26" fill="none" xmlns="http://www.w3.org/2000/svg">
<path d="M5.20833 13.6401V23.0151H3.125V13.6401H5.20833ZM23.9583 13.6401V15.7234H21.875V23.0151H19.7917V15.7234H17.7083V13.6401H23.9583ZM12.5 11.5567C13.9595 11.5645 15.388 11.979 16.625 12.7536L18.1323 11.2432C16.478 10.0952 14.5135 9.47795 12.5 9.47339C10.5132 9.47729 8.57506 10.0879 6.94479 11.2234L8.45417 12.7369C9.66605 11.9733 11.0676 11.5644 12.5 11.5567Z" fill="#663AE7"/>
<path d="M12.5 7.3901C15.0649 7.39542 17.5604 8.22431 19.6187 9.75468L21.1052 8.2651C18.6447 6.35114 15.6172 5.31035 12.5 5.30676C9.40974 5.31069 6.40907 6.34512 3.9729 8.24635L5.45832 9.73593C7.49264 8.21793 9.96172 7.39539 12.5 7.3901Z" fill="#663AE7"/>
<path d="M12.5 3.22333C16.1699 3.22389 19.7296 4.477 22.5906 6.77541L24.0771 5.28687C20.829 2.60913 16.7513 1.14325 12.5417 1.14002C8.33213 1.13679 4.25223 2.59641 1 5.26916L2.48646 6.7577C5.3233 4.47162 8.85667 3.22449 12.5 3.22333ZM12.5 13.64C11.5729 13.64 10.6666 13.9149 9.89577 14.43C9.12491 14.9451 8.5241 15.6771 8.16932 16.5337C7.81453 17.3902 7.7217 18.3327 7.90257 19.242C8.08344 20.1513 8.52988 20.9865 9.18544 21.6421C9.841 22.2976 10.6762 22.7441 11.5855 22.9249C12.4948 23.1058 13.4373 23.013 14.2938 22.6582C15.1504 22.3034 15.8824 21.7026 16.3975 20.9317C16.9126 20.1609 17.1875 19.2546 17.1875 18.3275C17.1875 17.0843 16.6936 15.892 15.8146 15.0129C14.9355 14.1339 13.7432 13.64 12.5 13.64ZM12.5 20.9317C11.9849 20.9317 11.4815 20.7789 11.0532 20.4928C10.625 20.2066 10.2912 19.7999 10.0941 19.3241C9.89696 18.8482 9.84539 18.3246 9.94587 17.8195C10.0464 17.3143 10.2944 16.8503 10.6586 16.4861C11.0228 16.1219 11.4868 15.8739 11.992 15.7734C12.4971 15.6729 13.0207 15.7245 13.4966 15.9216C13.9724 16.1187 14.3791 16.4524 14.6653 16.8807C14.9514 17.309 15.1042 17.8124 15.1042 18.3275C15.1042 19.0182 14.8298 19.6805 14.3414 20.1689C13.853 20.6573 13.1907 20.9317 12.5 20.9317Z" fill="#663AE7"/>
</svg>
