<svg width="24" height="17" viewBox="0 0 24 17" fill="none" xmlns="http://www.w3.org/2000/svg">
<path fill-rule="evenodd" clip-rule="evenodd" d="M16.7571 1.80167C18.0976 2.90328 19.0141 4.43614 19.35 6.13842C21.95 6.31842 24 8.45842 24 11.0984C24 13.8584 21.76 16.0984 19 16.0984H6C2.69 16.0984 0 13.4084 0 10.0984C-0.000171702 8.6201 0.545971 7.19386 1.53349 6.09374C2.52101 4.99363 3.88023 4.29725 5.35 4.13842C6.6 1.73842 9.11 0.0984222 12 0.0984222C13.7351 0.0980298 15.4165 0.700055 16.7571 1.80167ZM7.336 13.2363C7.656 13.3857 8.02133 13.4603 8.432 13.4603C8.84267 13.4603 9.20267 13.3883 9.512 13.2443C9.82133 13.095 10.0613 12.8897 10.232 12.6283C10.4027 12.3617 10.488 12.0497 10.488 11.6923V11.5963C10.488 11.2603 10.408 10.983 10.248 10.7643C10.0933 10.5457 9.89067 10.383 9.64 10.2763C9.38933 10.1697 9.12267 10.1163 8.84 10.1163H8.496V10.0043L10.376 8.88433V7.74833H6.456V8.50033H9.464V8.61233L7.496 9.77233V10.7403H8.512C8.72533 10.7403 8.91733 10.7723 9.088 10.8363C9.25867 10.895 9.39467 10.9883 9.496 11.1163C9.59733 11.2443 9.648 11.4123 9.648 11.6203V11.6923C9.648 11.9857 9.54133 12.2283 9.328 12.4203C9.11467 12.6123 8.816 12.7083 8.432 12.7083C8.048 12.7083 7.73867 12.607 7.504 12.4043C7.27467 12.1963 7.16 11.9163 7.16 11.5643V11.4363H6.32V11.5803C6.32 11.9697 6.408 12.3057 6.584 12.5883C6.76533 12.871 7.016 13.087 7.336 13.2363ZM11.4836 13.2763C11.6116 13.399 11.7689 13.4603 11.9556 13.4603C12.1422 13.4603 12.2969 13.399 12.4196 13.2763C12.5476 13.1537 12.6116 12.9963 12.6116 12.8043C12.6116 12.6177 12.5476 12.463 12.4196 12.3403C12.2969 12.2177 12.1422 12.1563 11.9556 12.1563C11.7689 12.1563 11.6116 12.2177 11.4836 12.3403C11.3609 12.4577 11.2996 12.6123 11.2996 12.8043C11.2996 12.9963 11.3609 13.1537 11.4836 13.2763ZM13.9691 12.9083C14.3585 13.2763 14.8785 13.4603 15.5291 13.4603C16.1851 13.4603 16.7051 13.2763 17.0891 12.9083C17.4785 12.535 17.6731 11.975 17.6731 11.2283V9.86833C17.6731 9.13767 17.4785 8.583 17.0891 8.20433C16.7051 7.82567 16.1851 7.63633 15.5291 7.63633C14.8785 7.63633 14.3585 7.82567 13.9691 8.20433C13.5851 8.583 13.3931 9.13767 13.3931 9.86833V11.2283C13.3931 11.975 13.5851 12.535 13.9691 12.9083ZM16.5131 12.3323C16.2998 12.583 15.9718 12.7083 15.5291 12.7083C15.0971 12.7083 14.7718 12.5857 14.5531 12.3403C14.3398 12.0897 14.2331 11.7297 14.2331 11.2603V9.82033C14.2331 9.37233 14.3451 9.023 14.5691 8.77233C14.7931 8.51633 15.1131 8.38833 15.5291 8.38833C15.9398 8.38833 16.2598 8.51367 16.4891 8.76433C16.7185 9.00967 16.8331 9.36167 16.8331 9.82033V11.2603C16.8331 11.719 16.7265 12.0763 16.5131 12.3323Z" fill="#663AE7"/>
</svg>
