<svg width="88" height="52" viewBox="0 0 88 52" fill="none" xmlns="http://www.w3.org/2000/svg">
<g clip-path="url(#clip0_310_519)">
<path d="M58.7175 12.0806C57.3761 12.4598 56.0853 12.9403 54.8958 13.5471C53.8834 12.6116 52.5167 12.03 50.9982 12.03H31.7126L31.6873 12.0553C31.1811 12.0553 30.7002 11.853 30.3459 11.4737L23.1834 4.34333H8.55467C7.49169 4.34333 6.63117 5.20302 6.63117 6.265V17.8203C6.63117 18.8822 5.77066 19.7419 4.70768 19.7419C3.64469 19.7419 2.78418 18.8822 2.78418 17.8203V6.265C2.78418 3.07908 5.36572 0.5 8.55467 0.5H23.9933C24.4994 0.5 24.9803 0.702281 25.36 1.05627L32.4971 8.18666H50.9728C54.1365 8.18666 56.9711 9.72905 58.7175 12.0806Z" fill="black"/>
<path d="M50.593 46.4175C50.0362 46.6198 49.4288 46.721 48.8214 46.721H14.5781C11.9206 46.721 9.61749 44.9257 8.95945 42.3466L3.92292 22.1439C3.8723 21.9921 3.84699 21.8404 3.84699 21.6887C3.84699 20.6267 4.73282 19.7418 5.7958 19.7418H47.6572C48.6948 18.3005 49.935 17.011 51.3017 15.8984H5.7958C4.6822 15.8984 3.66983 16.2019 2.78401 16.7581C1.1136 17.7695 0 19.6153 0 21.6887C0 22.1439 0.0506183 22.599 0.177164 23.0541L5.21369 43.2822C6.30198 47.5806 10.149 50.5643 14.5781 50.5643H48.8214C50.7955 50.5643 52.6178 49.9827 54.1616 48.946C52.8709 48.2381 51.6813 47.4036 50.593 46.4175Z" fill="black"/>
<path d="M67.93 11.3979C66.1077 11.3979 64.3614 11.6508 62.691 12.0806C61.3496 12.4599 60.0588 12.9403 58.8693 13.5472C57.5785 14.2046 56.389 14.9884 55.2754 15.8987C53.9087 17.0112 52.6685 18.3008 51.6308 19.742C49.2518 23.0291 47.8345 27.1 47.8345 31.449C47.8345 37.4163 50.4413 42.7514 54.5667 46.4178C55.655 47.4039 56.8445 48.2383 58.1353 48.9463C61.0206 50.5645 64.3867 51.5001 67.93 51.5001C78.9901 51.5001 88.0001 42.5239 88.0001 31.449C88.0001 20.3742 78.9901 11.3979 67.93 11.3979ZM67.93 47.6567C65.4497 47.6567 63.0706 47.1005 60.9699 46.0385C59.8057 45.5328 58.6921 44.8248 57.705 43.9904C54.0352 41.0573 51.7068 36.5313 51.7068 31.449C51.7068 26.8218 53.6556 22.6751 56.7686 19.742C57.9328 18.6295 59.2236 17.6939 60.6662 17.0112C61.4002 16.6067 62.1848 16.3033 62.9694 16.0504H62.9947C63.4502 15.8987 63.8805 15.7723 64.3361 15.6711C65.5003 15.393 66.6898 15.2666 67.93 15.2666C76.8641 15.2666 84.1278 22.5234 84.1278 31.449C84.1278 40.3746 76.8641 47.6567 67.93 47.6567Z" fill="black"/>
<path d="M75.8515 35.6464H67.9045C66.8415 35.6464 65.981 34.7867 65.981 33.7247V24.6726C65.981 23.6107 66.8415 22.751 67.9045 22.751C68.9674 22.751 69.828 23.6107 69.828 24.6726V31.803H75.8262C76.8892 31.803 77.7497 32.6627 77.7497 33.7247C77.7497 34.7867 76.8892 35.6464 75.8262 35.6464H75.8515Z" fill="black"/>
</g>
<defs>
<clipPath id="clip0_310_519">
<rect width="88" height="51" fill="white" transform="translate(0 0.5)"/>
</clipPath>
</defs>
</svg>
