<svg width="88" height="54" viewBox="0 0 88 54" fill="none" xmlns="http://www.w3.org/2000/svg">
<g clip-path="url(#clip0_305_227)">
<path d="M0 34.1614C0.459218 33.4611 1.13427 33.3165 1.92642 33.3233C5.30627 33.3486 8.68611 33.3348 12.066 33.3325H13.0694C12.9408 32.8136 12.7938 32.3865 12.7295 31.9457C12.4609 30.1042 12.9293 28.4832 14.2587 27.1469C15.5721 25.8266 16.89 24.5109 18.208 23.1953C19.9117 21.4962 21.9277 20.9428 24.1824 21.8176C26.4418 22.6924 27.5416 24.4696 27.6564 26.8713C27.661 26.9815 27.6794 27.0895 27.6955 27.2594C29.3165 27.2456 30.7493 27.7117 31.9042 28.8666C33.0568 30.0216 33.516 31.4589 33.5252 33.0455C37.5066 33.5897 39.1667 35.2475 39.3826 38.9028C39.8716 38.9671 40.3768 39.0039 40.8704 39.1072C43.4076 39.6376 45.194 41.7913 45.1848 44.3744C45.1848 44.9668 45.3134 45.4031 45.7703 45.7911C46.2915 46.2366 46.7369 46.7693 47.2444 47.2331C48.4636 48.3513 50.1535 48.3306 51.2602 47.2055C52.367 46.0827 52.3807 44.3675 51.2304 43.1919C49.1846 41.1048 47.1043 39.0544 45.0424 36.9856C44.822 36.7629 44.5763 36.5448 44.4248 36.2784C44.1033 35.7159 44.1814 35.1602 44.6567 34.7148C45.1297 34.2716 45.683 34.2188 46.2295 34.5839C46.4637 34.74 46.6589 34.9605 46.8609 35.1625C49.2741 37.5711 51.6827 39.982 54.0936 42.3906C54.9638 43.2608 55.9948 43.5455 57.1612 43.146C58.2679 42.7695 58.8833 41.9452 59.0279 40.7948C59.1519 39.8167 58.7753 39.0154 58.0842 38.3265C55.6687 35.9225 53.2601 33.5093 50.8538 31.0961C50.6311 30.8734 50.39 30.6553 50.2316 30.3889C49.8964 29.8264 49.9859 29.273 50.4566 28.8276C50.9296 28.3799 51.4853 28.3385 52.0294 28.6921C52.2889 28.8597 52.5047 29.1031 52.7274 29.3258C55.9902 32.584 59.2369 35.8605 62.5272 39.0911C63.0139 39.5687 63.6752 39.9843 64.3273 40.1519C65.5396 40.4665 66.7244 39.8396 67.3099 38.7903C67.9253 37.6905 67.7875 36.4116 66.8874 35.4541C66.0448 34.5563 65.1562 33.7022 64.286 32.832C62.4032 30.9469 60.5112 29.071 58.6422 27.1744C58.0176 26.5407 58.0039 25.8036 58.5366 25.2664C59.0647 24.7314 59.7948 24.7566 60.4469 25.3421C60.6168 25.496 60.7729 25.6636 60.936 25.8266C63.1035 27.9941 65.2365 30.1961 67.4615 32.3016C67.9987 32.8113 68.8139 33.181 69.5509 33.2912C70.7334 33.4657 71.6541 32.8297 72.1822 31.7551C72.7287 30.6438 72.5863 29.5577 71.762 28.6416C70.9584 27.7484 70.0698 26.931 69.2295 26.0723C68.5039 25.3306 68.4327 24.6257 69.0021 24.0402C69.5509 23.4777 70.3247 23.5443 71.0365 24.2331C71.5095 24.69 71.948 25.186 72.4394 25.6245C74.0375 27.0504 75.22 28.6761 75.0707 31.0433C75.4565 31.0433 75.7664 31.0433 76.0741 31.0433C79.5389 31.0433 83.006 31.0387 86.4708 31.0479C87.5109 31.0502 88.1676 31.7161 87.9633 32.5587C87.7589 33.4083 87.1183 33.6264 86.3261 33.6241C83.6053 33.6149 80.8844 33.6218 78.1635 33.6218C77.5895 33.6218 77.0155 33.6517 76.4461 33.6149C75.1166 33.53 73.9571 33.6264 72.9147 34.7492C72.2718 35.4403 71.1352 35.6722 70.1869 36.1246C71.1811 41.4194 65.6269 44.5397 61.5215 41.7638C61.0209 43.4078 60.0612 44.6683 58.4929 45.4077C57.3013 45.9679 56.0637 45.9978 54.7205 45.7314C54.1969 48.2479 52.8331 50.0297 50.1742 50.5417C47.5084 51.0561 45.7244 49.5705 44.0918 47.7175C43.8025 48.0252 43.5844 48.2939 43.3295 48.5212C42.7188 49.0653 42.0024 49.0608 41.4881 48.5304C40.9944 48.0206 40.9875 47.3479 41.4835 46.7463C41.6465 46.5488 41.8486 46.3789 42.0047 46.1769C42.9025 45.0242 42.8152 43.4399 41.8026 42.4136C40.7671 41.362 39.0864 41.2127 37.9888 42.2276C36.4137 43.6856 34.8937 45.2102 33.4334 46.7807C32.4759 47.8094 32.5838 49.4442 33.5183 50.4728C34.4574 51.5038 36.0142 51.6967 37.1967 50.9229C37.339 50.8287 37.4676 50.7116 37.6077 50.6106C38.2621 50.1353 39.0014 50.1744 39.4583 50.7048C39.9336 51.2581 39.8372 52.0342 39.2241 52.6105C37.0451 54.6563 33.3324 54.3532 31.4105 51.9768C30.5265 50.8838 30.1683 49.6164 30.2074 48.1446C28.5565 48.1791 27.1191 47.7221 25.9619 46.5718C24.8001 45.4191 24.3064 43.9979 24.3523 42.2988C22.706 42.3171 21.2641 41.8694 20.1092 40.7168C18.9519 39.5641 18.4399 38.1474 18.5134 36.368C16.6191 36.2164 14.7891 35.9753 12.9545 35.9432C9.23258 35.8766 5.50832 35.9087 1.78406 35.934C0.996504 35.9386 0.378855 35.7526 0.00229609 35.0202V34.1614H0ZM18.123 33.9708C18.6649 33.7458 19.3262 33.6494 19.7303 33.2728C21.3605 31.7505 22.9678 30.1961 24.4671 28.5475C25.443 27.4752 25.234 25.8105 24.2031 24.8117C23.1492 23.7923 21.4639 23.6912 20.3847 24.7084C18.844 26.1595 17.3424 27.6589 15.8958 29.2042C15.0784 30.079 15.0095 31.188 15.5193 32.2534C16.0152 33.2912 16.8969 33.8239 18.123 33.9731V33.9708ZM24.2169 39.7065C24.5016 39.5894 25.195 39.4906 25.6175 39.098C27.2293 37.5987 28.8114 36.058 30.2946 34.4324C31.3003 33.3302 31.096 31.6403 30.0191 30.6323C28.9721 29.6496 27.3235 29.544 26.2673 30.5336C24.7014 31.9985 23.1813 33.5208 21.7187 35.089C20.9266 35.9363 20.8715 37.0269 21.3536 38.0648C21.8381 39.1095 22.7106 39.6537 24.2169 39.7042V39.7065ZM29.8262 45.6671C30.3704 45.4421 31.034 45.348 31.4358 44.9737C33.066 43.4514 34.6733 41.8946 36.1726 40.2461C37.1508 39.1715 36.9372 37.5114 35.8994 36.5103C34.8616 35.5092 33.213 35.3737 32.1499 36.3565C30.5748 37.8145 29.0593 39.3391 27.5921 40.905C26.777 41.7775 26.7081 42.8889 27.2225 43.9542C27.723 44.9921 28.6001 45.5271 29.8262 45.6648V45.6671Z" fill="black"/>
<path d="M61.558 14.7572C63.2341 16.431 64.7955 17.9855 66.3522 19.5422C66.5543 19.7443 66.7678 19.9372 66.9492 20.1576C67.4337 20.7477 67.4199 21.4503 66.9309 21.9417C66.4487 22.4261 65.707 22.4698 65.1514 21.9646C64.4327 21.3102 63.7577 20.6053 63.0711 19.9142C62.0241 18.858 60.984 17.7926 59.8543 16.6423C59.5053 16.9844 59.2022 17.2668 58.9129 17.5653C56.8877 19.641 54.4424 20.6926 51.5264 20.6283C50.5528 20.6076 49.5793 20.6214 48.6057 20.6214C46.5324 20.6214 44.6863 19.9372 42.8862 18.6605C41.4649 20.114 40.0804 21.5972 38.6223 23.0024C36.5053 25.0414 33.4653 25.3559 31.0292 23.8612C27.872 21.9256 27.096 17.6204 29.4288 14.7411C30.0924 13.9214 30.873 13.1913 31.6399 12.4611C32.2162 11.9146 32.9923 11.9537 33.4837 12.4749C33.9682 12.9892 33.9819 13.6688 33.4561 14.252C32.9189 14.8467 32.3219 15.3863 31.7708 15.9672C30.3059 17.5056 30.2852 19.6938 31.7111 21.1334C33.1485 22.5846 35.4009 22.5616 36.9393 21.0508C38.5328 19.4848 40.101 17.8936 41.6853 16.3185C42.5785 15.4299 43.1112 15.4093 44.0365 16.229C45.3774 17.4184 46.9296 18.0429 48.7274 18.0452C49.6734 18.0452 50.6171 18.0268 51.5631 18.0521C53.7214 18.1072 55.5239 17.3334 57.0278 15.8019C58.371 14.4334 59.7372 13.0833 61.0965 11.7309C61.9185 10.9112 62.6601 10.8125 63.2525 11.4256C63.8242 12.0157 63.7071 12.778 62.8897 13.5816C62.4833 13.9811 62.0356 14.3393 61.5557 14.7595L61.558 14.7572Z" fill="black"/>
<path d="M77.7983 8.7553C74.9924 8.7553 72.1843 8.73923 69.3785 8.76678C68.6621 8.77367 68.1294 8.54865 67.638 8.03433C66.4693 6.8151 65.2409 5.65328 64.0653 4.43865C62.8828 3.21713 61.4593 2.61326 59.7693 2.61326C55.703 2.61326 51.6366 2.61326 47.5702 2.61326C45.878 2.61326 44.4659 3.24009 43.2765 4.45013C41.3685 6.39033 39.4329 8.30068 37.5087 10.2248C37.0105 10.7231 36.4456 10.9067 35.805 10.5302C35.2701 10.2133 35.091 9.699 35.2494 9.12497C35.3275 8.84026 35.5341 8.56473 35.7476 8.34889C37.7016 6.37426 39.6625 4.40651 41.6371 2.45253C43.2627 0.845268 45.2328 0.0439319 47.5151 0.0393397C51.6389 0.0324514 55.7627 0.0278592 59.8864 0.0416358C62.2353 0.0485241 64.2284 0.91415 65.8724 2.60178C66.8321 3.5868 67.8447 4.51901 68.7746 5.52929C69.2476 6.04362 69.7505 6.19516 70.4301 6.19286C75.5848 6.16761 80.7395 6.17909 85.8943 6.17909C86.1239 6.17909 86.3535 6.1699 86.5808 6.18368C87.4487 6.23649 87.9952 6.74852 87.9906 7.49016C87.986 8.23179 87.4349 8.74841 86.5624 8.75071C83.6418 8.76449 80.7212 8.7553 77.8005 8.7553H77.7983Z" fill="black"/>
<path d="M9.27178 6.7921C11.7355 6.7921 14.1992 6.81506 16.6606 6.77143C17.0992 6.76454 17.5974 6.56479 17.9556 6.30073C18.7822 5.68768 19.5353 4.97819 20.3229 4.31232C21.751 3.10458 23.4042 2.42264 25.2687 2.39738C28.5612 2.35375 31.8561 2.37442 35.1487 2.3836C36.0878 2.3859 36.6366 2.89104 36.6343 3.68089C36.632 4.47534 36.0947 4.93456 35.1373 4.95752C34.9375 4.96211 34.7354 4.95752 34.5357 4.95752C31.6426 4.95752 28.7495 4.9713 25.8587 4.95293C24.2974 4.94145 22.9427 5.41444 21.7763 6.45917C20.9221 7.22147 20.0818 8.01591 19.1496 8.668C18.6261 9.03538 17.9258 9.33387 17.3012 9.34076C12.2039 9.39357 7.10657 9.37061 2.00695 9.37061C1.77734 9.37061 1.54544 9.3775 1.32042 9.34306C0.558116 9.22596 0.121859 8.71393 0.154004 7.99984C0.186149 7.29035 0.659144 6.82654 1.45359 6.80358C2.48454 6.77603 3.51548 6.79439 4.54643 6.7921C6.12155 6.7921 7.69666 6.7921 9.27178 6.7921Z" fill="black"/>
</g>
<defs>
<clipPath id="clip0_305_227">
<rect width="88" height="53.9352" fill="white" transform="translate(0 0.0322266)"/>
</clipPath>
</defs>
</svg>
