<svg width="88" height="82" viewBox="0 0 88 82" fill="none" xmlns="http://www.w3.org/2000/svg">
<g clip-path="url(#clip0_306_259)">
<path d="M14.7993 71.3526C14.0361 74.7823 12.5358 75.9792 9.08479 75.9792C7.66505 75.9792 6.24769 75.9958 4.82795 75.9745C2.02877 75.9318 0.0141168 73.929 0.00937645 71.144C-0.00247444 62.5119 -0.00247444 53.8797 0.00937645 45.2475C0.0117466 42.5786 1.79412 40.5995 4.4582 40.4407C6.40175 40.3246 8.36189 40.3388 10.3078 40.4407C12.4386 40.5521 13.9128 41.8297 14.5575 43.8751C14.6002 44.0102 14.6571 44.1406 14.7092 44.2828C16.648 43.7543 18.5347 43.1783 20.4522 42.7327C22.6138 42.2302 24.8062 41.9387 27.0436 42.2397C28.6625 42.4578 30.2078 42.9342 31.4261 43.9984C34.5998 46.7691 38.3826 48.5539 41.9521 50.6823C44.4123 52.1494 46.9128 53.5478 49.3897 54.9865C52.6179 56.8613 53.701 59.3216 52.881 63.0902C53.2554 63.0309 53.5849 62.9906 53.9096 62.9243C62.5157 61.1111 71.1147 59.2505 79.7351 57.4966C83.3425 56.7618 86.9973 59.1983 87.8079 62.6683C88.6707 66.361 86.611 70.0016 82.9064 71.0255C75.4545 73.0852 67.9766 75.0525 60.5082 77.0553C55.3483 78.4395 50.16 79.7194 45.0404 81.2339C42.2934 82.0469 39.698 81.8881 37.1999 80.7053C34.2158 79.2927 31.3147 77.7023 28.4065 76.1333C25.4461 74.5358 22.5474 72.8079 19.2932 71.8409C17.8426 71.4095 16.3707 71.118 14.8017 71.3526H14.7993ZM14.7234 68.442C17.8047 68.269 20.5944 69.0156 23.2182 70.2931C26.0292 71.6607 28.7525 73.2061 31.528 74.6495C33.8318 75.8465 36.1285 77.0576 38.475 78.1621C40.3214 79.0296 42.2578 79.2264 44.2417 78.494C45.0973 78.1787 46.0027 78.0057 46.8868 77.7687C58.5433 74.6424 70.2022 71.5256 81.8564 68.3852C84.2526 67.7405 85.5681 65.6429 85.0467 63.4338C84.5086 61.1585 82.3921 59.8288 79.946 60.3384C71.9135 62.0117 63.8833 63.7064 55.8603 65.4272C53.2957 65.9771 50.7573 66.6407 48.2022 67.2356C46.5502 67.6196 44.9669 67.4063 43.4927 66.5601C39.2927 64.1473 35.0999 61.725 30.9118 59.2955C29.9969 58.7646 29.7385 57.9824 30.1841 57.2311C30.6202 56.4987 31.4403 56.3399 32.3434 56.8519C33.9361 57.7549 35.5147 58.6816 37.1003 59.5965C39.6838 61.0874 42.2507 62.6067 44.8532 64.0619C47.1665 65.3537 49.8282 64.0928 50.3164 61.5282C50.6056 60.0137 49.8519 58.5394 48.2947 57.6364C43.5685 54.8988 38.8234 52.1897 34.1139 49.4237C32.9738 48.7553 31.8598 47.9992 30.8738 47.1223C28.8213 45.2949 26.4416 44.5862 23.8155 45.0863C21.0139 45.6196 18.2669 46.4349 15.4866 47.0938C14.8301 47.2503 14.7069 47.6082 14.7069 48.2244C14.7282 54.6689 14.7187 61.1134 14.7187 67.5556V68.442H14.7234ZM2.84174 58.1412C2.84174 62.3981 2.837 66.6549 2.84174 70.9118C2.84174 72.4239 3.55042 73.1279 5.07208 73.1374C6.57951 73.1468 8.08695 73.1468 9.59438 73.1374C11.1634 73.1303 11.8745 72.4263 11.8769 70.8644C11.8816 62.4099 11.8816 53.9555 11.8769 45.5011C11.8769 43.9368 11.18 43.247 9.59438 43.2304C8.11539 43.2162 6.63877 43.2186 5.15978 43.2304C3.5125 43.2423 2.84174 43.9154 2.84174 45.5485C2.837 49.7461 2.84174 53.9437 2.84174 58.1412Z" fill="white"/>
<path d="M50.3829 7.51637C52.2435 6.74606 53.8458 6.08478 55.5239 5.39031C55.5239 4.68637 55.5096 3.91843 55.5262 3.15287C55.557 1.75446 56.3534 0.787427 57.7163 0.564631C60.2144 0.15696 62.7221 0.15933 65.2203 0.564631C66.5405 0.777947 67.3629 1.74024 67.4127 3.06991C67.4411 3.86392 67.4174 4.6603 67.4174 5.39268C69.0931 6.08952 70.693 6.75554 72.537 7.52111C72.9328 7.07314 73.4021 6.46401 73.9496 5.93309C75.0541 4.86176 76.3885 4.71007 77.531 5.74347C79.2778 7.32438 80.9535 8.99536 82.532 10.7422C83.5891 11.913 83.4138 13.2403 82.2974 14.3875C81.802 14.8947 81.2687 15.3617 80.8137 15.793C81.4607 17.4356 82.0485 18.9691 82.6814 20.486C82.7525 20.659 83.0606 20.8131 83.2715 20.8297C83.8593 20.8771 84.4543 20.8297 85.0444 20.851C86.5471 20.9031 87.6374 21.6877 87.718 23.1572C87.8531 25.5961 87.8531 28.0516 87.7133 30.4905C87.6279 31.9695 86.5542 32.7114 85.0255 32.7588C84.2931 32.7825 83.3948 32.5739 82.8757 32.9223C82.3993 33.2399 82.3543 34.1761 82.0817 34.8256C81.7736 35.5603 81.4678 36.2998 81.0791 36.9919C80.8018 37.4849 80.79 37.8167 81.245 38.1983C81.6977 38.5752 82.103 39.0113 82.4941 39.4545C83.3687 40.4429 83.4659 41.6398 82.6956 42.7064C81.2142 44.759 79.4342 46.5271 77.3982 48.0275C76.3198 48.8215 74.9167 48.8381 74.1037 47.8023C72.8712 46.2285 71.6529 46.046 70.0744 47.1837C69.6572 47.4847 69.1074 47.6696 68.593 47.7478C67.543 47.9066 67.2681 48.4849 67.4008 49.4543C67.4696 49.9449 67.4435 50.464 67.37 50.957C67.2041 52.0852 66.3414 53.0309 65.18 53.0712C62.7079 53.1589 60.2287 53.1707 57.7589 53.0712C56.4174 53.0167 55.3864 51.8837 55.557 50.547C55.8012 48.6437 55.1399 47.6909 53.2722 47.3448C52.5137 47.205 51.8382 46.6622 51.094 46.3849C50.8428 46.2925 50.4209 46.3517 50.2099 46.5153C49.7217 46.8898 49.3282 47.3851 48.8708 47.8047C47.8824 48.7077 46.6191 48.8238 45.5454 48.0417C43.5023 46.5508 41.7247 44.7779 40.2362 42.7325C39.4422 41.6398 39.4256 40.2675 40.4851 39.445C42.0897 38.2007 42.1987 36.9658 41.08 35.4086C40.8477 35.0839 40.7648 34.6478 40.6225 34.2615C40.2591 33.2644 39.5299 32.7643 38.4349 32.7611C36.1263 32.7588 35.2493 32.0762 35.1214 29.8008C35.0005 27.6558 35.0526 25.4942 35.1593 23.3468C35.2375 21.8038 36.3159 20.7514 37.8637 20.9102C39.6579 21.0951 40.5657 20.5144 40.8904 18.7463C41.0255 18.0139 41.4616 17.3265 41.8337 16.6558C42.1039 16.1675 42.1205 15.8215 41.6631 15.4399C41.2127 15.0606 40.8074 14.6245 40.4163 14.1813C39.5678 13.2238 39.4469 12.0292 40.1746 11.0029C41.6749 8.89107 43.4952 7.07551 45.5976 5.56334C46.6357 4.81673 47.8231 4.89495 48.7736 5.76006C49.3804 6.31468 49.8899 6.97833 50.3758 7.51637H50.3829ZM37.9111 29.9406C39.0416 29.9406 39.985 29.9288 40.9283 29.943C42.0281 29.9596 42.348 30.2985 42.7225 31.2916C43.4407 33.1878 44.2134 35.065 45.0477 36.9113C45.4956 37.9021 45.5288 38.3524 44.7467 39.1251C44.0569 39.8077 43.3317 40.4524 42.476 41.2487C44.0569 42.8225 45.5027 44.2589 47.0054 45.7545C47.8279 44.9036 48.4749 44.2162 49.1457 43.5478C49.9208 42.7751 50.4019 42.787 51.3595 43.2207C53.2082 44.055 55.0806 44.8396 56.9768 45.5601C58.0149 45.9536 58.3467 46.2688 58.3539 47.416C58.361 48.3569 58.3539 49.3002 58.3539 50.3384H64.5779C64.5779 49.2268 64.5708 48.2811 64.5779 47.3377C64.5874 46.2593 64.9192 45.9512 65.9337 45.5648C67.8298 44.8443 69.7046 44.0622 71.551 43.2279C72.5133 42.7941 73.0016 42.7728 73.7648 43.5455C74.445 44.2352 75.0921 44.9628 75.879 45.8042C77.4456 44.2328 78.8891 42.7846 80.4131 41.2559C79.5835 40.4666 78.9104 39.848 78.261 39.2033C77.3698 38.3216 77.4101 37.9163 77.9386 36.781C78.7587 35.0223 79.5053 33.2257 80.169 31.403C80.5885 30.2488 80.8611 29.9288 82.1244 29.9217C83.0582 29.9146 83.9944 29.9217 85.0018 29.9217V23.6834C83.8712 23.6834 82.8994 23.6928 81.9277 23.681C80.8966 23.6691 80.5577 23.3136 80.2022 22.3726C79.484 20.4765 78.7161 18.597 77.8818 16.7506C77.4291 15.748 77.3864 15.3095 78.1614 14.5392C78.8654 13.8376 79.6073 13.1764 80.4487 12.3871C78.8583 10.8014 77.4243 9.36984 75.9121 7.86241C75.1063 8.70619 74.445 9.42199 73.7553 10.1117C72.9968 10.8678 72.5157 10.8417 71.5368 10.3961C69.7165 9.56894 67.8701 8.79152 65.9977 8.09469C64.8861 7.68228 64.5851 7.41919 64.5803 6.19381C64.5756 5.25521 64.5803 4.31899 64.5803 3.25004H58.3562C58.3562 4.39484 58.3562 5.39268 58.3562 6.3929C58.3562 7.28409 57.9011 7.74627 57.0668 8.05914C55.1423 8.78204 53.2366 9.56657 51.3595 10.408C50.3877 10.8441 49.9208 10.8654 49.1481 10.088C48.4655 9.40066 47.8089 8.68723 46.8988 7.72731C45.3511 9.26319 43.9124 10.6877 42.3717 12.2188C43.3554 13.1692 44.0712 13.8684 44.7941 14.5582C45.4388 15.172 45.4862 15.8025 45.1117 16.6297C44.2489 18.5282 43.4573 20.4623 42.713 22.4106C42.3978 23.233 41.9688 23.7118 41.0492 23.6881C40.049 23.6644 39.0487 23.6834 37.9158 23.6834V29.9383L37.9111 29.9406Z" fill="white"/>
<path d="M75.6587 26.8828C75.6516 34.7092 69.2782 41.0399 61.4044 41.0399C53.6563 41.0399 47.2094 34.5859 47.2379 26.8591C47.2687 18.983 53.616 12.6191 61.4282 12.6333C69.3611 12.6475 75.6658 18.9617 75.6587 26.8828ZM72.8216 26.8615C72.8524 20.5331 67.7945 15.4941 61.3831 15.4657C55.2444 15.4396 50.1082 20.5616 50.0774 26.7454C50.0442 32.9813 55.1235 38.1602 61.3144 38.2004C67.6783 38.2407 72.7932 33.2017 72.824 26.8615H72.8216Z" fill="white"/>
<path d="M59.7923 28.5042C61.6292 26.3971 63.3357 24.4322 65.0494 22.4768C65.7083 21.7255 66.5023 21.588 67.1517 22.0881C67.7869 22.574 67.9126 23.4723 67.3437 24.136C65.2437 26.5796 63.1272 29.0091 60.9845 31.4172C60.3612 32.1187 59.56 32.1258 58.8727 31.4717C57.7611 30.4098 56.6732 29.3219 55.609 28.215C54.9856 27.5656 55.0093 26.7171 55.59 26.1577C56.1659 25.6031 56.9908 25.615 57.6473 26.2573C58.3631 26.9565 59.0315 27.7078 59.7899 28.5066L59.7923 28.5042Z" fill="white"/>
</g>
<defs>
<clipPath id="clip0_306_259">
<rect width="88" height="81.4773" fill="white" transform="translate(0 0.26123)"/>
</clipPath>
</defs>
</svg>
