<svg width="100" height="100" viewBox="0 0 100 100" fill="none" xmlns="http://www.w3.org/2000/svg">
<path d="M29.0447 67.6186C14.3955 67.6186 11 57.9767 11 44.5149C11 31.0531 14.4685 21.3389 29.0447 21.3389C43.6208 21.3389 47.1589 30.9772 47.1589 44.5908C47.1589 58.2044 43.6903 67.6222 29.0447 67.6222V67.6186ZM29.0447 27.8114C22.0149 27.8114 18.5001 33.3792 18.5001 44.5149C18.5001 54.6664 20.1301 61.2184 29.0447 61.2184C36.1671 61.2184 39.7283 55.6758 39.7283 44.5908C39.7283 34.3634 38.1018 27.815 29.0447 27.815V27.8114Z" fill="#4A9CD6"/>
<path d="M72.5493 67.6224C58.1091 67.6224 54.3906 58.6692 54.3906 48.9743V17C61.6842 17 61.7558 17 61.7558 23.3651V35.2046C63.2855 32.7618 66.8606 30.2463 73.9321 30.2463C85.7501 30.2463 89.1031 38.9778 89.1031 48.9707C89.1031 58.9636 84.8724 67.6188 72.5493 67.6188V67.6224ZM71.6 36.615C61.7558 36.615 61.6842 36.615 61.6842 48.9743C61.6842 56.5208 63.4324 61.4791 71.7469 61.4791C78.2619 61.4791 81.5194 57.3108 81.5194 48.9743C81.5194 41.646 79.7677 36.615 71.6 36.615Z" fill="black"/>
<path d="M22.5749 71.965C27.1637 73.3653 31.6227 74.5482 36.1069 75.439C38.3454 75.8808 40.5803 76.2514 42.8152 76.5221C45.0501 76.7965 47.2814 76.9889 49.5127 77.0317C53.9717 77.1599 58.4163 76.8357 62.8284 75.9663C63.1023 75.9129 63.3835 75.8701 63.6575 75.806L64.4793 75.6171C65.0272 75.4853 65.586 75.3748 66.1339 75.2323C67.2225 74.9223 68.3436 74.6658 69.4286 74.2917C71.6527 73.6539 73.801 72.7738 76.0864 71.965C74.4247 73.6824 72.5646 75.2501 70.4992 76.5293C69.4862 77.2098 68.4012 77.7621 67.3162 78.3322C66.7719 78.6208 66.2024 78.8381 65.64 79.0911L64.7929 79.4581C64.5118 79.5828 64.2162 79.6683 63.9278 79.7752C59.2994 81.4784 54.2961 82.2195 49.3613 82.0663C48.7449 82.0342 48.1285 82.0235 47.5121 81.9701C46.8993 81.9166 46.2829 81.8703 45.6701 81.8062C44.4517 81.6351 43.2297 81.4819 42.033 81.2254C39.6287 80.7444 37.2712 80.0816 34.993 79.2301C32.7149 78.3785 30.5124 77.363 28.4181 76.1658C27.3727 75.5637 26.349 74.9295 25.3721 74.2275C24.3917 73.5363 23.44 72.7916 22.5713 71.9614L22.5749 71.965Z" fill="#4A9CD6"/>
</svg>
