<svg width="16" height="16" viewBox="0 0 16 16" fill="none" xmlns="http://www.w3.org/2000/svg">
<path d="M7.51825 2.67377L7.51755 2.67518L6.34541 5.01946C6.19799 5.31875 5.95813 5.56449 5.72036 5.73993C5.4813 5.91633 5.17638 6.07184 4.85003 6.12623L4.84965 6.12629L2.72336 6.47956C2.72323 6.47958 2.72311 6.4796 2.72298 6.47962C2.17267 6.57143 2.09042 6.77065 2.08658 6.78261C2.08328 6.79288 2.03238 7.00079 2.42858 7.39429L2.43039 7.3961L4.08372 9.04943C4.33612 9.30183 4.4976 9.63044 4.58527 9.93669C4.67303 10.2433 4.7092 10.6056 4.6319 10.9505L4.63192 10.9505L4.63077 10.9554L4.15757 13.0015C4.15754 13.0017 4.15751 13.0018 4.15748 13.0019C4.15746 13.002 4.15745 13.002 4.15744 13.0021C4.07905 13.3425 4.07901 13.5765 4.10517 13.718C4.12098 13.8036 4.14246 13.8398 4.15148 13.8516C4.16545 13.8567 4.20722 13.8664 4.29531 13.8553C4.4393 13.8371 4.66328 13.7657 4.96467 13.5877C4.96468 13.5877 4.96469 13.5877 4.9647 13.5877C4.96489 13.5876 4.96509 13.5875 4.96528 13.5873L6.95771 12.4079C6.95781 12.4078 6.95791 12.4078 6.958 12.4077C7.28189 12.2159 7.66103 12.1431 7.99756 12.1431C8.33488 12.1431 8.71294 12.2162 9.03723 12.4048L9.03724 12.4048L9.04212 12.4077L11.0354 13.5877L11.0362 13.5881C11.3353 13.7656 11.5578 13.8363 11.7007 13.8542C11.7914 13.8655 11.8331 13.8545 11.8461 13.8494C11.8548 13.8387 11.8777 13.8026 11.8943 13.7137C11.9206 13.5729 11.9209 13.3402 11.8427 13.0022L11.8427 13.0021L11.3693 10.9554L11.3693 10.9554L11.3682 10.9505C11.2909 10.6056 11.3271 10.2433 11.4149 9.93669C11.5025 9.63044 11.664 9.30183 11.9164 9.04944L12.3664 9.49941L11.9164 9.04943L13.5697 7.3961C13.9634 7.00244 13.9145 6.7933 13.9106 6.78124C13.907 6.7699 13.8267 6.5713 13.2771 6.47962C13.277 6.4796 13.2769 6.47958 13.2768 6.47956L11.1505 6.12629L11.1505 6.1263L11.1478 6.12585C10.8241 6.07087 10.5211 5.91452 10.2842 5.73889C10.0482 5.56393 9.80871 5.31854 9.6614 5.0195L8.48994 2.67658C8.48984 2.67638 8.48975 2.67619 8.48965 2.676C8.22398 2.14774 8.00396 2.13477 8.00089 2.13477C7.99918 2.13477 7.78071 2.14608 7.51825 2.67377ZM4.15573 13.8562C4.1558 13.8561 4.15503 13.8552 4.1532 13.8537C4.15475 13.8555 4.15565 13.8563 4.15573 13.8562ZM4.14886 13.8505C4.14699 13.8493 4.14593 13.8489 4.14587 13.849C4.14581 13.849 4.14674 13.8496 4.14886 13.8505ZM11.8507 13.8471C11.8506 13.847 11.8496 13.8475 11.8478 13.8487C11.8499 13.8478 11.8508 13.8472 11.8507 13.8471ZM11.8448 13.8509C11.8431 13.8523 11.8424 13.8531 11.8424 13.8532C11.8425 13.8532 11.8433 13.8526 11.8448 13.8509Z" fill="#E8E8E8" stroke="#E8E8E8" stroke-width="1.5" stroke-linecap="round" stroke-linejoin="round"/>
</svg>
