<svg width="65" height="64" viewBox="0 0 65 64" fill="none" xmlns="http://www.w3.org/2000/svg">
<path d="M51.9668 23.7334L60.5002 32.2667L56.7668 36L48.2335 27.4667C47.3002 28 46.3002 28.4445 45.2335 28.8C44.1668 29.1556 43.0335 29.3334 41.8335 29.3334C38.5002 29.3334 35.6673 28.1663 33.3348 25.832C31.0024 23.4978 29.8353 20.6649 29.8335 17.3334C29.8335 14 31.0006 11.1663 33.3348 8.83204C35.6691 6.49782 38.5019 5.3316 41.8335 5.33338C45.1668 5.33338 48.0006 6.50049 50.3348 8.83471C52.6691 11.1689 53.8353 14.0018 53.8335 17.3334C53.8335 18.5334 53.6557 19.6667 53.3002 20.7334C52.9446 21.8 52.5002 22.8 51.9668 23.7334ZM41.8335 24C43.7002 24 45.2779 23.3556 46.5668 22.0667C47.8557 20.7778 48.5002 19.2 48.5002 17.3334C48.5002 15.4667 47.8557 13.8889 46.5668 12.6C45.2779 11.3112 43.7002 10.6667 41.8335 10.6667C39.9668 10.6667 38.3891 11.3112 37.1002 12.6C35.8113 13.8889 35.1668 15.4667 35.1668 17.3334C35.1668 19.2 35.8113 20.7778 37.1002 22.0667C38.3891 23.3556 39.9668 24 41.8335 24ZM47.0335 33.8667L53.8335 40.6667V53.3334C53.8335 54.8 53.3108 56.056 52.2655 57.1014C51.2202 58.1467 49.9651 58.6685 48.5002 58.6667H11.1668C9.70017 58.6667 8.44417 58.144 7.39883 57.0987C6.3535 56.0534 5.83172 54.7983 5.8335 53.3334V16C5.8335 14.5334 6.35617 13.2774 7.4015 12.232C8.44683 11.1867 9.70195 10.6649 11.1668 10.6667H25.8335C25.3446 11.7778 25.0113 12.9227 24.8335 14.1014C24.6557 15.28 24.5668 16.4463 24.5668 17.6C24.5668 22.4445 26.2779 26.4889 29.7002 29.7334C33.1224 32.9778 37.1891 34.6 41.9002 34.6C42.7446 34.6 43.5891 34.544 44.4335 34.432C45.2779 34.32 46.1446 34.1316 47.0335 33.8667Z" fill="#444BD3"/>
</svg>
