<svg width="77" height="63" viewBox="0 0 77 63" fill="none" xmlns="http://www.w3.org/2000/svg">
<g clip-path="url(#clip0_258_8120)">
<path d="M0 2.80814C0.471887 2.1107 0.859438 1.32761 1.43775 0.73621C2.05622 0.101989 2.94378 0.0244956 3.82329 0.0244956C12.9157 0.0367313 22.008 0.0306135 31.1024 0.0306135C45.0542 0.0306135 59.008 0.0673208 72.9598 -0.00201529C75.6225 -0.0142511 77.01 1.84967 77.002 4.08881C76.9458 18.5903 76.9719 33.0937 76.9719 47.5972C76.9719 50.3441 75.6667 51.6819 72.9819 51.6819C50.1627 51.6819 27.3434 51.6636 4.52209 51.7125C2.33534 51.7166 0.787149 51.0599 0.00200803 48.9228V2.80814H0ZM4.12851 4.21321V43.2005H72.8454V4.21321H4.12851ZM37.5361 45.8985C36.7108 45.9087 36.0301 46.6163 36.0321 47.4647C36.0321 48.3191 36.7068 49.0186 37.5382 49.0288C38.3896 49.039 39.1084 48.2947 39.0884 47.4259C39.0703 46.5918 38.3554 45.8883 37.5361 45.8985Z" fill="#444BD3"/>
<path d="M46.4177 53.4092C47.1667 55.4098 48.2731 57.2064 49.749 58.7705C50.1024 59.1458 50.4598 59.3374 50.9859 59.3069C51.759 59.262 52.5401 59.2702 53.3152 59.3069C54.741 59.3762 55.9257 60.6222 55.9638 62.0314C55.9799 62.6554 55.7229 62.9959 55.0863 62.9959C54.9116 62.9959 54.7349 62.9959 54.5602 62.9959C43.8393 62.9959 33.1185 62.9959 22.3956 62.9959C21.0381 62.9959 20.7028 62.4963 21.1847 61.1912C21.5964 60.0716 22.5843 59.3374 23.761 59.2987C24.3373 59.2803 24.9217 59.2253 25.4879 59.3069C26.4498 59.4435 27.0723 59.0193 27.6626 58.3076C28.7871 56.9535 29.7128 55.4934 30.3936 53.8619C30.4839 53.6437 30.7831 53.3705 30.9879 53.3705C36.0723 53.346 41.1586 53.3542 46.243 53.3603C46.2911 53.3603 46.3393 53.3847 46.4197 53.4072L46.4177 53.4092Z" fill="#444BD3"/>
<path d="M38.4901 37.6821C34.209 37.5169 30.3737 36.0812 26.7712 33.9053C23.1467 31.7171 20.0002 28.9376 17.1608 25.7889C16.0925 24.6041 15.9801 22.9706 16.9901 21.8367C20.9419 17.3931 25.4319 13.6653 30.964 11.4037C36.9761 8.9443 42.8154 9.54793 48.4901 12.5437C52.8777 14.8583 56.6006 18.0334 59.9038 21.7368C60.8757 22.8258 60.9761 24.4409 60.0162 25.5136C55.3516 30.7199 50.0885 35.0636 43.215 36.8969C41.6789 37.3068 40.0684 37.4292 38.4921 37.6841L38.4901 37.6821ZM38.5102 12.8373C32.5825 12.821 27.8074 17.6419 27.7913 23.6599C27.7732 29.686 32.5182 34.5558 38.4239 34.5742C44.3596 34.5946 49.1508 29.79 49.1809 23.7843C49.213 17.7153 44.472 12.8516 38.5102 12.8353V12.8373Z" fill="#444BD3"/>
<path d="M40.3374 17.9968C38.8474 19.512 38.6988 21.121 39.8916 22.3099C41.0743 23.4907 42.6004 23.3337 44.0322 21.8858C45.0301 23.6436 44.2069 26.7087 42.2952 28.3422C40.1506 30.1735 36.9237 30.202 34.749 28.4095C32.5 26.5557 31.8795 23.3337 33.2771 20.7703C34.6506 18.2497 37.6225 17.0669 40.3374 17.9968Z" fill="#444BD3"/>
</g>
<defs>
<clipPath id="clip0_258_8120">
<rect width="77" height="63" fill="white"/>
</clipPath>
</defs>
</svg>
