<svg width="65" height="64" viewBox="0 0 65 64" fill="none" xmlns="http://www.w3.org/2000/svg">
<g clip-path="url(#clip0_258_8114)">
<path d="M15.7568 63.9754V45.2615H53.2749V63.9754H15.7568Z" fill="#444BD3"/>
<path d="M0.5 12.9659C1.11586 12.3911 1.73993 11.8245 2.34758 11.2333C2.60213 10.9869 2.81563 10.7077 3.11945 10.3546C3.75173 11.0198 4.31011 11.611 4.8767 12.2022C4.91776 12.1776 4.96703 12.1529 5.00808 12.1201V0H8.74429V12.1201C8.80177 12.1529 8.85925 12.1858 8.91673 12.2186C9.43405 11.5863 9.95958 10.9623 10.4441 10.3711C11.4787 11.4057 12.3409 12.2679 13.162 13.089C11.0928 15.1583 8.99063 17.2605 6.80639 19.4447C4.74532 17.3672 2.61855 15.224 0.5 13.089C0.5 13.048 0.5 13.0069 0.5 12.9659Z" fill="#444BD3"/>
<path d="M53.2503 0V18.681H15.8062V0H53.2503Z" fill="#444BD3"/>
<path d="M30.8086 22.6143H64.5002V41.2954H30.8086V22.6143Z" fill="#444BD3"/>
<path d="M23.2701 29.167V41.3035H19.5093V29.011C18.8605 29.7254 18.3268 30.3166 17.8259 30.8668C16.8652 29.8896 16.003 29.0274 15.1982 28.2145C17.21 26.2027 19.3286 24.0924 21.3897 22.0231C23.4179 24.0513 25.5282 26.1616 27.6139 28.2473C26.8174 29.0439 25.947 29.8978 25.0438 30.7929C24.5429 30.2509 24.0009 29.6515 23.4507 29.0603C23.3851 29.1013 23.3194 29.1342 23.2619 29.1752L23.2701 29.167Z" fill="#444BD3"/>
</g>
<defs>
<clipPath id="clip0_258_8114">
<rect width="64" height="63.9754" fill="white" transform="translate(0.5)"/>
</clipPath>
</defs>
</svg>
