<svg width="77" height="63" viewBox="0 0 77 63" fill="none" xmlns="http://www.w3.org/2000/svg">
<g clip-path="url(#clip0_258_8120)">
<path d="M0 2.8082C0.471887 2.11076 0.859438 1.32767 1.43775 0.736271C2.05622 0.10205 2.94378 0.0245566 3.82329 0.0245566C12.9157 0.0367924 22.008 0.0306745 31.1024 0.0306745C45.0542 0.0306745 59.008 0.0673818 72.9598 -0.00195426C75.6225 -0.01419 77.01 1.84973 77.002 4.08888C76.9458 18.5903 76.9719 33.0938 76.9719 47.5973C76.9719 50.3442 75.6667 51.682 72.9819 51.682C50.1627 51.682 27.3434 51.6636 4.52209 51.7126C2.33534 51.7167 0.787149 51.06 0.00200803 48.9228V2.8082H0ZM4.12851 4.21327V43.2006H72.8454V4.21327H4.12851ZM37.5361 45.8985C36.7108 45.9087 36.0301 46.6164 36.0321 47.4647C36.0321 48.3192 36.7068 49.0187 37.5382 49.0289C38.3896 49.0391 39.1084 48.2947 39.0884 47.426C39.0703 46.5919 38.3554 45.8883 37.5361 45.8985Z" fill="#444BD3"/>
<path d="M46.4177 53.4092C47.1667 55.4097 48.2731 57.2064 49.749 58.7705C50.1024 59.1457 50.4598 59.3374 50.9859 59.3068C51.759 59.262 52.5401 59.2701 53.3152 59.3068C54.741 59.3762 55.9257 60.6222 55.9638 62.0313C55.9799 62.6554 55.7229 62.9959 55.0863 62.9959C54.9116 62.9959 54.7349 62.9959 54.5602 62.9959C43.8393 62.9959 33.1185 62.9959 22.3956 62.9959C21.0381 62.9959 20.7028 62.4963 21.1847 61.1911C21.5964 60.0716 22.5843 59.3374 23.761 59.2987C24.3373 59.2803 24.9217 59.2253 25.4879 59.3068C26.4498 59.4435 27.0723 59.0193 27.6626 58.3076C28.7871 56.9535 29.7128 55.4933 30.3936 53.8619C30.4839 53.6437 30.7831 53.3704 30.9879 53.3704C36.0723 53.346 41.1586 53.3541 46.243 53.3602C46.2911 53.3602 46.3393 53.3847 46.4197 53.4071L46.4177 53.4092Z" fill="#444BD3"/>
<path d="M38.4901 37.6821C34.209 37.517 30.3737 36.0813 26.7712 33.9054C23.1467 31.7172 20.0002 28.9376 17.1608 25.789C16.0925 24.6041 15.9801 22.9706 16.9901 21.8368C20.9419 17.3932 25.4319 13.6653 30.964 11.4038C36.9761 8.94436 42.8154 9.548 48.4901 12.5437C52.8777 14.8583 56.6006 18.0335 59.9038 21.7369C60.8757 22.8259 60.9761 24.441 60.0162 25.5137C55.3516 30.72 50.0885 35.0637 43.215 36.897C41.6789 37.3069 40.0684 37.4293 38.4921 37.6842L38.4901 37.6821ZM38.5102 12.8374C32.5825 12.8211 27.8074 17.642 27.7913 23.6599C27.7732 29.6861 32.5182 34.5559 38.4239 34.5742C44.3596 34.5946 49.1508 29.7901 49.1809 23.7843C49.213 17.7154 44.472 12.8517 38.5102 12.8353V12.8374Z" fill="#444BD3"/>
<path d="M40.3374 17.9968C38.8474 19.512 38.6988 21.121 39.8916 22.3099C41.0743 23.4907 42.6004 23.3336 44.0322 21.8857C45.0301 23.6436 44.2069 26.7087 42.2952 28.3421C40.1506 30.1734 36.9237 30.202 34.749 28.4094C32.5 26.5557 31.8795 23.3336 33.2771 20.7702C34.6506 18.2497 37.6225 17.0669 40.3374 17.9968Z" fill="#444BD3"/>
</g>
<defs>
<clipPath id="clip0_258_8120">
<rect width="77" height="63" fill="white"/>
</clipPath>
</defs>
</svg>
