<svg width="32" height="32" viewBox="0 0 32 32" fill="none" xmlns="http://www.w3.org/2000/svg">
<rect width="32" height="32" fill="white"/>
<path d="M8.53 22.3179C3.22878 22.3179 2 18.8287 2 13.9572C2 9.08561 3.25519 5.57024 8.53 5.57024C13.8048 5.57024 15.0852 9.05814 15.0852 13.9846C15.0852 18.9111 13.83 22.3193 8.53 22.3193V22.3179ZM8.53 7.91251C5.98608 7.91251 4.71413 9.9274 4.71413 13.9572C4.71413 17.6308 5.30399 20.0018 8.53 20.0018C11.1075 20.0018 12.3962 17.9961 12.3962 13.9846C12.3962 10.2836 11.8076 7.91382 8.53 7.91382V7.91251Z" fill="#4A9CD6"/>
<path d="M24.2774 22C19.2854 22 18 18.8165 18 15.3692V4C20.5214 4 20.5461 4 20.5461 6.26325V10.4731C21.0749 9.60448 22.3108 8.71004 24.7554 8.71004C28.8409 8.71004 30 11.8147 30 15.3679C30 18.9212 28.5375 21.9987 24.2774 21.9987V22ZM23.9492 10.9746C20.5461 10.9746 20.5214 10.9746 20.5214 15.3692C20.5214 18.0526 21.1257 19.8156 24 19.8156C26.2522 19.8156 27.3783 18.3335 27.3783 15.3692C27.3783 12.7635 26.7728 10.9746 23.9492 10.9746Z" fill="#2B2B2B"/>
<path d="M6.00135 24.0014C7.71629 24.5546 9.38273 25.022 11.0586 25.3739C11.8952 25.5485 12.7304 25.6949 13.5657 25.8019C14.4009 25.9103 15.2348 25.9863 16.0687 26.0032C17.7351 26.0538 19.3962 25.9257 21.0451 25.5823C21.1475 25.5611 21.2526 25.5442 21.355 25.5189L21.6621 25.4443C21.8669 25.3922 22.0757 25.3486 22.2805 25.2923C22.6873 25.1698 23.1063 25.0684 23.5118 24.9206C24.343 24.6687 25.1459 24.321 26 24.0014C25.379 24.6799 24.6838 25.2993 23.9119 25.8047C23.5333 26.0735 23.1278 26.2917 22.7223 26.517C22.5189 26.631 22.3061 26.7169 22.0959 26.8168L21.7793 26.9618C21.6743 27.0111 21.5638 27.0449 21.456 27.0871C19.7263 27.76 17.8564 28.0528 16.0121 27.9922C15.7818 27.9796 15.5514 27.9753 15.321 27.9542C15.092 27.9331 14.8616 27.9148 14.6326 27.8895C14.1773 27.8219 13.7206 27.7614 13.2733 27.66C12.3748 27.47 11.4937 27.2081 10.6423 26.8717C9.79092 26.5353 8.9678 26.1341 8.1851 25.6611C7.79442 25.4232 7.41183 25.1726 7.04675 24.8953C6.68032 24.6222 6.32467 24.328 6 24L6.00135 24.0014Z" fill="#4A9CD6"/>
</svg>
