<svg width="24" height="25" viewBox="0 0 24 25" fill="none" xmlns="http://www.w3.org/2000/svg">
<path d="M15.402 21.7803V14.8143H17.735L18.084 12.1063H15.402V10.3783C15.402 9.59427 15.62 9.05927 16.744 9.05927H18.178V6.63727C17.4838 6.56362 16.7861 6.5279 16.088 6.53027C14.021 6.53027 12.606 7.79227 12.606 10.1103V12.1063H10.268V14.8143H12.606V21.7803H4C3.73478 21.7803 3.48043 21.6749 3.29289 21.4874C3.10536 21.2998 3 21.0455 3 20.7803V4.78027C3 4.51506 3.10536 4.2607 3.29289 4.07317C3.48043 3.88563 3.73478 3.78027 4 3.78027H20C20.2652 3.78027 20.5196 3.88563 20.7071 4.07317C20.8946 4.2607 21 4.51506 21 4.78027V20.7803C21 21.0455 20.8946 21.2998 20.7071 21.4874C20.5196 21.6749 20.2652 21.7803 20 21.7803H15.402Z" fill="white"/>
</svg>
