<svg width="23" height="22" viewBox="0 0 23 22" fill="none" xmlns="http://www.w3.org/2000/svg">
<g clip-path="url(#clip0_516_3188)">
<path d="M4.97922 0.00537109C2.60944 0.00537109 0.669922 1.94485 0.669922 4.31467V17.6872C0.669922 20.0569 2.6094 21.9958 4.97922 21.9958H18.3517C20.7215 21.9958 22.6603 20.057 22.6603 17.6872V4.31467C22.6603 1.94489 20.7215 0.00537109 18.3517 0.00537109H4.97922ZM6.06307 3.63423C7.19932 3.63423 7.89921 4.38016 7.92081 5.36068C7.92081 6.31955 7.19928 7.08645 6.04109 7.08645H6.01977C4.90514 7.08645 4.18471 6.31959 4.18471 5.36068C4.18471 4.38018 4.92694 3.63423 6.06305 3.63423H6.06307ZM15.8548 8.21705C18.0401 8.21705 19.6782 9.64533 19.6782 12.7146V18.4445H16.3572V13.0988C16.3572 11.7555 15.8766 10.839 14.6748 10.839C13.7573 10.839 13.2104 11.4567 12.9703 12.0535C12.8826 12.2669 12.861 12.5651 12.861 12.8638V18.4445H9.54006C9.54006 18.4445 9.58364 9.38903 9.54006 8.45139H12.8617V9.86652C13.303 9.18562 14.0924 8.21703 15.8548 8.21703V8.21705ZM4.3806 8.45212H7.70156V18.4446H4.3806V8.45212Z" fill="white"/>
</g>
<defs>
<clipPath id="clip0_516_3188">
<rect width="22" height="22" fill="white" transform="translate(0.666016)"/>
</clipPath>
</defs>
</svg>
