<svg width="32" height="33" viewBox="0 0 32 33" fill="none" xmlns="http://www.w3.org/2000/svg">
<path fill-rule="evenodd" clip-rule="evenodd" d="M15.9984 2.88623C21.1584 2.88623 25.3317 7.05956 25.3317 12.2196C25.3317 19.2196 15.9984 29.5529 15.9984 29.5529C15.9984 29.5529 6.66504 19.2196 6.66504 12.2196C6.66504 7.05956 10.8384 2.88623 15.9984 2.88623ZM9.33185 12.2197C9.33185 16.0197 13.2252 21.833 15.9985 25.393C18.8252 21.8064 22.6652 16.0597 22.6652 12.2197C22.6652 8.53971 19.6785 5.55305 15.9985 5.55305C12.3185 5.55305 9.33185 8.53971 9.33185 12.2197ZM15.9982 15.5527C14.1573 15.5527 12.6649 14.0604 12.6649 12.2194C12.6649 10.3785 14.1573 8.88608 15.9982 8.88608C17.8392 8.88608 19.3316 10.3785 19.3316 12.2194C19.3316 14.0604 17.8392 15.5527 15.9982 15.5527Z" fill="white"/>
</svg>
