<svg width="29" height="30" viewBox="0 0 29 30" fill="none" xmlns="http://www.w3.org/2000/svg">
<path d="M26.0912 9.48375C25.9536 8.97311 25.6846 8.50742 25.3111 8.13303C24.9375 7.75864 24.4724 7.48862 23.9621 7.34983C22.0699 6.83024 14.4997 6.82179 14.4997 6.82179C14.4997 6.82179 6.93067 6.81333 5.03721 7.30995C4.5272 7.45513 4.06308 7.72898 3.68939 8.1052C3.31571 8.48142 3.04501 8.94739 2.90329 9.45837C2.40425 11.3506 2.39942 15.2753 2.39942 15.2753C2.39942 15.2753 2.39458 19.2193 2.89 21.0922C3.16792 22.1277 3.98354 22.9458 5.02029 23.2249C6.93187 23.7445 14.4815 23.753 14.4815 23.753C14.4815 23.753 22.0517 23.7614 23.944 23.266C24.4545 23.1274 24.92 22.858 25.2945 22.4844C25.669 22.1108 25.9394 21.6459 26.0791 21.1357C26.5794 19.2447 26.583 15.3212 26.583 15.3212C26.583 15.3212 26.6072 11.376 26.0912 9.48375ZM12.0782 18.9112L12.0842 11.6612L18.376 15.2922L12.0782 18.9112Z" fill="white"/>
</svg>
