<svg width="302" height="312" viewBox="0 0 302 312" fill="none" xmlns="http://www.w3.org/2000/svg">
<g clip-path="url(#clip0_170_828)">
<path d="M212.954 47.1515L127.408 32.8646C127.947 29.6328 128.604 26.5653 128.946 23.4533C129.483 18.6125 126.513 14.2638 122.009 12.9646C117.286 11.6048 112.545 13.2983 110.323 17.3671C109.579 18.7229 109.292 20.34 108.984 21.8811C108.465 24.4809 108.085 27.1119 107.654 29.6942C101.99 29.8021 96.5786 29.6222 91.2325 30.0645C62.4805 32.4535 41.6009 48.7611 33.6202 75.1295C31.8213 81.0788 30.3792 87.1761 29.3312 93.299C23.4944 127.538 17.8377 161.815 12.1081 196.072C10.1191 207.982 9.75777 219.89 12.852 231.764C18.5382 253.546 33.2516 267.714 54.8481 275.688C61.0515 277.979 67.5935 279.715 74.1288 280.831C110.722 287.119 147.359 293.189 183.994 299.227C196.797 301.333 209.543 301.145 221.988 297.634C243.07 291.687 256.319 277.926 263.638 258.718C265.949 252.646 267.636 246.251 268.739 239.848C274.854 204.352 280.706 168.805 286.622 133.276C288.562 121.664 288.784 110.03 285.765 98.4664C280.087 76.6859 265.308 62.6593 243.808 54.4599C241.09 53.4269 238.318 52.4652 235.484 51.823C233.058 51.2731 232.536 50.1885 233.064 48.0407C233.627 45.7377 233.946 43.37 234.238 41.0138C234.868 36.0196 231.659 31.5343 226.728 30.4052C221.494 29.2094 216.552 31.6979 214.944 36.6092C214.205 38.8505 213.982 41.2505 213.542 43.5819C213.328 44.7124 213.162 45.859 212.945 47.158L212.954 47.1515ZM46.6653 110.809L264.012 147.107C263.85 148.077 263.72 148.852 263.592 149.619C258.718 178.807 253.901 208.004 248.911 237.172C248.1 241.927 246.874 246.677 245.25 251.224C239.412 267.606 228.204 278.636 209.519 280.784C202.096 281.635 194.272 281.487 186.856 280.313C149.975 274.483 113.161 268.198 76.3421 261.945C71.6443 261.144 66.966 259.872 62.454 258.314C44.0386 251.949 32.7461 239.832 31.025 221.004C30.3876 214.061 30.8025 206.908 31.8826 200.034C36.4197 171.192 41.3856 142.422 46.1948 113.626L46.6653 110.809ZM267.005 127.917L50.0623 91.6859C53.0056 63.4547 78.676 43.3303 104.387 49.3052C104.024 51.4806 103.588 53.6841 103.309 55.9137C103.1 57.568 102.788 59.2854 103.042 60.9123C103.753 65.3343 107.851 68.7614 112.298 68.933C117.307 69.1343 121.543 66.1016 122.634 61.2968C123.329 58.2519 123.698 55.1283 124.216 52.0296L209.762 66.3165C209.266 69.2901 208.753 72.0035 208.364 74.7377C207.548 80.4891 211.019 85.4363 216.49 86.4304C222.084 87.4451 227.043 83.8414 228.112 77.9472C228.579 75.3548 228.98 72.7514 229.408 70.1847C255.804 73.0728 273.604 100.586 266.995 127.923L267.005 127.917Z" fill="#EC1377" fill-opacity="0.25"/>
<path d="M134.626 172.457C133.551 179.452 138.453 185.781 145.84 186.926C153.218 188.069 159.795 183.505 160.863 176.501C161.93 169.504 157.046 163.219 149.622 162.044C142.24 160.875 135.71 165.407 134.626 172.457Z" fill="#EC1377" fill-opacity="0.25"/>
<path d="M81.1616 208.37C80.0442 215.213 85.09 221.847 92.3025 223.019C99.5067 224.19 106.458 219.463 107.535 212.662C108.619 205.813 103.483 199.059 96.365 197.983C89.064 196.884 82.2708 201.525 81.1521 208.376L81.1616 208.37Z" fill="#EC1377" fill-opacity="0.25"/>
<path d="M191.745 194.6C199.06 195.822 205.865 191.264 207.001 184.407C208.149 177.433 203.328 171.077 195.917 169.824C188.508 168.562 181.794 173.031 180.661 179.968C179.532 186.882 184.463 193.392 191.745 194.6Z" fill="#EC1377" fill-opacity="0.25"/>
<path d="M99.6759 179.224C106.96 180.376 113.764 175.721 114.842 168.855C115.929 161.943 110.968 155.564 103.567 154.352C96.232 153.151 89.5427 157.729 88.4564 164.69C87.3671 171.618 92.3428 178.064 99.6772 179.216L99.6759 179.224Z" fill="#EC1377" fill-opacity="0.25"/>
<path d="M188.625 213.64C181.122 212.379 174.523 216.723 173.349 223.701C172.217 230.478 177.273 237.202 184.423 238.396C191.605 239.595 198.561 234.942 199.703 228.159C200.891 221.094 196.177 214.91 188.634 213.634L188.625 213.64Z" fill="#EC1377" fill-opacity="0.25"/>
<path d="M142.487 205.935C134.9 204.668 128.527 208.928 127.338 216.049C126.181 222.974 131.069 229.485 138.351 230.702C145.64 231.919 152.368 227.364 153.526 220.431C154.717 213.302 150.074 207.202 142.487 205.935Z" fill="#EC1377" fill-opacity="0.25"/>
</g>
<defs>
<clipPath id="clip0_170_828">
<rect width="260.453" height="272.292" fill="white" transform="matrix(-0.986339 -0.164726 -0.164726 0.986339 301.749 42.9033)"/>
</clipPath>
</defs>
</svg>
