<svg width="544" height="405" viewBox="0 0 544 405" fill="none" xmlns="http://www.w3.org/2000/svg">
<path d="M585.08 281.519C583.02 289.001 582.186 296.911 578.638 303.885C570.023 320.838 554.595 331.447 533.523 335.632C531.079 336.121 528.621 336.519 526.157 336.879C375.539 358.865 224.897 380.803 74.2961 402.906C50.6802 406.367 30.6479 401.924 15.2191 386.883C-7.9432 364.298 -2.75195 330.061 26.5991 309.817C63.8381 284.13 101.168 258.535 138.46 232.894C174.834 207.875 211.171 182.821 247.619 157.884C250.599 155.851 251.618 154 251.017 150.84C246.345 126.07 256.294 105.912 279.81 89.7396C294.589 79.5823 299.174 63.2167 292.038 49.2354C284.886 35.2433 267.951 27.8673 249.773 30.8112C232.159 33.673 218.525 46.1449 216.421 61.5277C216.023 64.4374 216.332 67.4022 216.37 70.3272C216.486 79.2079 209.823 85.91 200.052 86.7554C190.788 87.5533 183.231 81.9635 182.1 73.4686C178.432 46.0042 197.233 18.283 227.483 6.54045C261.674 -6.72771 301.005 3.095 319.528 29.5395C338.227 56.2354 330.819 91.1383 301.344 111.705C288.036 120.987 281.992 131.718 284.95 145.913C285.612 149.064 286.975 150.528 290.349 151.62C369.641 177.167 448.885 202.813 528.143 228.444C534.29 230.438 540.461 232.389 546.583 234.426C564.006 240.252 575.743 250.75 581.74 265.98C582.015 266.692 582.647 267.3 583.101 267.959L585.078 281.506L585.08 281.519ZM295.737 340.891C370.483 329.98 445.23 319.069 519.961 308.16C522.425 307.8 524.905 307.451 527.339 306.99C539.816 304.575 548.463 296.356 549.961 285.549C551.499 274.487 544.482 265.676 530.315 261.091C446.134 233.868 361.942 206.673 277.809 179.351C273.813 178.047 271.139 178.345 267.599 180.802C209.865 220.688 152.017 260.433 94.19 300.214C78.2126 311.206 62.087 322.035 46.3298 333.26C28.9538 345.631 32.5412 367.972 52.9317 373.378C58.2159 374.785 64.6349 374.495 70.3397 373.675C145.493 362.889 220.595 351.86 295.722 340.893L295.737 340.891Z" fill="#EC1377" fill-opacity="0.25"/>
</svg>
