<svg width="81" height="80" viewBox="0 0 81 80" fill="none" xmlns="http://www.w3.org/2000/svg">
<rect x="0.75" width="80" height="80" rx="12" fill="url(#paint0_linear_914_2455)"/>
<path d="M46.083 53.3334V46.6667H47.4163V45.3334C47.4163 44.6 47.6777 43.9725 48.2003 43.4507C48.723 42.9289 49.3506 42.6676 50.083 42.6667C50.8163 42.6667 51.4443 42.928 51.967 43.4507C52.4897 43.9734 52.7506 44.6009 52.7497 45.3334V46.6667H54.083V53.3334H46.083ZM48.7497 46.6667H51.4163V45.3334C51.4163 44.9556 51.2883 44.6391 51.0323 44.384C50.7763 44.1289 50.4599 44.0009 50.083 44C49.7052 44 49.3888 44.128 49.1337 44.384C48.8786 44.64 48.7506 44.9565 48.7497 45.3334V46.6667ZM40.7497 53.3334C37.6608 52.5556 35.1106 50.7831 33.099 48.016C31.0875 45.2489 30.0821 42.1769 30.083 38.8V30.6667L40.7497 26.6667L51.4163 30.6667V38.8C51.4163 39.0222 51.411 39.2445 51.4003 39.4667C51.3897 39.6889 51.3728 39.9111 51.3497 40.1334C51.1497 40.0889 50.9443 40.0556 50.7337 40.0334C50.523 40.0111 50.3061 40 50.083 40C48.2386 40 46.6666 40.6445 45.367 41.9334C44.0675 43.2222 43.4172 44.8 43.4163 46.6667V52.3334C42.9941 52.5556 42.5608 52.7502 42.1163 52.9174C41.6719 53.0845 41.2163 53.2231 40.7497 53.3334Z" fill="white"/>
<defs>
<linearGradient id="paint0_linear_914_2455" x1="23.25" y1="46.5" x2="80.75" y2="-5.5" gradientUnits="userSpaceOnUse">
<stop stop-color="#5566FE"/>
<stop offset="1" stop-color="white"/>
</linearGradient>
</defs>
</svg>
