<svg width="81" height="80" viewBox="0 0 81 80" fill="none" xmlns="http://www.w3.org/2000/svg">
<rect x="0.25" width="80" height="80" rx="12" fill="url(#paint0_linear_914_2353)"/>
<g clip-path="url(#clip0_914_2353)">
<path d="M42.75 26.6667C42.75 27.2587 42.4927 27.7907 42.0833 28.1573V30.6667H48.75C49.8109 30.6667 50.8283 31.0881 51.5784 31.8382C52.3286 32.5884 52.75 33.6058 52.75 34.6667V48C52.75 49.0609 52.3286 50.0783 51.5784 50.8284C50.8283 51.5786 49.8109 52 48.75 52H32.75C31.6891 52 30.6717 51.5786 29.9216 50.8284C29.1714 50.0783 28.75 49.0609 28.75 48V34.6667C28.75 33.6058 29.1714 32.5884 29.9216 31.8382C30.6717 31.0881 31.6891 30.6667 32.75 30.6667H39.4167V28.1573C39.168 27.9349 38.9789 27.6538 38.8667 27.3397C38.7544 27.0255 38.7225 26.6883 38.7739 26.3587C38.8252 26.029 38.9582 25.7175 39.1608 25.4524C39.3633 25.1873 39.629 24.9771 39.9335 24.8409C40.2381 24.7047 40.5719 24.6468 40.9045 24.6726C41.2371 24.6984 41.558 24.8069 41.8379 24.9884C42.1179 25.1699 42.348 25.4185 42.5073 25.7116C42.6666 26.0047 42.75 26.3331 42.75 26.6667ZM24.75 37.3333H27.4167V45.3333H24.75V37.3333ZM56.75 37.3333H54.0833V45.3333H56.75V37.3333ZM36.75 43.3333C37.2804 43.3333 37.7891 43.1226 38.1642 42.7476C38.5393 42.3725 38.75 41.8638 38.75 41.3333C38.75 40.8029 38.5393 40.2942 38.1642 39.9191C37.7891 39.5441 37.2804 39.3333 36.75 39.3333C36.2196 39.3333 35.7109 39.5441 35.3358 39.9191C34.9607 40.2942 34.75 40.8029 34.75 41.3333C34.75 41.8638 34.9607 42.3725 35.3358 42.7476C35.7109 43.1226 36.2196 43.3333 36.75 43.3333ZM46.75 41.3333C46.75 40.8029 46.5393 40.2942 46.1642 39.9191C45.7891 39.5441 45.2804 39.3333 44.75 39.3333C44.2196 39.3333 43.7109 39.5441 43.3358 39.9191C42.9607 40.2942 42.75 40.8029 42.75 41.3333C42.75 41.8638 42.9607 42.3725 43.3358 42.7476C43.7109 43.1226 44.2196 43.3333 44.75 43.3333C45.2804 43.3333 45.7891 43.1226 46.1642 42.7476C46.5393 42.3725 46.75 41.8638 46.75 41.3333Z" fill="white"/>
</g>
<defs>
<linearGradient id="paint0_linear_914_2353" x1="22.75" y1="46.5" x2="80.25" y2="-5.5" gradientUnits="userSpaceOnUse">
<stop stop-color="#5566FE"/>
<stop offset="1" stop-color="white"/>
</linearGradient>
<clipPath id="clip0_914_2353">
<rect width="32" height="32" fill="white" transform="translate(24.25 24)"/>
</clipPath>
</defs>
</svg>
