<svg width="80" height="80" viewBox="0 0 80 80" fill="none" xmlns="http://www.w3.org/2000/svg">
<rect width="80" height="80" rx="12" fill="url(#paint0_linear_30_3878)"/>
<path d="M36.8 28C36.8 27.7878 36.7157 27.5843 36.5656 27.4343C36.4156 27.2842 36.2121 27.2 36 27.2C35.7878 27.2 35.5843 27.2842 35.4343 27.4343C35.2842 27.5843 35.2 27.7878 35.2 28V30.4H34.4C33.3391 30.4 32.3217 30.8214 31.5715 31.5715C30.8214 32.3217 30.4 33.3391 30.4 34.4V35.2H28C27.7878 35.2 27.5843 35.2842 27.4343 35.4343C27.2842 35.5843 27.2 35.7878 27.2 36C27.2 36.2121 27.2842 36.4156 27.4343 36.5656C27.5843 36.7157 27.7878 36.8 28 36.8H30.4V39.2H28C27.7878 39.2 27.5843 39.2842 27.4343 39.4343C27.2842 39.5843 27.2 39.7878 27.2 40C27.2 40.2121 27.2842 40.4156 27.4343 40.5656C27.5843 40.7157 27.7878 40.8 28 40.8H30.4V43.2H28C27.7878 43.2 27.5843 43.2842 27.4343 43.4343C27.2842 43.5843 27.2 43.7878 27.2 44C27.2 44.2121 27.2842 44.4156 27.4343 44.5656C27.5843 44.7157 27.7878 44.8 28 44.8H30.4V45.6C30.4 46.6608 30.8214 47.6782 31.5715 48.4284C32.3217 49.1785 33.3391 49.6 34.4 49.6H35.2V52C35.2 52.2121 35.2842 52.4156 35.4343 52.5656C35.5843 52.7157 35.7878 52.8 36 52.8C36.2121 52.8 36.4156 52.7157 36.5656 52.5656C36.7157 52.4156 36.8 52.2121 36.8 52V49.6H39.2V52C39.2 52.2121 39.2842 52.4156 39.4343 52.5656C39.5843 52.7157 39.7878 52.8 40 52.8C40.2121 52.8 40.4156 52.7157 40.5656 52.5656C40.7157 52.4156 40.8 52.2121 40.8 52V49.6H43.2V52C43.2 52.2121 43.2842 52.4156 43.4343 52.5656C43.5843 52.7157 43.7878 52.8 44 52.8C44.2121 52.8 44.4156 52.7157 44.5656 52.5656C44.7157 52.4156 44.8 52.2121 44.8 52V49.6H45.6C46.6608 49.6 47.6782 49.1785 48.4284 48.4284C49.1785 47.6782 49.6 46.6608 49.6 45.6V44.8H52C52.2121 44.8 52.4156 44.7157 52.5656 44.5656C52.7157 44.4156 52.8 44.2121 52.8 44C52.8 43.7878 52.7157 43.5843 52.5656 43.4343C52.4156 43.2842 52.2121 43.2 52 43.2H49.6V40.8H52C52.2121 40.8 52.4156 40.7157 52.5656 40.5656C52.7157 40.4156 52.8 40.2121 52.8 40C52.8 39.7878 52.7157 39.5843 52.5656 39.4343C52.4156 39.2842 52.2121 39.2 52 39.2H49.6V36.8H52C52.2121 36.8 52.4156 36.7157 52.5656 36.5656C52.7157 36.4156 52.8 36.2121 52.8 36C52.8 35.7878 52.7157 35.5843 52.5656 35.4343C52.4156 35.2842 52.2121 35.2 52 35.2H49.6V34.4C49.6 33.3391 49.1785 32.3217 48.4284 31.5715C47.6782 30.8214 46.6608 30.4 45.6 30.4H44.8V28C44.8 27.7878 44.7157 27.5843 44.5656 27.4343C44.4156 27.2842 44.2121 27.2 44 27.2C43.7878 27.2 43.5843 27.2842 43.4343 27.4343C43.2842 27.5843 43.2 27.7878 43.2 28V30.4H40.8V28C40.8 27.7878 40.7157 27.5843 40.5656 27.4343C40.4156 27.2842 40.2121 27.2 40 27.2C39.7878 27.2 39.5843 27.2842 39.4343 27.4343C39.2842 27.5843 39.2 27.7878 39.2 28V30.4H36.8V28ZM41.5776 36.064L40.912 38.4H43.3584C43.4799 38.4001 43.599 38.4348 43.7015 38.5001C43.8041 38.5654 43.8859 38.6586 43.9375 38.7687C43.989 38.8788 44.0081 39.0013 43.9925 39.1219C43.977 39.2425 43.9274 39.3561 43.8496 39.4496L39.5968 44.5536C39.128 45.1136 38.2272 44.6336 38.4352 43.9328L39.128 41.6H36.64C36.5181 41.6001 36.3987 41.5654 36.2958 41.5001C36.193 41.4347 36.1109 41.3413 36.0594 41.2309C36.0078 41.1205 35.9888 40.9976 36.0046 40.8768C36.0204 40.7559 36.0704 40.6421 36.1488 40.5488L40.4176 35.448C40.8816 34.8912 41.7776 35.3664 41.5792 36.064H41.5776Z" fill="white"/>
<defs>
<linearGradient id="paint0_linear_30_3878" x1="22.5" y1="46.5" x2="80" y2="-5.5" gradientUnits="userSpaceOnUse">
<stop stop-color="#5566FE"/>
<stop offset="1" stop-color="white"/>
</linearGradient>
</defs>
</svg>
