<svg width="80" height="80" viewBox="0 0 80 80" fill="none" xmlns="http://www.w3.org/2000/svg">
<rect width="80" height="80" rx="12" fill="url(#paint0_linear_30_3847)"/>
<path d="M26.7866 46.4H29V37.0133H26.7866M27.8933 35.7866C28.0531 35.7902 28.212 35.7618 28.3607 35.7031C28.5094 35.6444 28.6448 35.5565 28.7591 35.4447C28.8734 35.333 28.9642 35.1995 29.0261 35.0521C29.0881 34.9048 29.12 34.7465 29.12 34.5866C29.12 33.92 28.5866 33.3866 27.8933 33.3866C27.7335 33.3831 27.5746 33.4115 27.4259 33.4702C27.2772 33.5289 27.1417 33.6168 27.0275 33.7286C26.9132 33.8403 26.8224 33.9738 26.7605 34.1212C26.6985 34.2685 26.6666 34.4268 26.6666 34.5866C26.6666 35.2533 27.2 35.7866 27.8933 35.7866ZM36.3333 33.4133C32.6133 33.4133 30.2666 35.9466 30.2666 40C30.2666 44.08 32.6133 46.6133 36.3333 46.6133C40.0533 46.6133 42.4 44.08 42.4 40C42.4 35.9466 40.0533 33.4133 36.3333 33.4133ZM36.3333 35.3333C38.6133 35.3333 40.0666 37.16 40.0666 40C40.0666 42.8666 38.6133 44.6666 36.3333 44.6666C34.0533 44.6666 32.6133 42.8666 32.6133 40C32.6133 37.16 34.0533 35.3333 36.3333 35.3333ZM43.3333 42.8133C43.4266 45.16 45.3333 46.6133 48.2933 46.6133C51.3866 46.6133 53.3333 45.0933 53.3333 42.6666C53.3333 40.76 52.24 39.6933 49.64 39.0933L48.1733 38.76C46.6 38.3866 45.96 37.8933 45.96 37.04C45.96 36 46.9333 35.2666 48.3733 35.2666C49.84 35.2666 50.84 36 50.9466 37.1866H53.12C53.0666 34.9333 51.2133 33.4133 48.3866 33.4133C45.6133 33.4133 43.64 34.9466 43.64 37.2133C43.64 39.04 44.7466 40.1733 47.1066 40.7066L48.76 41.0933C50.3733 41.48 51.0266 42 51.0266 42.9333C51.0266 44 49.96 44.76 48.4133 44.76C46.8666 44.76 45.68 44 45.5466 42.8133H43.3333Z" fill="white"/>
<defs>
<linearGradient id="paint0_linear_30_3847" x1="22.5" y1="46.5" x2="80" y2="-5.5" gradientUnits="userSpaceOnUse">
<stop stop-color="#5566FE"/>
<stop offset="1" stop-color="white"/>
</linearGradient>
</defs>
</svg>
