<svg width="50" height="51" viewBox="0 0 50 51" fill="none" xmlns="http://www.w3.org/2000/svg">
<rect y="0.5" width="50" height="50" rx="12" fill="url(#paint0_linear_195_11895)"/>
<path d="M18 28.5C17.06 28.5 16.19 28.83 15.5 29.38C14.58 30.11 14 31.24 14 32.5C14 34.71 15.79 36.5 18 36.5C19.01 36.5 19.93 36.12 20.64 35.5C21.47 34.77 22 33.7 22 32.5C22 30.29 20.21 28.5 18 28.5ZM19 32.75C19 33.01 18.86 33.26 18.64 33.39L17.39 34.14C17.27 34.22 17.13 34.25 17 34.25C16.75 34.25 16.5 34.12 16.36 33.89C16.15 33.53 16.26 33.07 16.62 32.86L17.51 32.33V31.25C17.5 30.84 17.84 30.5 18.25 30.5C18.66 30.5 19 30.84 19 31.25V32.75Z" fill="white"/>
<path d="M27.85 17.45V21.25H26.35V17.45C26.35 17.18 26.11 17.05 25.95 17.05C25.9 17.05 25.85 17.06 25.8 17.08L17.87 20.07C17.34 20.27 17 20.77 17 21.34V22.01C16.09 22.69 15.5 23.78 15.5 25.01V21.34C15.5 20.15 16.23 19.09 17.34 18.67L25.28 15.67C25.5 15.59 25.73 15.55 25.95 15.55C26.95 15.55 27.85 16.36 27.85 17.45Z" fill="white"/>
<path d="M34.5002 28V29C34.5002 29.27 34.2902 29.49 34.0102 29.5H32.5502C32.0202 29.5 31.5402 29.11 31.5002 28.59C31.4702 28.28 31.5902 27.99 31.7902 27.79C31.9702 27.6 32.2202 27.5 32.4902 27.5H34.0002C34.2902 27.51 34.5002 27.73 34.5002 28Z" fill="white"/>
<path d="M32.48 26.45H33.5C34.05 26.45 34.5 26 34.5 25.45V25.01C34.5 22.94 32.81 21.25 30.74 21.25H19.26C18.41 21.25 17.63 21.53 17 22.01C16.09 22.69 15.5 23.78 15.5 25.01V26.79C15.5 27.17 15.9 27.41 16.26 27.29C16.82 27.1 17.41 27 18 27C21.03 27 23.5 29.47 23.5 32.5C23.5 33.22 23.31 34.01 23.01 34.71C22.85 35.07 23.1 35.5 23.49 35.5H30.74C32.81 35.5 34.5 33.81 34.5 31.74V31.55C34.5 31 34.05 30.55 33.5 30.55H32.63C31.67 30.55 30.75 29.96 30.5 29.03C30.3 28.27 30.54 27.53 31.04 27.05C31.41 26.67 31.92 26.45 32.48 26.45ZM27 26.25H22C21.59 26.25 21.25 25.91 21.25 25.5C21.25 25.09 21.59 24.75 22 24.75H27C27.41 24.75 27.75 25.09 27.75 25.5C27.75 25.91 27.41 26.25 27 26.25Z" fill="white"/>
<defs>
<linearGradient id="paint0_linear_195_11895" x1="14.0625" y1="29.5625" x2="50" y2="-2.9375" gradientUnits="userSpaceOnUse">
<stop stop-color="#5566FE"/>
<stop offset="1" stop-color="white"/>
</linearGradient>
</defs>
</svg>
