<svg width="50" height="51" viewBox="0 0 50 51" fill="none" xmlns="http://www.w3.org/2000/svg">
<rect y="0.5" width="50" height="50" rx="12" fill="url(#paint0_linear_195_11870)"/>
<path d="M29 15.5H21C17.5 15.5 16 17.5 16 20.5V30.5C16 33.5 17.5 35.5 21 35.5H29C32.5 35.5 34 33.5 34 30.5V20.5C34 17.5 32.5 15.5 29 15.5ZM21 25.75H25C25.41 25.75 25.75 26.09 25.75 26.5C25.75 26.91 25.41 27.25 25 27.25H21C20.59 27.25 20.25 26.91 20.25 26.5C20.25 26.09 20.59 25.75 21 25.75ZM29 31.25H21C20.59 31.25 20.25 30.91 20.25 30.5C20.25 30.09 20.59 29.75 21 29.75H29C29.41 29.75 29.75 30.09 29.75 30.5C29.75 30.91 29.41 31.25 29 31.25ZM31.5 22.75H29.5C27.98 22.75 26.75 21.52 26.75 20V18C26.75 17.59 27.09 17.25 27.5 17.25C27.91 17.25 28.25 17.59 28.25 18V20C28.25 20.69 28.81 21.25 29.5 21.25H31.5C31.91 21.25 32.25 21.59 32.25 22C32.25 22.41 31.91 22.75 31.5 22.75Z" fill="white"/>
<defs>
<linearGradient id="paint0_linear_195_11870" x1="14.0625" y1="29.5625" x2="50" y2="-2.9375" gradientUnits="userSpaceOnUse">
<stop stop-color="#5566FE"/>
<stop offset="1" stop-color="white"/>
</linearGradient>
</defs>
</svg>
