<svg width="50" height="51" viewBox="0 0 50 51" fill="none" xmlns="http://www.w3.org/2000/svg">
<rect y="0.5" width="50" height="50" rx="12" fill="url(#paint0_linear_195_11883)"/>
<path d="M28.22 20.05H18.78C18.5 20.05 18.24 20.06 18 20.07C15.63 20.21 15 21.08 15 23.78V24.36C15 24.91 15.45 25.36 16 25.36H31C31.55 25.36 32 24.91 32 24.36V23.78C32 20.8 31.24 20.05 28.22 20.05Z" fill="white"/>
<path d="M16 26.86C15.45 26.86 15 27.31 15 27.86V30.77C15 33.75 15.76 34.5 18.78 34.5H28.22C31.19 34.5 31.97 33.78 32 30.93V27.86C32 27.31 31.55 26.86 31 26.86H16ZM19.96 32.06H18.25C17.84 32.06 17.5 31.72 17.5 31.31C17.5 30.9 17.84 30.56 18.25 30.56H19.97C20.38 30.56 20.72 30.9 20.72 31.31C20.72 31.72 20.38 32.06 19.96 32.06ZM25.55 32.06H22.11C21.7 32.06 21.36 31.72 21.36 31.31C21.36 30.9 21.7 30.56 22.11 30.56H25.55C25.96 30.56 26.3 30.9 26.3 31.31C26.3 31.72 25.97 32.06 25.55 32.06Z" fill="white"/>
<path d="M35.0001 26.83V21.59C35.0001 18.46 33.2101 17.1 30.5101 17.1H21.5801C20.8201 17.1 20.1401 17.21 19.5401 17.44C19.0701 17.61 18.6501 17.86 18.3101 18.19C18.1301 18.36 18.2701 18.64 18.5301 18.64H29.4001C31.6501 18.64 33.4701 20.46 33.4701 22.71V29.88C33.4701 30.13 33.7401 30.27 33.9201 30.09C34.6101 29.36 35.0001 28.29 35.0001 26.83Z" fill="white"/>
<defs>
<linearGradient id="paint0_linear_195_11883" x1="14.0625" y1="29.5625" x2="50" y2="-2.9375" gradientUnits="userSpaceOnUse">
<stop stop-color="#5566FE"/>
<stop offset="1" stop-color="white"/>
</linearGradient>
</defs>
</svg>
