<svg width="54" height="54" viewBox="0 0 54 54" fill="none" xmlns="http://www.w3.org/2000/svg">
<path d="M33.442 46.2965C32.5247 46.4432 31.5981 46.5249 30.6693 46.5409C25.6114 46.5409 20.8348 45.2058 16.9607 42.7025C14.4824 41.1814 12.3312 39.183 10.6321 36.8233C7.52318 32.7024 5.82808 27.4646 5.82808 21.9836C5.82808 21.6105 5.84119 21.2517 5.85431 20.8917C5.85903 20.7855 5.83094 20.6804 5.77386 20.5908C5.71678 20.5012 5.63348 20.4313 5.53528 20.3906C5.43708 20.35 5.32875 20.3406 5.22501 20.3637C5.12128 20.3868 5.02718 20.4413 4.9555 20.5197C2.10118 23.6428 0.37569 27.6322 0.0545982 31.8509C-0.266494 36.0696 0.83533 40.2742 3.18411 43.7932C3.47854 44.2426 3.64543 44.5895 3.59417 44.8208L1.91457 53.4345C1.89907 53.5164 1.90532 53.6009 1.93269 53.6797C1.96006 53.7584 2.0076 53.8286 2.07056 53.8832C2.13352 53.9379 2.20971 53.9751 2.29152 53.9911C2.37333 54.0071 2.45791 54.0014 2.53682 53.9745L10.6428 51.085C10.8886 50.9878 11.1512 50.9401 11.4155 50.9446C11.6798 50.9491 11.9406 51.0057 12.1829 51.1112C14.6087 52.0648 17.2921 52.6513 19.9754 52.6513C25.1403 52.6682 30.1155 50.706 33.8783 47.1679C33.956 47.0922 34.0076 46.9937 34.0256 46.8867C34.0436 46.7797 34.0272 46.6698 33.9786 46.5728C33.93 46.4758 33.8518 46.3967 33.7554 46.347C33.6589 46.2974 33.5492 46.2797 33.442 46.2965Z" fill="#896BFF"/>
<path d="M17.1878 5.01285C21.2465 1.76547 26.2903 -0.00256537 31.4882 2.79384e-06C37.6155 2.79384e-06 43.3385 2.36059 47.6171 6.64725C51.7519 10.7951 54.018 16.2716 53.9999 22.064C53.9998 26.3107 52.753 30.464 50.4142 34.0087L50.3951 34.0359C50.367 34.0771 50.3378 34.1183 50.3086 34.1586C50.2795 34.1988 50.2432 34.2511 50.2352 34.2642L50.2131 34.3044C50.0994 34.5056 50.0119 34.751 50.0894 34.9984L51.942 41.703C52.0162 41.9523 52.0567 42.2104 52.0627 42.4704C52.0641 43.1545 51.7941 43.8112 51.312 44.2965C50.8299 44.7818 50.175 45.0561 49.4909 45.0593C49.1294 45.0474 48.7732 44.9693 48.4399 44.829L41.6517 42.3789L41.5663 42.3457C41.3816 42.2681 41.1832 42.2288 40.9829 42.23C40.7982 42.2305 40.6152 42.2646 40.4428 42.3306C40.2798 42.394 38.8003 42.9602 37.2393 43.3967C35.9419 43.7588 33.2423 44.3019 31.1271 44.3019C25.1275 44.3019 19.5253 41.9786 15.3532 37.7583C11.2174 33.5702 8.94028 28.0031 8.94028 22.076C8.93975 20.5546 9.10091 19.0374 9.42105 17.55C10.461 12.6599 13.2189 8.20623 17.1878 5.01285ZM41.1257 25.7482C41.7623 25.7482 42.3846 25.5594 42.9138 25.2058C43.4431 24.8521 43.8557 24.3494 44.0993 23.7613C44.3429 23.1732 44.4066 22.5261 44.2824 21.9017C44.1582 21.2774 43.8517 20.7039 43.4016 20.2538C42.9515 19.8037 42.378 19.4972 41.7536 19.373C41.1293 19.2488 40.4821 19.3125 39.894 19.5561C39.3059 19.7997 38.8033 20.2123 38.4496 20.7415C38.0959 21.2708 37.9072 21.8931 37.9072 22.5297C37.9072 23.3833 38.2463 24.2019 38.8499 24.8055C39.4535 25.4091 40.2721 25.7482 41.1257 25.7482ZM31.4701 25.7482C32.1067 25.7482 32.7289 25.5594 33.2582 25.2058C33.7875 24.8521 34.2 24.3494 34.4436 23.7613C34.6872 23.1732 34.751 22.5261 34.6268 21.9017C34.5026 21.2774 34.1961 20.7039 33.7459 20.2538C33.2958 19.8037 32.7223 19.4972 32.098 19.373C31.4737 19.2488 30.8265 19.3125 30.2384 19.5561C29.6503 19.7997 29.1476 20.2123 28.794 20.7415C28.4403 21.2708 28.2515 21.8931 28.2515 22.5297C28.2515 23.3833 28.5906 24.2019 29.1942 24.8055C29.7978 25.4091 30.6165 25.7482 31.4701 25.7482ZM21.8145 25.7482C22.451 25.7482 23.0733 25.5594 23.6026 25.2058C24.1319 24.8521 24.5444 24.3494 24.788 23.7613C25.0316 23.1732 25.0953 22.5261 24.9712 21.9017C24.847 21.2774 24.5404 20.7039 24.0903 20.2538C23.6402 19.8037 23.0667 19.4972 22.4424 19.373C21.818 19.2488 21.1709 19.3125 20.5828 19.5561C19.9947 19.7997 19.492 20.2123 19.1383 20.7415C18.7847 21.2708 18.5959 21.8931 18.5959 22.5297C18.5959 23.3833 18.935 24.2019 19.5386 24.8055C20.1422 25.4091 20.9608 25.7482 21.8145 25.7482Z" fill="#896BFF"/>
</svg>
