<svg width="79" height="54" viewBox="0 0 79 54" fill="none" xmlns="http://www.w3.org/2000/svg">
<g clip-path="url(#clip0_211_1431)">
<path d="M5.36609 0H39.5452C42.8513 0.0069912 44.9185 2.05541 44.9255 5.34127V24.1476C44.9255 27.5803 42.8867 29.5798 39.3824 29.5798C32.5367 29.5798 25.6909 29.5728 18.8381 29.5937C18.2576 29.5937 17.6346 29.7545 17.1037 29.9992C15.5179 30.7193 13.9746 31.5233 12.4171 32.2923C10.534 33.2152 8.65799 34.138 6.65453 35.1238C6.65453 33.7535 6.66869 32.551 6.64746 31.3485C6.6333 30.2859 6.02448 29.6636 4.97673 29.5798C1.82642 29.3211 -5.72205e-05 27.3705 -5.72205e-05 24.2455C-5.72205e-05 17.9254 -0.0071373 11.5984 -5.72205e-05 5.27835C-5.72205e-05 2.05541 2.09543 0.0069912 5.36609 0ZM13.8259 24.637C16.7072 24.6859 19.5885 24.644 22.4698 24.644C25.1883 24.651 27.8997 24.6579 30.6182 24.651C36.0268 24.63 40.4726 20.5751 40.7487 15.4156C41.039 10.1023 37.1949 5.62092 31.8075 4.97773C31.4464 4.93578 31.0854 4.93578 30.7243 4.93578C25.2095 4.92879 19.6947 4.91481 14.1799 4.93578C8.48809 4.95676 4.03517 9.48705 4.1626 15.108C4.28295 20.2115 8.64384 24.5461 13.8259 24.637Z" fill="#896BFF"/>
<path d="M33.6553 32.8657C35.6729 32.8657 37.6339 32.8727 39.5948 32.8657C44.6566 32.8517 48.2387 29.3212 48.2529 24.3365V22.2251C48.4653 22.2042 48.5715 22.1902 48.6777 22.1902C56.9959 22.1902 65.3142 22.1692 73.6324 22.1972C76.365 22.2042 78.5172 24.3784 78.5242 27.091C78.5526 32.5721 78.5455 38.0462 78.5313 43.5203C78.5172 46.2189 76.4854 48.2953 73.7598 48.4701C72.436 48.554 71.8909 49.1272 71.8838 50.4556C71.8767 51.6021 71.8767 52.7487 71.8767 54.0001C71.544 53.8463 71.2962 53.7414 71.0555 53.6226C67.9123 52.0775 64.7832 50.4975 61.6117 48.9874C60.9674 48.6868 60.1958 48.498 59.4808 48.498C52.635 48.4631 45.7893 48.4771 38.9436 48.4771C35.7295 48.4771 33.6199 46.4007 33.6128 43.2477C33.6057 40.0387 33.6057 36.8367 33.6128 33.6348C33.6128 33.3971 33.6411 33.1594 33.6553 32.8657ZM63.6222 36.9696C64.5071 36.9346 65.2292 36.1865 65.215 35.3126C65.208 34.4038 64.4151 33.6627 63.5018 33.6907C62.6169 33.7256 61.8948 34.4737 61.9019 35.3476C61.9161 36.2565 62.7019 37.0045 63.6222 36.9696ZM56.1322 36.9696C57.0171 36.9346 57.7392 36.1865 57.7322 35.3126C57.718 34.4038 56.9322 33.6627 56.0119 33.6907C55.127 33.7256 54.4049 34.4737 54.4119 35.3476C54.4261 36.2495 55.219 36.9975 56.1322 36.9696ZM48.5856 36.9696C49.4989 36.9696 50.2634 36.1935 50.2422 35.2917C50.221 34.4178 49.4776 33.6977 48.5856 33.6907C47.7007 33.6907 46.9503 34.4108 46.9291 35.2847C46.9007 36.1935 47.6653 36.9696 48.5856 36.9696Z" fill="#896BFF"/>
<path d="M14.3568 8.22159C19.7584 8.2076 25.167 8.2076 30.5686 8.23557C31.3331 8.23557 32.1331 8.34044 32.8552 8.57115C35.9276 9.54991 37.8674 12.647 37.3789 15.6742C36.8409 18.9671 34.1861 21.3161 30.8588 21.3511C28.0625 21.386 25.259 21.358 22.4627 21.365C19.7725 21.365 17.0824 21.372 14.3922 21.365C10.4632 21.3511 7.48278 18.4917 7.48986 14.7653C7.49694 11.081 10.4774 8.22858 14.3568 8.22159ZM30.8517 17.2542C32.1968 17.2123 33.3012 16.0727 33.2729 14.7444C33.2446 13.3811 32.0482 12.2695 30.6677 12.3324C29.3226 12.3883 28.2395 13.5489 28.289 14.8772C28.3386 16.2125 29.5067 17.2892 30.8517 17.2542ZM14.2294 17.2542C15.5745 17.2053 16.6718 16.0517 16.6364 14.7234C16.601 13.3951 15.44 12.3044 14.0949 12.3254C12.7427 12.3534 11.6313 13.486 11.6525 14.8143C11.6667 16.1776 12.856 17.3032 14.2294 17.2542Z" fill="#896BFF"/>
</g>
<defs>
<clipPath id="clip0_211_1431">
<rect width="78.5455" height="54" fill="white" transform="matrix(-1 0 0 1 78.5454 0)"/>
</clipPath>
</defs>
</svg>
