<svg width="36" height="31" viewBox="0 0 36 31" fill="none" xmlns="http://www.w3.org/2000/svg">
<g clip-path="url(#clip0_204_1105)">
<path d="M26.1661 19.6159V25.3336H28.3748C28.7203 24.321 29.3639 23.6205 30.4174 23.3645C31.8266 23.0216 33.2449 23.8479 33.6751 25.2536C34.1008 26.6456 33.3725 28.1519 32.0231 28.6708C30.6681 29.193 29.1313 28.5736 28.5622 27.2216C28.403 26.8433 28.2122 26.7588 27.8486 26.7702C27.1169 26.7953 26.3841 26.7828 25.6512 26.7759C24.9997 26.7702 24.7637 26.5256 24.7626 25.8628C24.7603 23.9519 24.7626 22.0422 24.7626 20.1313V19.6422H18.6854V20.0902C18.6854 21.7302 18.6945 23.369 18.6775 25.0079C18.6741 25.3256 18.76 25.4753 19.0614 25.5988C20.2798 26.0982 20.9359 27.3656 20.6999 28.6902C20.4763 29.9428 19.3573 30.8936 18.0678 30.9268C16.7749 30.9599 15.648 30.0959 15.3284 28.8262C14.9976 27.5085 15.666 26.1222 16.9262 25.6033C17.248 25.4708 17.3248 25.305 17.3214 24.9793C17.3056 23.2136 17.3146 21.4479 17.3146 19.6159H11.2386C11.2386 19.7793 11.2386 19.9279 11.2386 20.0765C11.2386 22.001 11.2386 23.9256 11.2386 25.8502C11.2386 26.5336 11.0026 26.7725 10.3206 26.7759C9.54598 26.7805 8.77137 26.7862 7.99677 26.7725C7.74158 26.7679 7.60721 26.8262 7.50107 27.0936C7.00649 28.3428 5.71699 29.0593 4.47716 28.809C3.13685 28.5393 2.20077 27.4125 2.20077 26.0662C2.20077 24.7233 3.14814 23.5828 4.47942 23.3233C5.72828 23.0799 7.00198 23.793 7.50558 25.0422C7.59817 25.2719 7.69641 25.3748 7.95386 25.3668C8.57038 25.3473 9.18804 25.3599 9.83279 25.3599V19.6159C9.34725 19.6159 8.88655 19.6159 8.42472 19.6159C7.1849 19.6159 5.94508 19.633 4.70639 19.609C2.01559 19.5576 -0.0790111 17.3165 0.00228866 14.6056C0.066651 12.4742 1.6249 10.5828 3.7003 10.1188C3.83467 10.089 3.96904 10.0559 4.12825 10.017C3.95775 8.8319 4.0797 7.6959 4.49523 6.5999C5.6323 3.59647 8.66072 1.84219 11.8404 2.35647C12.0979 2.39761 12.2537 2.33819 12.4378 2.17704C15.6502 -0.634386 20.3397 -0.6241 23.5871 2.18047C23.7215 2.2959 23.962 2.3679 24.1359 2.34047C28.3793 1.67647 32.0841 4.97704 31.9362 9.30619C31.9283 9.53247 31.8989 9.75762 31.8763 10.0205C32.057 10.0616 32.232 10.0982 32.4036 10.1416C34.5942 10.6913 36.0994 12.753 35.9944 15.0582C35.8928 17.2822 34.1889 19.1919 31.9836 19.5359C31.6098 19.5942 31.2271 19.6102 30.8488 19.6125C29.3007 19.6205 27.7526 19.6159 26.165 19.6159H26.1661ZM18.0023 18.2228C18.1705 18.2228 18.3399 18.2228 18.5082 18.2228C22.6477 18.2228 26.7861 18.2228 30.9256 18.2205C31.1785 18.2205 31.4326 18.201 31.6832 18.169C33.3668 17.9508 34.6654 16.4319 34.6179 14.7473C34.5671 12.9553 33.2031 11.5153 31.4529 11.4068C30.5688 11.3519 30.2763 10.9725 30.4434 10.097C31.1751 6.26161 27.9276 2.99647 24.1528 3.79533C23.6233 3.90733 23.2484 3.79876 22.86 3.42847C20.115 0.820471 15.8806 0.821614 13.1379 3.43419C12.7472 3.80561 12.3689 3.9039 11.8427 3.79419C8.06452 3.00333 4.81704 6.27533 5.5589 10.1039C5.72828 10.9748 5.43357 11.353 4.54491 11.409C2.41192 11.5428 0.936107 13.6445 1.51537 15.7245C1.93993 17.2502 3.28025 18.2205 4.99658 18.2228C9.33257 18.2273 13.6686 18.2239 18.0034 18.225L18.0023 18.2228ZM32.4093 26.073C32.4149 25.3165 31.7837 24.6742 31.0407 24.681C30.3045 24.689 29.6982 25.2959 29.6835 26.041C29.6677 26.8022 30.2752 27.4388 31.0306 27.4513C31.777 27.465 32.4036 26.8376 32.4093 26.0719V26.073ZM18.0125 26.7919C17.2277 26.7896 16.6416 27.3702 16.6405 28.1508C16.6405 28.9199 17.2503 29.5382 18.0068 29.5336C18.7633 29.529 19.3641 28.9073 19.3584 28.1348C19.3528 27.377 18.769 26.7953 18.0125 26.7919ZM4.94803 24.681C4.19487 24.689 3.58174 25.3222 3.5919 26.0845C3.60093 26.8502 4.22988 27.4696 4.97964 27.4525C5.73167 27.4353 6.33464 26.7942 6.31657 26.0308C6.29851 25.2902 5.67408 24.6742 4.94916 24.6822L4.94803 24.681Z" fill="#0C1230"/>
<path d="M26.7443 8.42246C26.5602 8.64075 26.4383 8.90589 26.2441 8.98246C26.0465 9.06018 25.7427 9.01446 25.5485 8.90703C25.2978 8.7676 25.1138 8.50818 24.8947 8.30703C20.8128 4.55275 14.7255 4.67846 10.7994 8.59732C10.7294 8.66703 10.6616 8.74018 10.5894 8.80761C10.2258 9.14589 9.83507 9.16418 9.54262 8.85561C9.275 8.57332 9.27726 8.13789 9.60811 7.82818C10.1546 7.31618 10.7 6.79275 11.303 6.35275C15.9337 2.96875 22.4456 3.59961 26.3649 7.79961C26.5094 7.95503 26.593 8.16989 26.7432 8.42246H26.7443Z" fill="#0C1230"/>
<path d="M18.2383 7.08765C20.5 7.10936 22.6251 8.03622 24.3956 9.81222C24.7807 10.1985 24.8157 10.6316 24.504 10.9345C24.1901 11.2385 23.8232 11.1974 23.4313 10.8156C20.2279 7.69679 15.7812 7.69336 12.5778 10.8088C12.1713 11.2042 11.7817 11.2385 11.4735 10.9071C11.1912 10.6031 11.2398 10.1939 11.6022 9.8145C13.2632 8.08308 15.5949 7.08879 18.2383 7.08765Z" fill="#0C1230"/>
<path d="M18.0011 9.9904C19.7626 10.0087 21.2644 10.6567 22.5064 11.9161C22.9197 12.3355 22.8508 12.8967 22.3766 13.1195C22.0017 13.2955 21.7375 13.1093 21.4778 12.8555C20.4931 11.891 19.3199 11.3801 17.939 11.395C16.7195 11.4087 15.6592 11.8407 14.7423 12.6475C14.6678 12.7127 14.5989 12.7847 14.5266 12.8521C14.1021 13.2521 13.7306 13.2921 13.4189 12.9733C13.1005 12.6475 13.1513 12.2395 13.5827 11.8224C14.8168 10.627 16.2859 10.0041 17.9999 9.98926L18.0011 9.9904Z" fill="#0C1230"/>
<path d="M20.1894 14.8943C20.1906 16.092 19.1822 17.1069 18.0022 17.0966C16.7974 17.0852 15.8207 16.1035 15.8128 14.8955C15.8049 13.6886 16.7861 12.6852 17.9785 12.6795C19.2014 12.6738 20.1883 13.6623 20.1894 14.8955V14.8943ZM18.7915 14.9046C18.8006 14.4532 18.4494 14.0783 18.0101 14.0703C17.5743 14.0623 17.2073 14.4338 17.2073 14.8829C17.2073 15.3218 17.5382 15.6703 17.9684 15.6852C18.4212 15.7012 18.7825 15.3572 18.7915 14.9035V14.9046Z" fill="#0C1230"/>
</g>
<defs>
<clipPath id="clip0_204_1105">
<rect width="36" height="30.8571" fill="white" transform="translate(0 0.0715332)"/>
</clipPath>
</defs>
</svg>
