<svg width="36" height="33" viewBox="0 0 36 33" fill="none" xmlns="http://www.w3.org/2000/svg">
<g clip-path="url(#clip0_204_695)">
<path d="M28.2569 21.9063C27.2157 22.5963 26.0989 23.0035 24.8371 23.1156C24.8371 23.638 24.8371 24.1427 24.8371 24.6484C24.8371 25.3928 24.8443 26.1382 24.8319 26.8826C24.8288 27.0983 24.8868 27.1978 25.0992 27.2763C25.7757 27.5297 26.2564 28.0123 26.5092 28.6939C26.5952 28.9242 26.706 28.9797 26.9288 28.9776C28.26 28.9693 29.5913 28.9776 30.9225 28.9714C31.2914 28.9703 31.5566 29.1064 31.6467 29.4812C31.7451 29.8906 31.4219 30.2246 30.9288 30.2256C29.611 30.2298 28.2921 30.234 26.9743 30.2215C26.7195 30.2194 26.6003 30.2885 26.4936 30.5376C26.0668 31.5344 25.2846 32.0683 24.2196 32.0704C23.1546 32.0715 22.3724 31.5365 21.9425 30.5429C21.8368 30.2989 21.726 30.2204 21.4659 30.2215C19.165 30.233 16.865 30.2319 14.5641 30.2215C14.3092 30.2204 14.1901 30.2874 14.0834 30.5366C13.6565 31.5333 12.8744 32.0673 11.8094 32.0694C10.7443 32.0715 9.96217 31.5354 9.53119 30.5418C9.42552 30.2979 9.3157 30.2173 9.05463 30.2204C7.73684 30.2351 6.41801 30.2235 5.10022 30.2288C4.73244 30.2298 4.46618 30.0937 4.37605 29.7189C4.27763 29.3074 4.59879 28.9766 5.094 28.9745C6.41179 28.9703 7.73062 28.9661 9.04842 28.9787C9.30016 28.9808 9.42863 28.9242 9.52601 28.6635C9.77465 27.9956 10.2668 27.5495 10.9122 27.2637C11.0199 27.2156 11.1722 27.0941 11.1733 27.0051C11.1898 25.7152 11.1846 24.4243 11.1846 23.1177C10.1559 23.0004 9.21003 22.7261 8.31803 22.256C8.21651 22.2026 8.00723 22.2853 7.88291 22.3617C4.96036 24.1825 1.14891 22.7052 0.202003 19.3778C-0.710713 16.1688 1.56227 12.9598 4.8982 12.7599C5.12094 12.7463 5.2349 12.6772 5.33746 12.4772C7.90985 7.44747 14.6874 7.04752 17.8482 11.7359C17.8907 11.7987 17.9363 11.8595 18.0026 11.9516C18.0855 11.8427 18.1549 11.7558 18.2201 11.6658C19.9503 9.25561 22.2968 8.13743 25.2069 8.54262C28.116 8.9478 30.0792 10.668 31.0904 13.4613C31.1898 13.7367 31.2914 13.8404 31.5897 13.8466C33.9435 13.9011 35.9109 15.904 35.9948 18.3089C36.0798 20.7442 34.2554 22.8727 31.8984 23.1062C30.5206 23.2423 29.3261 22.8318 28.2548 21.9042L28.2569 21.9063ZM18.4999 21.854C20.8412 21.8812 22.4066 20.2793 22.3382 18.3675C22.2678 16.4065 20.6216 14.9177 18.6998 15.0789C17.9114 15.1449 17.813 15.0716 17.6203 14.2654C16.8889 11.2082 13.7156 9.16871 10.6708 9.80947C8.57289 10.2513 7.08623 11.4721 6.23464 13.4582C6.05955 13.8655 5.81195 14.0351 5.37579 14.0236C5.01734 14.0141 4.64852 14.0456 4.29939 14.1241C2.69048 14.4874 1.55295 15.7438 1.28566 17.4189C1.04427 18.9287 1.81402 20.541 3.16082 21.3483C4.54906 22.1806 6.2595 22.0655 7.56072 21.052C8.02174 20.6929 8.15745 20.6876 8.63919 20.963C10.9474 22.278 13.1966 22.1754 15.3784 20.6573C15.8643 20.3191 16.0798 20.3327 16.4817 20.763C17.1458 21.4708 17.9559 21.8456 18.4999 21.855V21.854ZM22.4304 21.587C22.5351 21.6278 22.6045 21.6624 22.678 21.6812C24.5325 22.1524 26.2346 21.8205 27.7845 20.6897C28.3077 20.3086 28.5201 20.3222 28.9458 20.786C29.5643 21.4603 30.3279 21.8142 31.2302 21.8864C33.4431 22.0623 35.1992 20.1317 34.8573 17.9194C34.6397 16.5133 33.3437 14.9271 31.1525 15.0904C30.2937 15.1543 30.2471 15.0988 30.0409 14.2707C29.4462 11.8814 27.3442 10.0126 24.9759 9.76549C22.3393 9.49118 19.9337 10.7915 18.8283 13.0886C18.5693 13.6278 18.6791 13.8194 19.2613 13.8404C21.8648 13.9356 23.942 16.4798 23.5555 19.0805C23.4157 20.0207 23.0417 20.8447 22.4294 21.588L22.4304 21.587ZM23.5856 23.1805C22.849 22.9669 22.16 22.7586 21.4649 22.5711C21.3447 22.5387 21.1862 22.567 21.0702 22.6204C19.2831 23.4443 17.6099 23.2684 16.0601 22.0403C15.8985 21.9126 15.7969 21.922 15.6208 22.0079C15.0085 22.3094 14.3942 22.612 13.757 22.8528C13.3426 23.0098 12.8878 23.058 12.4268 23.1606C12.4268 24.4421 12.4237 25.7194 12.4351 26.9978C12.4351 27.0805 12.5356 27.2072 12.6174 27.2386C13.3509 27.5181 13.8451 28.028 14.1393 28.7588C14.1787 28.8551 14.3341 28.9651 14.4367 28.9661C16.8132 28.9776 19.1898 28.9766 21.5664 28.9682C21.669 28.9682 21.8358 28.8928 21.8637 28.8143C22.158 27.9589 22.7609 27.4375 23.5856 27.1517V23.1815V23.1805ZM13.0453 29.5985C13.0412 28.9127 12.49 28.3536 11.8125 28.3494C11.1215 28.3453 10.5548 28.9253 10.5672 29.6247C10.5786 30.3073 11.1411 30.8591 11.8197 30.8549C12.491 30.8496 13.0495 30.278 13.0453 29.5985ZM24.2103 30.8538C24.8868 30.857 25.4452 30.3021 25.4556 29.6173C25.4659 28.9389 24.9117 28.3599 24.2424 28.3484C23.5483 28.3369 22.9764 28.9054 22.9774 29.6048C22.9795 30.2885 23.5338 30.8496 24.2103 30.8538Z" fill="#0C1230"/>
<path d="M23.6944 3.33917C23.4364 3.61034 23.0769 3.5873 22.7351 3.2774C22.619 3.1727 22.5092 3.06172 22.3901 2.96121C21.2981 2.04196 20.0497 1.49438 18.6304 1.36979C18.417 1.35095 18.2067 1.34152 18.0005 1.34048H17.9995C17.7933 1.34152 17.583 1.35095 17.3696 1.36979C15.9503 1.49438 14.7019 2.04196 13.61 2.96121C13.4908 3.06172 13.381 3.1727 13.265 3.2774C12.9231 3.5873 12.5636 3.61034 12.3056 3.33917C12.0363 3.05648 12.0663 2.70993 12.3999 2.37804C13.2515 1.53208 14.2378 0.881898 15.3774 0.536394C16.2238 0.279883 16.9511 0.129117 17.8762 0.0746742C17.9218 0.0715332 17.9964 0.0715332 17.9964 0.0715332H18.0036C18.0036 0.0715332 18.0782 0.0715332 18.1238 0.0746742C19.049 0.129117 19.7762 0.279883 20.6227 0.536394C21.7623 0.881898 22.7485 1.53208 23.6001 2.37804C23.9337 2.70993 23.9638 3.05648 23.6944 3.33917Z" fill="#0C1230"/>
<path d="M21.9642 5.08774C21.7228 5.36624 21.3623 5.37252 21.036 5.1003C20.9665 5.04272 20.9033 4.97571 20.835 4.91708C20.0051 4.20618 19.0613 3.84183 18.0005 3.84392H17.9994C16.9386 3.84183 15.9948 4.20618 15.1649 4.91708C15.0966 4.97571 15.0334 5.04272 14.964 5.1003C14.6376 5.37252 14.2771 5.36624 14.0357 5.08774C13.8098 4.82704 13.8337 4.46269 14.1217 4.18105C15.0126 3.30787 16.0766 2.79275 17.3063 2.63361C17.5374 2.60429 17.7694 2.59697 17.928 2.58545C17.9528 2.58545 17.9756 2.5865 17.9994 2.5865H18.0005C18.0243 2.5865 18.0471 2.58545 18.072 2.58545C18.2305 2.59697 18.4625 2.60429 18.6936 2.63361C19.9233 2.79275 20.9873 3.30787 21.8782 4.18105C22.1662 4.46269 22.1901 4.82704 21.9642 5.08774Z" fill="#0C1230"/>
<path d="M20.171 6.8288C19.9327 7.10207 19.5877 7.08531 19.2355 6.8466C18.963 6.66129 18.6646 6.48016 18.3507 6.40059C18.2316 6.37022 18.1145 6.35347 18.0005 6.34824H17.9995C17.8856 6.35347 17.7685 6.37022 17.6493 6.40059C17.3354 6.48016 17.0371 6.66129 16.7646 6.8466C16.4124 7.08531 16.0674 7.10207 15.8291 6.8288C15.5887 6.55135 15.6343 6.19328 15.9472 5.90013C16.5108 5.3714 17.2546 5.10756 17.9995 5.10547H18.0005C18.7454 5.10756 19.4893 5.3714 20.0529 5.90013C20.3657 6.19328 20.4113 6.55135 20.171 6.8288Z" fill="#0C1230"/>
</g>
<defs>
<clipPath id="clip0_204_695">
<rect width="36" height="32" fill="white" transform="translate(0 0.0715332)"/>
</clipPath>
</defs>
</svg>
